Cascade-BoldItalic.ufo
<glyph name="exclam" format="2">
  <advance width="290"/>
  <unicode hex="0021"/>
  <outline>
    <contour>
      <point x="163" y="700" type="line" name="n00"/>
      <point x="95" y="200" type="line"/>
      <point x="215" y="200" type="line"/>
      <point x="323" y="700" type="line"/>
    </contour>
    <contour>
      <point x="144" y="140" type="curve" smooth="yes" name="n04"/>
      <point x="104" y="140"/>
      <point x="64" y="105"/>
      <point x="56" y="65" type="curve" smooth="yes"/>
      <point x="49" y="25"/>
      <point x="78" y="-10" name="n09"/>
      <point x="118" y="-10" type="curve" smooth="yes" name="n10"/>
      <point x="158" y="-10"/>
      <point x="198" y="25"/>
      <point x="206" y="65" type="curve" smooth="yes"/>
      <point x="213" y="105"/>
      <point x="184" y="140"/>
    </contour>
  </outline>
</glyph>
<glyph name="quotedbl" format="2">
  <advance width="380"/>
  <unicode hex="0022"/>
  <outline>
    <contour>
      <point x="133" y="700" type="line" name="n00"/>
      <point x="115" y="455" type="line" name="n01"/>
      <point x="200" y="455" type="line"/>
      <point x="268" y="700" type="line"/>
    </contour>
    <contour>
      <point x="308" y="700" type="line"/>
      <point x="290" y="455" type="line"/>
      <point x="375" y="455" type="line"/>
      <point x="443" y="700" type="line" name="n07"/>
    </contour>
  </outline>
</glyph>
<glyph name="numbersign" format="2">
  <advance width="667"/>
  <unicode hex="0023"/>
  <outline>
    <contour>
      <point x="395" y="530" type="line"/>
      <point x="470" y="700" type="line" name="n01"/>
      <point x="340" y="700" type="line"/>
      <point x="265" y="530" type="line"/>
      <point x="140" y="530" type="line" name="n04"/>
      <point x="124" y="440" type="line" name="n05"/>
      <point x="229" y="440" type="line"/>
      <point x="152" y="260" type="line"/>
      <point x="35" y="260" type="line" name="n08"/>
      <point x="19" y="170" type="line" name="n09"/>
      <point x="111" y="170" type="line"/>
      <point x="37" y="0" type="line" name="n11"/>
      <point x="167" y="0" type="line"/>
      <point x="241" y="170" type="line"/>
      <point x="341" y="170" type="line"/>
      <point x="267" y="0" type="line"/>
      <point x="397" y="0" type="line"/>
      <point x="471" y="170" type="line"/>
      <point x="599" y="170" type="line"/>
      <point x="615" y="260" type="line"/>
      <point x="512" y="260" type="line"/>
      <point x="589" y="440" type="line"/>
      <point x="704" y="440" type="line"/>
      <point x="720" y="530" type="line" name="n23"/>
      <point x="625" y="530" type="line"/>
      <point x="700" y="700" type="line"/>
      <point x="570" y="700" type="line"/>
      <point x="495" y="530" type="line"/>
    </contour>
    <contour>
      <point x="282" y="260" type="line"/>
      <point x="359" y="440" type="line"/>
      <point x="459" y="440" type="line"/>
      <point x="382" y="260" type="line"/>
    </contour>
  </outline>
</glyph>
<glyph name="dollar" format="2">
  <advance width="535"/>
  <unicode hex="0024"/>
  <outline>
    <contour>
      <point x="157" y="-70" type="line" name="hr04"/>
      <point x="292" y="-70" type="line" name="n01"/>
      <point x="305" y="0" type="line"/>
      <point x="420" y="25"/>
      <point x="491" y="94"/>
      <point x="508" y="190" type="curve" smooth="yes"/>
      <point x="548" y="415"/>
      <point x="224" y="391"/>
      <point x="248" y="530" type="curve" smooth="yes"/>
      <point x="256" y="575"/>
      <point x="309" y="620"/>
      <point x="369" y="620" type="curve" smooth="yes" name="n11"/>
      <point x="416" y="620"/>
      <point x="450" y="608"/>
      <point x="471" y="597" type="curve"/>
      <point x="483" y="590"/>
      <point x="493" y="583"/>
      <point x="501" y="575" type="curve"/>
      <point x="511" y="575" type="line"/>
      <point x="570" y="655" type="line"/>
      <point x="561" y="662"/>
      <point x="549" y="669"/>
      <point x="536" y="676" type="curve"/>
      <point x="513" y="687"/>
      <point x="478" y="700"/>
      <point x="429" y="705" type="curve" name="n25"/>
      <point x="440" y="770" type="line" name="hr02"/>
      <point x="305" y="770" type="line" name="n27"/>
      <point x="293" y="700" type="line"/>
      <point x="189" y="675"/>
      <point x="121" y="604"/>
      <point x="106" y="520" type="curve"/>
      <point x="68" y="295"/>
      <point x="391" y="319"/>
      <point x="366" y="180" type="curve" smooth="yes"/>
      <point x="355" y="120"/>
      <point x="309" y="80"/>
      <point x="229" y="80" type="curve" smooth="yes" name="n37"/>
      <point x="176" y="80"/>
      <point x="142" y="91"/>
      <point x="119" y="102" type="curve"/>
      <point x="106" y="109"/>
      <point x="96" y="116"/>
      <point x="87" y="125" type="curve"/>
      <point x="77" y="125" type="line"/>
      <point x="17" y="45" type="line"/>
      <point x="26" y="38"/>
      <point x="38" y="31"/>
      <point x="52" y="24" type="curve"/>
      <point x="76" y="13"/>
      <point x="113" y="0"/>
      <point x="169" y="-5" type="curve" name="n51"/>
    </contour>
  </outline>
</glyph>
<glyph name="percent" format="2">
  <advance width="850"/>
  <unicode hex="0025"/>
  <outline>
    <contour>
      <point x="231" y="350" type="curve" smooth="yes" name="n00"/>
      <point x="331" y="350"/>
      <point x="419" y="426"/>
      <point x="438" y="530" type="curve" smooth="yes"/>
      <point x="457" y="634"/>
      <point x="395" y="710"/>
      <point x="295" y="710" type="curve" smooth="yes" name="n06"/>
      <point x="194" y="710"/>
      <point x="107" y="634"/>
      <point x="88" y="530" type="curve" smooth="yes"/>
      <point x="69" y="426"/>
      <point x="131" y="350"/>
    </contour>
    <contour>
      <point x="90" y="0" type="line" name="n12"/>
      <point x="240" y="0" type="line"/>
      <point x="833" y="700" type="line" name="n14"/>
      <point x="683" y="700" type="line" name="hr01"/>
    </contour>
    <contour>
      <point x="245" y="430" type="curve" smooth="yes" name="n16"/>
      <point x="214" y="430"/>
      <point x="195" y="455"/>
      <point x="208" y="530" type="curve" smooth="yes"/>
      <point x="221" y="605"/>
      <point x="250" y="630"/>
      <point x="281" y="630" type="curve" smooth="yes" name="n22"/>
      <point x="310" y="630"/>
      <point x="331" y="605"/>
      <point x="318" y="530" type="curve" smooth="yes"/>
      <point x="305" y="455"/>
      <point x="274" y="430"/>
    </contour>
    <contour>
      <point x="628" y="-10" type="curve" smooth="yes" name="n28"/>
      <point x="728" y="-10"/>
      <point x="815" y="66"/>
      <point x="834" y="170" type="curve" smooth="yes"/>
      <point x="853" y="274"/>
      <point x="791" y="350"/>
      <point x="691" y="350" type="curve" smooth="yes" name="n34"/>
      <point x="591" y="350"/>
      <point x="503" y="274"/>
      <point x="484" y="170" type="curve" smooth="yes"/>
      <point x="465" y="66"/>
      <point x="528" y="-10"/>
    </contour>
    <contour>
      <point x="642" y="70" type="curve" smooth="yes" name="n40"/>
      <point x="611" y="70"/>
      <point x="591" y="95"/>
      <point x="604" y="170" type="curve"/>
      <point x="619" y="246"/>
      <point x="646" y="270"/>
      <point x="677" y="270" type="curve" smooth="yes" name="n46"/>
      <point x="708" y="270"/>
      <point x="727" y="245" name="hr03"/>
      <point x="714" y="170" type="curve" smooth="yes"/>
      <point x="701" y="94"/>
      <point x="673" y="70"/>
    </contour>
  </outline>
</glyph>
<glyph name="ampersand" format="2">
  <advance width="645"/>
  <unicode hex="0026"/>
  <outline>
    <contour>
      <point x="220.233" y="-10" type="curve" smooth="yes" name="n00"/>
      <point x="292.625" y="-10"/>
      <point x="364.46" y="12.1213"/>
      <point x="423" y="50" type="curve"/>
      <point x="455" y="0" type="line" name="n04"/>
      <point x="615" y="0" type="line" name="n05"/>
      <point x="528" y="135" type="line" name="n06"/>
      <point x="571" y="180"/>
      <point x="606" y="235"/>
      <point x="621" y="320" type="curve" name="n09"/>
      <point x="491" y="320" type="line"/>
      <point x="485.42" y="282.95"/>
      <point x="480.58" y="262.05"/>
      <point x="469" y="225" type="curve"/>
      <point x="370" y="375" type="line"/>
      <point x="443.612" y="414.435"/>
      <point x="539.841" y="490.195"/>
      <point x="539.841" y="582.368" type="curve" smooth="yes"/>
      <point x="539.841" y="652.608"/>
      <point x="483.657" y="710"/>
      <point x="377.099" y="710" type="curve" smooth="yes" name="n20"/>
      <point x="262.388" y="710"/>
      <point x="148.408" y="643.49"/>
      <point x="148.408" y="525.227" type="curve" smooth="yes"/>
      <point x="148.408" y="468.922"/>
      <point x="174.244" y="415.239"/>
      <point x="212" y="380" type="curve"/>
      <point x="120.942" y="337.506"/>
      <point x="22.9726" y="256.18"/>
      <point x="22.9726" y="148.868" type="curve" smooth="yes"/>
      <point x="22.9726" y="57.8492"/>
      <point x="93.4519" y="-10" name="hr04"/>
    </contour>
    <contour>
      <point x="319" y="450" type="curve"/>
      <point x="303.697" y="474.048"/>
      <point x="289.84" y="507.515"/>
      <point x="289.84" y="536.024" type="curve" smooth="yes"/>
      <point x="289.84" y="575.842"/>
      <point x="315.405" y="625"/>
      <point x="356.367" y="625" type="curve" smooth="yes" name="n38"/>
      <point x="381.567" y="625"/>
      <point x="399.413" y="606.394"/>
      <point x="399.413" y="575.603" type="curve" smooth="yes"/>
      <point x="399.413" y="527.092"/>
      <point x="357.869" y="476.909"/>
    </contour>
    <contour>
      <point x="264.496" y="80" type="curve" smooth="yes" name="n44"/>
      <point x="200.485" y="80"/>
      <point x="164.662" y="115.658"/>
      <point x="164.662" y="163.628" type="curve" smooth="yes"/>
      <point x="164.662" y="219.025"/>
      <point x="211.128" y="272.477"/>
      <point x="257" y="300" type="curve"/>
      <point x="380" y="115" type="line"/>
      <point x="347.858" y="90"/>
      <point x="298.395" y="80"/>
    </contour>
  </outline>
</glyph>
<glyph name="quotesingle" format="2">
  <advance width="205"/>
  <unicode hex="0027"/>
  <outline>
    <contour>
      <point x="133" y="700" type="line" name="n00"/>
      <point x="115" y="455" type="line" name="n01"/>
      <point x="200" y="455" type="line"/>
      <point x="268" y="700" type="line" name="n03"/>
    </contour>
  </outline>
</glyph>
<glyph name="parenleft" format="2">
  <advance width="320"/>
  <unicode hex="0028"/>
  <outline>
    <contour>
      <point x="219" y="280" type="curve" smooth="yes"/>
      <point x="251" y="460"/>
      <point x="317" y="585"/>
      <point x="416" y="690" type="curve"/>
      <point x="371" y="745" type="line" name="n04"/>
      <point x="228" y="642"/>
      <point x="111" y="469"/>
      <point x="79" y="280" type="curve"/>
      <point x="44" y="91"/>
      <point x="100" y="-81"/>
      <point x="207" y="-185" type="curve" name="n10"/>
      <point x="272" y="-130" type="line"/>
      <point x="209" y="-25"/>
      <point x="187" y="100"/>
    </contour>
  </outline>
</glyph>
<glyph name="parenright" format="2">
  <advance width="320"/>
  <unicode hex="0029"/>
  <outline>
    <contour>
      <point x="149" y="280" type="curve" smooth="yes"/>
      <point x="117" y="100"/>
      <point x="50" y="-25"/>
      <point x="-47" y="-130" type="curve"/>
      <point x="-3" y="-185" type="line" name="n04"/>
      <point x="141" y="-81"/>
      <point x="254" y="91"/>
      <point x="289" y="280" type="curve"/>
      <point x="321" y="469"/>
      <point x="268" y="641"/>
      <point x="161" y="745" type="curve" name="n10"/>
      <point x="96" y="690" type="line"/>
      <point x="158" y="585"/>
      <point x="181" y="460"/>
    </contour>
  </outline>
</glyph>
<glyph name="asterisk" format="2">
  <advance width="440"/>
  <unicode hex="002A"/>
  <outline>
    <contour>
      <point x="363" y="700" type="line" name="n00"/>
      <point x="273" y="700" type="line"/>
      <point x="254" y="592" type="line"/>
      <point x="164" y="650" type="line"/>
      <point x="105" y="570" type="line"/>
      <point x="191" y="515" type="line"/>
      <point x="86" y="460" type="line" name="n06"/>
      <point x="117" y="380" type="line"/>
      <point x="227" y="437" type="line"/>
      <point x="208" y="330" type="line"/>
      <point x="298" y="330" type="line"/>
      <point x="317" y="437" type="line"/>
      <point x="407" y="380" type="line"/>
      <point x="466" y="460" type="line"/>
      <point x="379" y="515" type="line"/>
      <point x="485" y="570" type="line" name="n15"/>
      <point x="454" y="650" type="line"/>
      <point x="344" y="592" type="line"/>
    </contour>
  </outline>
</glyph>
<glyph name="plus" format="2">
  <advance width="490"/>
  <unicode hex="002B"/>
  <outline>
    <contour>
      <point x="190" y="115" type="line"/>
      <point x="290" y="115" type="line"/>
      <point x="319" y="280" type="line" name="n02"/>
      <point x="484" y="280" type="line"/>
      <point x="502" y="380" type="line" name="n04"/>
      <point x="337" y="380" type="line" name="n05"/>
      <point x="366" y="545" type="line"/>
      <point x="266" y="545" type="line"/>
      <point x="237" y="380" type="line"/>
      <point x="72" y="380" type="line"/>
      <point x="54" y="280" type="line" name="n10"/>
      <point x="219" y="280" type="line"/>
    </contour>
  </outline>
</glyph>
<glyph name="comma" format="2">
  <advance width="220"/>
  <unicode hex="002C"/>
  <outline>
    <contour>
      <point x="21" y="65" type="curve" smooth="yes"/>
      <point x="14" y="25"/>
      <point x="43" y="-10" name="n02"/>
      <point x="83" y="-10" type="curve"/>
      <point x="78" y="-35"/>
      <point x="59" y="-56"/>
      <point x="40" y="-71" type="curve" smooth="yes"/>
      <point x="29" y="-80"/>
      <point x="16" y="-88"/>
      <point x="3" y="-95" type="curve"/>
      <point x="26" y="-135" type="line"/>
      <point x="48" y="-125"/>
      <point x="69" y="-111"/>
      <point x="88" y="-94" type="curve" smooth="yes"/>
      <point x="121" y="-65"/>
      <point x="156" y="-18"/>
      <point x="169" y="55" type="curve" smooth="yes"/>
      <point x="178" y="106"/>
      <point x="149" y="140"/>
      <point x="104" y="140" type="curve" smooth="yes"/>
      <point x="69" y="140"/>
      <point x="29" y="105"/>
    </contour>
  </outline>
</glyph>
<glyph name="hyphen" format="2">
  <advance width="450"/>
  <unicode hex="002D"/>
  <outline>
    <contour>
      <point x="54" y="280" type="line" name="n00"/>
      <point x="444" y="280" type="line"/>
      <point x="462" y="380" type="line" name="n02"/>
      <point x="72" y="380" type="line" name="n03"/>
    </contour>
  </outline>
</glyph>
<glyph name="period" format="2">
  <advance width="220"/>
  <unicode hex="002E"/>
  <outline>
    <contour>
      <point x="109" y="140" type="curve" smooth="yes" name="n00"/>
      <point x="69" y="140"/>
      <point x="29" y="105"/>
      <point x="21" y="65" type="curve" smooth="yes"/>
      <point x="14" y="25"/>
      <point x="43" y="-10"/>
      <point x="83" y="-10" type="curve" smooth="yes" name="n06"/>
      <point x="123" y="-10"/>
      <point x="163" y="25"/>
      <point x="171" y="65" type="curve" smooth="yes"/>
      <point x="178" y="105"/>
      <point x="149" y="140"/>
    </contour>
  </outline>
</glyph>
<glyph name="slash" format="2">
  <advance width="450"/>
  <unicode hex="002F"/>
  <outline>
    <contour>
      <point x="408" y="700" type="line" name="n00"/>
      <point x="-25" y="0" type="line" name="n01"/>
      <point x="115" y="0" type="line"/>
      <point x="548" y="700" type="line" name="n03"/>
    </contour>
  </outline>
</glyph>
<glyph name="zero" format="2">
  <advance width="610"/>
  <unicode hex="0030"/>
  <outline>
    <contour>
      <point x="278" y="-10" type="curve" smooth="yes" name="n00"/>
      <point x="428" y="-10"/>
      <point x="551" y="95"/>
      <point x="596" y="350" type="curve" smooth="yes"/>
      <point x="641" y="605"/>
      <point x="555" y="710"/>
      <point x="405" y="710" type="curve" smooth="yes" name="n06"/>
      <point x="256" y="710"/>
      <point x="131" y="605"/>
      <point x="86" y="350" type="curve" smooth="yes"/>
      <point x="41" y="95"/>
      <point x="128" y="-10"/>
    </contour>
    <contour>
      <point x="294" y="80" type="curve" smooth="yes" name="n12"/>
      <point x="233" y="80"/>
      <point x="189" y="135"/>
      <point x="226" y="350" type="curve" smooth="yes"/>
      <point x="263" y="565"/>
      <point x="330" y="620"/>
      <point x="389" y="620" type="curve" smooth="yes" name="n18"/>
      <point x="450" y="620"/>
      <point x="493" y="565"/>
      <point x="456" y="350" type="curve" smooth="yes"/>
      <point x="419" y="135"/>
      <point x="353" y="80"/>
    </contour>
  </outline>
</glyph>
<glyph name="one" format="2">
  <advance width="410"/>
  <unicode hex="0031"/>
  <outline>
    <contour>
      <point x="25" y="0" type="line" name="n00"/>
      <point x="365" y="0" type="line"/>
      <point x="380" y="90" type="line"/>
      <point x="280" y="90" type="line"/>
      <point x="388" y="700" type="line" name="n04"/>
      <point x="258" y="700" type="line"/>
      <point x="92" y="580" type="line"/>
      <point x="134" y="505" type="line"/>
      <point x="223" y="560" type="line"/>
      <point x="140" y="90" type="line"/>
      <point x="40" y="90" type="line" name="n10"/>
    </contour>
  </outline>
</glyph>
<glyph name="two" format="2">
  <advance width="515"/>
  <unicode hex="0032"/>
  <outline>
    <contour>
      <point x="-5" y="0" type="line"/>
      <point x="455" y="0" type="line" name="n01"/>
      <point x="470" y="90" type="line" name="n02"/>
      <point x="150" y="90" type="line"/>
      <point x="174" y="230"/>
      <point x="508" y="301"/>
      <point x="544" y="510" type="curve" smooth="yes"/>
      <point x="565" y="630"/>
      <point x="500" y="710"/>
      <point x="335" y="710" type="curve" smooth="yes" name="n09"/>
      <point x="267" y="710"/>
      <point x="214" y="697"/>
      <point x="177" y="682" type="curve"/>
      <point x="155" y="674"/>
      <point x="136" y="665"/>
      <point x="120" y="655" type="curve"/>
      <point x="151" y="575" type="line"/>
      <point x="161" y="575" type="line"/>
      <point x="172" y="583"/>
      <point x="184" y="590"/>
      <point x="199" y="597" type="curve" smooth="yes"/>
      <point x="224" y="608"/>
      <point x="261" y="620"/>
      <point x="309" y="620" type="curve" smooth="yes" name="n23"/>
      <point x="385" y="620"/>
      <point x="417" y="580"/>
      <point x="406" y="520" type="curve" smooth="yes"/>
      <point x="378" y="360"/>
      <point x="47" y="300"/>
      <point x="7" y="70" type="curve" smooth="yes"/>
    </contour>
  </outline>
</glyph>
<glyph name="three" format="2">
  <advance width="520"/>
  <unicode hex="0033"/>
  <outline>
    <contour>
      <point x="183" y="-10" type="curve" smooth="yes" name="n00"/>
      <point x="372" y="-10"/>
      <point x="474" y="75"/>
      <point x="495" y="200" type="curve" smooth="yes"/>
      <point x="516" y="324"/>
      <point x="449" y="420"/>
      <point x="284" y="420" type="curve"/>
      <point x="537" y="610" type="line" name="n07"/>
      <point x="553" y="700" type="line" name="n08"/>
      <point x="118" y="700" type="line"/>
      <point x="102" y="610" type="line"/>
      <point x="377" y="610" type="line"/>
      <point x="134" y="420" type="line" name="n12"/>
      <point x="118" y="330" type="line" name="n13"/>
      <point x="233" y="330" type="line" smooth="yes"/>
      <point x="333" y="330"/>
      <point x="370" y="285"/>
      <point x="355" y="200" type="curve" smooth="yes"/>
      <point x="342" y="124"/>
      <point x="289" y="80"/>
      <point x="189" y="80" type="curve" smooth="yes" name="n20"/>
      <point x="141" y="80"/>
      <point x="108" y="91"/>
      <point x="87" y="102" type="curve"/>
      <point x="75" y="109"/>
      <point x="65" y="116"/>
      <point x="57" y="125" type="curve"/>
      <point x="47" y="125" type="line"/>
      <point x="-13" y="45" type="line"/>
      <point x="0" y="34"/>
      <point x="15" y="25"/>
      <point x="34" y="17" type="curve"/>
      <point x="66" y="2"/>
      <point x="115" y="-10"/>
    </contour>
  </outline>
</glyph>
<glyph name="four" format="2">
  <advance width="560"/>
  <unicode hex="0034"/>
  <outline>
    <contour>
      <point x="305" y="0" type="line" name="n00"/>
      <point x="445" y="0" type="line"/>
      <point x="473" y="160" type="line" name="n02"/>
      <point x="543" y="160" type="line"/>
      <point x="559" y="250" type="line"/>
      <point x="489" y="250" type="line" name="n05"/>
      <point x="568" y="700" type="line" name="n06"/>
      <point x="438" y="700" type="line"/>
      <point x="29" y="250" type="line"/>
      <point x="13" y="160" type="line" name="n09"/>
      <point x="333" y="160" type="line"/>
    </contour>
    <contour>
      <point x="169" y="250" type="line"/>
      <point x="361" y="460" type="line" smooth="yes"/>
      <point x="373" y="473"/>
      <point x="383" y="488"/>
      <point x="390" y="500" type="curve" smooth="yes"/>
      <point x="402" y="520" type="line"/>
      <point x="406" y="520" type="line"/>
      <point x="398" y="501" type="line"/>
      <point x="394" y="490"/>
      <point x="389" y="475"/>
      <point x="386" y="460" type="curve" smooth="yes"/>
      <point x="349" y="250" type="line"/>
    </contour>
  </outline>
</glyph>
<glyph name="five" format="2">
  <advance width="540"/>
  <unicode hex="0035"/>
  <outline>
    <contour>
      <point x="213" y="-10" type="curve" smooth="yes" name="n00"/>
      <point x="393" y="-10"/>
      <point x="493" y="75"/>
      <point x="517" y="215" type="curve" smooth="yes"/>
      <point x="542" y="355"/>
      <point x="472" y="440"/>
      <point x="297" y="440" type="curve" smooth="yes"/>
      <point x="257" y="440" type="line" name="n07"/>
      <point x="289" y="620" type="line"/>
      <point x="553" y="620" type="line" name="n09"/>
      <point x="567" y="700" type="line" name="n10"/>
      <point x="163" y="700" type="line"/>
      <point x="108" y="391" type="line"/>
      <point x="140" y="350" type="line"/>
      <point x="266" y="350" type="line" smooth="yes" name="n14"/>
      <point x="356" y="350"/>
      <point x="393" y="305"/>
      <point x="377" y="215" type="curve" smooth="yes"/>
      <point x="362" y="125"/>
      <point x="309" y="80"/>
      <point x="219" y="80" type="curve" smooth="yes" name="n20"/>
      <point x="171" y="80"/>
      <point x="138" y="91"/>
      <point x="117" y="102" type="curve"/>
      <point x="105" y="109"/>
      <point x="95" y="116"/>
      <point x="87" y="125" type="curve"/>
      <point x="77" y="125" type="line"/>
      <point x="17" y="45" type="line"/>
      <point x="30" y="34"/>
      <point x="45" y="25"/>
      <point x="64" y="17" type="curve"/>
      <point x="96" y="2"/>
      <point x="145" y="-10"/>
    </contour>
  </outline>
</glyph>
<glyph name="six" format="2">
  <advance width="560"/>
  <unicode hex="0036"/>
  <outline>
    <contour>
      <point x="264" y="-10" type="curve" smooth="yes" name="n00"/>
      <point x="413" y="-10"/>
      <point x="513" y="74"/>
      <point x="540" y="230" type="curve" smooth="yes"/>
      <point x="565" y="375"/>
      <point x="496" y="460"/>
      <point x="356" y="460" type="curve" smooth="yes" name="n06"/>
      <point x="321" y="460"/>
      <point x="290" y="452"/>
      <point x="269" y="445" type="curve"/>
      <point x="256" y="440"/>
      <point x="245" y="435"/>
      <point x="235" y="430" type="curve"/>
      <point x="259" y="570"/>
      <point x="319" y="620"/>
      <point x="394" y="620" type="curve" smooth="yes" name="n15"/>
      <point x="437" y="620"/>
      <point x="467" y="608"/>
      <point x="487" y="597" type="curve" smooth="yes"/>
      <point x="499" y="590"/>
      <point x="509" y="583"/>
      <point x="517" y="575" type="curve"/>
      <point x="527" y="575" type="line"/>
      <point x="586" y="655" type="line"/>
      <point x="573" y="665"/>
      <point x="558" y="674"/>
      <point x="540" y="682" type="curve"/>
      <point x="509" y="697"/>
      <point x="463" y="710"/>
      <point x="400" y="710" type="curve" smooth="yes" name="n29"/>
      <point x="245" y="710"/>
      <point x="127" y="610"/>
      <point x="95" y="430" type="curve" smooth="yes"/>
      <point x="60" y="230" type="line" smooth="yes"/>
      <point x="33" y="74"/>
      <point x="103" y="-10"/>
    </contour>
    <contour>
      <point x="279" y="80" type="curve" smooth="yes" name="n36"/>
      <point x="219" y="80"/>
      <point x="181" y="125"/>
      <point x="200" y="230" type="curve" smooth="yes"/>
      <point x="219" y="340" type="line"/>
      <point x="228" y="345"/>
      <point x="237" y="350"/>
      <point x="248" y="355" type="curve"/>
      <point x="267" y="362"/>
      <point x="290" y="370"/>
      <point x="315" y="370" type="curve" smooth="yes" name="n46"/>
      <point x="380" y="370"/>
      <point x="417" y="326"/>
      <point x="400" y="230" type="curve" smooth="yes"/>
      <point x="381" y="125"/>
      <point x="330" y="80"/>
    </contour>
  </outline>
</glyph>
<glyph name="seven" format="2">
  <advance width="480"/>
  <unicode hex="0037"/>
  <outline>
    <contour>
      <point x="125" y="0" type="line" name="n00"/>
      <point x="265" y="0" type="line"/>
      <point x="280" y="90" type="line" smooth="yes"/>
      <point x="320" y="319"/>
      <point x="443" y="501"/>
      <point x="552" y="610" type="curve" name="n05"/>
      <point x="568" y="700" type="line" name="n06"/>
      <point x="108" y="700" type="line"/>
      <point x="92" y="610" type="line" name="n08"/>
      <point x="412" y="610" type="line"/>
      <point x="303" y="501"/>
      <point x="180" y="319"/>
      <point x="140" y="90" type="curve" smooth="yes"/>
    </contour>
  </outline>
</glyph>
<glyph name="eight" format="2">
  <advance width="560"/>
  <unicode hex="0038"/>
  <outline>
    <contour>
      <point x="253" y="-10" type="curve" smooth="yes" name="n00"/>
      <point x="424" y="-10"/>
      <point x="522" y="75"/>
      <point x="541" y="180" type="curve" smooth="yes"/>
      <point x="555" y="258"/>
      <point x="523" y="303"/>
      <point x="488" y="333" type="curve"/>
      <point x="467" y="350"/>
      <point x="443" y="362"/>
      <point x="415" y="370" type="curve"/>
      <point x="442" y="377"/>
      <point x="466" y="388"/>
      <point x="488" y="402" type="curve" smooth="yes"/>
      <point x="527" y="426"/>
      <point x="567" y="467"/>
      <point x="579" y="535" type="curve" smooth="yes"/>
      <point x="595" y="626"/>
      <point x="525" y="710"/>
      <point x="380" y="710" type="curve" smooth="yes" name="n18"/>
      <point x="235" y="710"/>
      <point x="135" y="626"/>
      <point x="119" y="535" type="curve" smooth="yes"/>
      <point x="107" y="467"/>
      <point x="132" y="426"/>
      <point x="163" y="402" type="curve"/>
      <point x="180" y="388"/>
      <point x="201" y="377"/>
      <point x="225" y="370" type="curve"/>
      <point x="194" y="362"/>
      <point x="165" y="350"/>
      <point x="138" y="333" type="curve" smooth="yes"/>
      <point x="93" y="305"/>
      <point x="46" y="257"/>
      <point x="31" y="180" type="curve"/>
      <point x="12" y="75"/>
      <point x="84" y="-10"/>
    </contour>
    <contour>
      <point x="329" y="425" type="curve"/>
      <point x="279" y="443"/>
      <point x="246" y="471"/>
      <point x="259" y="535" type="curve"/>
      <point x="267" y="580"/>
      <point x="313" y="620"/>
      <point x="364" y="620" type="curve" smooth="yes" name="n42"/>
      <point x="415" y="620"/>
      <point x="447" y="580"/>
      <point x="439" y="535" type="curve" smooth="yes"/>
      <point x="427" y="470"/>
      <point x="389" y="445"/>
    </contour>
    <contour>
      <point x="269" y="80" type="curve" smooth="yes" name="n48"/>
      <point x="193" y="80"/>
      <point x="160" y="120"/>
      <point x="171" y="180" type="curve"/>
      <point x="184" y="260"/>
      <point x="241" y="291"/>
      <point x="310" y="315" type="curve"/>
      <point x="371" y="291"/>
      <point x="414" y="260"/>
      <point x="401" y="180" type="curve"/>
      <point x="390" y="120"/>
      <point x="345" y="80"/>
    </contour>
  </outline>
</glyph>
<glyph name="nine" format="2">
  <advance width="560"/>
  <unicode hex="0039"/>
  <outline>
    <contour>
      <point x="233" y="-10" type="curve" smooth="yes" name="n00"/>
      <point x="389" y="-10"/>
      <point x="505" y="90"/>
      <point x="537" y="270" type="curve" smooth="yes"/>
      <point x="572" y="470" type="line" smooth="yes"/>
      <point x="600" y="626"/>
      <point x="530" y="710"/>
      <point x="369" y="710" type="curve" smooth="yes" name="n07"/>
      <point x="220" y="710"/>
      <point x="120" y="626"/>
      <point x="92" y="470" type="curve" smooth="yes"/>
      <point x="67" y="325"/>
      <point x="136" y="240"/>
      <point x="277" y="240" type="curve" smooth="yes" name="n13"/>
      <point x="312" y="240"/>
      <point x="342" y="247"/>
      <point x="363" y="255" type="curve"/>
      <point x="375" y="259"/>
      <point x="386" y="264"/>
      <point x="397" y="270" type="curve"/>
      <point x="373" y="130"/>
      <point x="313" y="80"/>
      <point x="239" y="80" type="curve" smooth="yes" name="n22"/>
      <point x="196" y="80"/>
      <point x="166" y="91"/>
      <point x="146" y="102" type="curve" smooth="yes"/>
      <point x="134" y="109"/>
      <point x="124" y="116"/>
      <point x="116" y="125" type="curve"/>
      <point x="106" y="125" type="line"/>
      <point x="46" y="45" type="line"/>
      <point x="59" y="34"/>
      <point x="75" y="25"/>
      <point x="93" y="17" type="curve"/>
      <point x="124" y="2"/>
      <point x="169" y="-10"/>
    </contour>
    <contour>
      <point x="318" y="330" type="curve" smooth="yes" name="n36"/>
      <point x="253" y="330"/>
      <point x="216" y="374"/>
      <point x="232" y="470" type="curve"/>
      <point x="251" y="575"/>
      <point x="304" y="620"/>
      <point x="354" y="620" type="curve" smooth="yes" name="n42"/>
      <point x="414" y="620"/>
      <point x="451" y="575"/>
      <point x="432" y="470" type="curve" smooth="yes"/>
      <point x="413" y="360" type="line"/>
      <point x="404" y="354"/>
      <point x="394" y="349"/>
      <point x="384" y="345" type="curve" smooth="yes"/>
      <point x="365" y="337"/>
      <point x="343" y="330"/>
    </contour>
  </outline>
</glyph>
<glyph name="colon" format="2">
  <advance width="220"/>
  <unicode hex="003A"/>
  <outline>
    <contour>
      <point x="174" y="510" type="curve" smooth="yes" name="n00"/>
      <point x="134" y="510"/>
      <point x="94" y="475"/>
      <point x="86" y="435" type="curve" smooth="yes"/>
      <point x="79" y="395"/>
      <point x="108" y="360"/>
      <point x="148" y="360" type="curve" smooth="yes" name="n06"/>
      <point x="188" y="360"/>
      <point x="228" y="395"/>
      <point x="236" y="435" type="curve" smooth="yes"/>
      <point x="243" y="475"/>
      <point x="214" y="510"/>
    </contour>
    <contour>
      <point x="109" y="140" type="curve" smooth="yes" name="n12"/>
      <point x="69" y="140"/>
      <point x="29" y="105"/>
      <point x="21" y="65" type="curve" smooth="yes"/>
      <point x="14" y="25"/>
      <point x="43" y="-10" name="n17"/>
      <point x="83" y="-10" type="curve" smooth="yes" name="n18"/>
      <point x="123" y="-10"/>
      <point x="163" y="25"/>
      <point x="171" y="65" type="curve" smooth="yes"/>
      <point x="178" y="105"/>
      <point x="149" y="140"/>
    </contour>
  </outline>
</glyph>
<glyph name="semicolon" format="2">
  <advance width="220"/>
  <unicode hex="003B"/>
  <outline>
    <contour>
      <point x="174" y="510" type="curve" smooth="yes" name="n00"/>
      <point x="134" y="510"/>
      <point x="94" y="475"/>
      <point x="86" y="435" type="curve" smooth="yes"/>
      <point x="79" y="395"/>
      <point x="108" y="360"/>
      <point x="148" y="360" type="curve" smooth="yes" name="n06"/>
      <point x="188" y="360"/>
      <point x="228" y="395"/>
      <point x="236" y="435" type="curve" smooth="yes"/>
      <point x="243" y="475"/>
      <point x="214" y="510"/>
    </contour>
    <contour>
      <point x="21" y="65" type="curve" smooth="yes"/>
      <point x="14" y="25"/>
      <point x="43" y="-10" name="n14"/>
      <point x="83" y="-10" type="curve"/>
      <point x="78" y="-35"/>
      <point x="59" y="-56"/>
      <point x="40" y="-71" type="curve" smooth="yes"/>
      <point x="29" y="-80"/>
      <point x="16" y="-88"/>
      <point x="3" y="-95" type="curve"/>
      <point x="26" y="-135" type="line"/>
      <point x="48" y="-125"/>
      <point x="69" y="-111"/>
      <point x="88" y="-94" type="curve" smooth="yes"/>
      <point x="121" y="-65"/>
      <point x="156" y="-18"/>
      <point x="169" y="55" type="curve" smooth="yes"/>
      <point x="178" y="106"/>
      <point x="149" y="140"/>
      <point x="104" y="140" type="curve" smooth="yes"/>
      <point x="69" y="140"/>
      <point x="29" y="105"/>
    </contour>
  </outline>
</glyph>
<glyph name="less" format="2">
  <advance width="455"/>
  <unicode hex="003C"/>
  <outline>
    <contour>
      <point x="395" y="0" type="line" name="n00"/>
      <point x="416" y="120" type="line"/>
      <point x="189" y="250" type="line"/>
      <point x="462" y="380" type="line"/>
      <point x="483" y="500" type="line" name="n04"/>
      <point x="46" y="290" type="line"/>
      <point x="32" y="210" type="line" name="n06"/>
    </contour>
  </outline>
</glyph>
<glyph name="equal" format="2">
  <advance width="510"/>
  <unicode hex="003D"/>
  <outline>
    <contour>
      <point x="76" y="376" type="line" name="n00"/>
      <point x="516" y="376" type="line"/>
      <point x="533" y="476" type="line" name="n02"/>
      <point x="93" y="476" type="line" name="n03"/>
    </contour>
    <contour>
      <point x="42" y="185" type="line" name="n04"/>
      <point x="482" y="185" type="line"/>
      <point x="500" y="285" type="line"/>
      <point x="60" y="285" type="line" name="n07"/>
    </contour>
  </outline>
</glyph>
<glyph name="greater" format="2">
  <advance width="455"/>
  <unicode hex="003E"/>
  <outline>
    <contour>
      <point x="10" y="0" type="line" name="n00"/>
      <point x="447" y="210" type="line"/>
      <point x="461" y="290" type="line" name="n02"/>
      <point x="98" y="500" type="line" name="n03"/>
      <point x="77" y="380" type="line"/>
      <point x="304" y="250" type="line"/>
      <point x="31" y="120" type="line"/>
    </contour>
  </outline>
</glyph>
<glyph name="question" format="2">
  <advance width="490"/>
  <unicode hex="003F"/>
  <outline>
    <contour>
      <point x="305" y="710" type="curve" smooth="yes" name="n00"/>
      <point x="237" y="710"/>
      <point x="184" y="697"/>
      <point x="147" y="682" type="curve"/>
      <point x="125" y="674"/>
      <point x="106" y="665"/>
      <point x="90" y="655" type="curve"/>
      <point x="95.5006" y="640.805"/>
      <point x="113.855" y="593.439"/>
      <point x="121" y="575" type="curve"/>
      <point x="123.102" y="575"/>
      <point x="129.769" y="575"/>
      <point x="131" y="575" type="curve"/>
      <point x="142" y="583"/>
      <point x="154" y="590"/>
      <point x="169" y="597" type="curve" smooth="yes"/>
      <point x="194" y="608"/>
      <point x="231" y="620"/>
      <point x="279" y="620" type="curve" smooth="yes" name="n18"/>
      <point x="359" y="620"/>
      <point x="392" y="581"/>
      <point x="383" y="530" type="curve" smooth="yes"/>
      <point x="359" y="400"/>
      <point x="173" y="400"/>
      <point x="145" y="230" type="curve" smooth="yes"/>
      <point x="144.345" y="226.069"/>
      <point x="141.011" y="206.067"/>
      <point x="140" y="200" type="curve"/>
      <point x="169.771" y="200"/>
      <point x="248.635" y="200"/>
      <point x="270" y="200" type="curve"/>
      <point x="270.798" y="204.791"/>
      <point x="274.028" y="224.166"/>
      <point x="275" y="230" type="curve" smooth="yes"/>
      <point x="295" y="340"/>
      <point x="489" y="340"/>
      <point x="521" y="520" type="curve" smooth="yes"/>
      <point x="540" y="630"/>
      <point x="476" y="710"/>
    </contour>
    <contour>
      <point x="194" y="140" type="curve" smooth="yes" name="n39"/>
      <point x="154" y="140"/>
      <point x="114" y="105"/>
      <point x="106" y="65" type="curve" smooth="yes"/>
      <point x="99" y="25"/>
      <point x="128" y="-10" name="n44"/>
      <point x="168" y="-10" type="curve" smooth="yes" name="n45"/>
      <point x="208" y="-10"/>
      <point x="248" y="25"/>
      <point x="256" y="65" type="curve" smooth="yes"/>
      <point x="263" y="105"/>
      <point x="234" y="140"/>
    </contour>
  </outline>
</glyph>
<glyph name="at" format="2">
  <advance width="960"/>
  <unicode hex="0040"/>
  <outline>
    <contour>
      <point x="423" y="-120" type="curve" smooth="yes" name="n00"/>
      <point x="499" y="-120"/>
      <point x="557" y="-108"/>
      <point x="597" y="-93" type="curve" smooth="yes"/>
      <point x="620" y="-85"/>
      <point x="641" y="-76"/>
      <point x="658" y="-65" type="curve"/>
      <point x="627" y="15" type="line"/>
      <point x="617" y="15" type="line"/>
      <point x="605" y="6"/>
      <point x="591" y="-1"/>
      <point x="574" y="-8" type="curve" smooth="yes"/>
      <point x="546" y="-19"/>
      <point x="505" y="-30"/>
      <point x="449" y="-30" type="curve" smooth="yes" name="n14"/>
      <point x="268" y="-30"/>
      <point x="155" y="111"/>
      <point x="187" y="300" type="curve"/>
      <point x="222" y="489"/>
      <point x="386" y="630"/>
      <point x="566" y="630" type="curve" smooth="yes" name="n20"/>
      <point x="745" y="630"/>
      <point x="862" y="489"/>
      <point x="827" y="300" type="curve"/>
      <point x="806" y="180"/>
      <point x="758" y="140"/>
      <point x="714" y="140" type="curve" smooth="yes" name="n26"/>
      <point x="702" y="140"/>
      <point x="693" y="142"/>
      <point x="686" y="147" type="curve"/>
      <point x="684.561" y="148.279"/>
      <point x="678.628" y="153.553"/>
      <point x="677" y="155" type="curve"/>
      <point x="742" y="525" type="line"/>
      <point x="652" y="525" type="line"/>
      <point x="634" y="480" type="line"/>
      <point x="629" y="480" type="line"/>
      <point x="622" y="490"/>
      <point x="613" y="499"/>
      <point x="602" y="507" type="curve"/>
      <point x="583" y="522"/>
      <point x="556" y="535"/>
      <point x="519" y="535" type="curve" smooth="yes" name="n42"/>
      <point x="416" y="535"/>
      <point x="319" y="455"/>
      <point x="292" y="295" type="curve"/>
      <point x="263" y="135"/>
      <point x="329" y="55"/>
      <point x="434" y="55" type="curve" smooth="yes" name="n48"/>
      <point x="477" y="55"/>
      <point x="508" y="67"/>
      <point x="531" y="82" type="curve"/>
      <point x="544" y="90"/>
      <point x="555" y="99"/>
      <point x="564" y="110" type="curve"/>
      <point x="569" y="110" type="line"/>
      <point x="575" y="99"/>
      <point x="584" y="90"/>
      <point x="595" y="82" type="curve"/>
      <point x="614" y="67"/>
      <point x="644" y="55"/>
      <point x="689" y="55" type="curve" smooth="yes" name="n61"/>
      <point x="814" y="55"/>
      <point x="920" y="145" name="hr01"/>
      <point x="947" y="300" type="curve" smooth="yes"/>
      <point x="990" y="540"/>
      <point x="841" y="720"/>
      <point x="581" y="720" type="curve" smooth="yes" name="n67"/>
      <point x="322" y="720"/>
      <point x="110" y="540"/>
      <point x="67" y="300" type="curve" smooth="yes"/>
      <point x="24" y="60"/>
      <point x="173" y="-120"/>
    </contour>
    <contour>
      <point x="475" y="145" type="curve" smooth="yes" name="n73"/>
      <point x="435" y="145"/>
      <point x="401" y="180"/>
      <point x="422" y="295" type="curve"/>
      <point x="441" y="410"/>
      <point x="483" y="445"/>
      <point x="528" y="445" type="curve" smooth="yes" name="n79"/>
      <point x="548" y="445"/>
      <point x="563" y="433"/>
      <point x="574" y="422" type="curve"/>
      <point x="580" y="415"/>
      <point x="585" y="408"/>
      <point x="590" y="400" type="curve"/>
      <point x="549" y="170" type="line"/>
      <point x="543" y="165"/>
      <point x="536" y="160"/>
      <point x="529" y="157" type="curve"/>
      <point x="516" y="150"/>
      <point x="498" y="145"/>
    </contour>
  </outline>
</glyph>
<glyph name="C" format="2">
  <advance width="535"/>
  <unicode hex="0043"/>
  <outline>
    <contour>
      <point x="303" y="-10" type="curve" smooth="yes" name="n00"/>
      <point x="360" y="-10"/>
      <point x="408" y="2"/>
      <point x="443" y="17" type="curve" smooth="yes"/>
      <point x="463" y="25"/>
      <point x="481" y="34"/>
      <point x="497" y="45" type="curve"/>
      <point x="467" y="125" type="line"/>
      <point x="457" y="125" type="line"/>
      <point x="446" y="116"/>
      <point x="434" y="109"/>
      <point x="421" y="102" type="curve"/>
      <point x="398" y="91"/>
      <point x="366" y="80"/>
      <point x="329" y="80" type="curve" smooth="yes" name="n14"/>
      <point x="239" y="80"/>
      <point x="189" y="139"/>
      <point x="226" y="350" type="curve" smooth="yes"/>
      <point x="263" y="561"/>
      <point x="334" y="620"/>
      <point x="414" y="620" type="curve" smooth="yes" name="n20"/>
      <point x="451" y="620"/>
      <point x="479" y="608"/>
      <point x="498" y="597" type="curve"/>
      <point x="509" y="590"/>
      <point x="519" y="583"/>
      <point x="526" y="575" type="curve"/>
      <point x="536" y="575" type="line"/>
      <point x="595" y="655" type="line"/>
      <point x="583" y="665"/>
      <point x="568" y="674"/>
      <point x="551" y="682" type="curve"/>
      <point x="522" y="697"/>
      <point x="477" y="710"/>
      <point x="420" y="710" type="curve" smooth="yes" name="n34"/>
      <point x="255" y="710"/>
      <point x="131" y="605"/>
      <point x="86" y="350" type="curve" smooth="yes"/>
      <point x="41" y="95"/>
      <point x="127" y="-10"/>
    </contour>
  </outline>
</glyph>
<glyph name="D" format="2">
  <advance width="615"/>
  <unicode hex="0044"/>
  <outline>
    <contour>
      <point x="60" y="0" type="line"/>
      <point x="230" y="0" type="line" smooth="yes" name="n01"/>
      <point x="430" y="0"/>
      <point x="558" y="110"/>
      <point x="601" y="350" type="curve" smooth="yes"/>
      <point x="644" y="590"/>
      <point x="553" y="700"/>
      <point x="353" y="700" type="curve" smooth="yes" name="n07"/>
      <point x="183" y="700" type="line"/>
    </contour>
    <contour>
      <point x="215" y="90" type="line" name="n09"/>
      <point x="307" y="610" type="line"/>
      <point x="337" y="610" type="line" smooth="yes" name="n11"/>
      <point x="447" y="610"/>
      <point x="496" y="550"/>
      <point x="461" y="350" type="curve" smooth="yes"/>
      <point x="426" y="150"/>
      <point x="354" y="90"/>
      <point x="245" y="90" type="curve" smooth="yes"/>
    </contour>
  </outline>
</glyph>
<glyph name="F" format="2">
  <advance width="525"/>
  <unicode hex="0046"/>
  <outline>
    <contour>
      <point x="60" y="0" type="line" name="n00"/>
      <point x="200" y="0" type="line"/>
      <point x="254" y="310" type="line" name="n02"/>
      <point x="474" y="310" type="line"/>
      <point x="490" y="400" type="line"/>
      <point x="270" y="400" type="line" name="n05"/>
      <point x="307" y="610" type="line"/>
      <point x="587" y="610" type="line" name="n07"/>
      <point x="603" y="700" type="line" name="n08"/>
      <point x="183" y="700" type="line"/>
    </contour>
  </outline>
</glyph>
<glyph name="G" format="2">
  <advance width="590"/>
  <unicode hex="0047"/>
  <outline>
    <contour>
      <point x="303" y="-10" type="curve" smooth="yes" name="n00"/>
      <point x="370.98" y="-10"/>
      <point x="454.336" y="5.35598"/>
      <point x="512" y="45" type="curve"/>
      <point x="566" y="350" type="line"/>
      <point x="533" y="390" type="line"/>
      <point x="328" y="390" type="line" name="n06"/>
      <point x="312" y="300" type="line" name="n07"/>
      <point x="417" y="300" type="line"/>
      <point x="380" y="90" type="line"/>
      <point x="364.749" y="83.8997"/>
      <point x="345.236" y="80"/>
      <point x="323.82" y="80" type="curve" smooth="yes" name="n12"/>
      <point x="259.385" y="80"/>
      <point x="213.702" y="115.3"/>
      <point x="213.702" y="236.394" type="curve" smooth="yes" name="n15"/>
      <point x="213.702" y="356.168"/>
      <point x="258.394" y="620"/>
      <point x="412.986" y="620" type="curve" smooth="yes" name="n18"/>
      <point x="450.955" y="620"/>
      <point x="500.551" y="604.084"/>
      <point x="526" y="575" type="curve"/>
      <point x="536" y="575" type="line"/>
      <point x="595" y="655" type="line"/>
      <point x="548.113" y="694.072"/>
      <point x="479.374" y="710"/>
      <point x="418.053" y="710" type="curve" smooth="yes" name="n26"/>
      <point x="167.175" y="710"/>
      <point x="74.1899" y="443.406"/>
      <point x="74.1899" y="228.664" type="curve" smooth="yes" name="n29"/>
      <point x="74.1899" y="61.1821"/>
      <point x="158.088" y="-10"/>
    </contour>
  </outline>
</glyph>
<glyph name="J" format="2">
  <advance width="450"/>
  <unicode hex="004A"/>
  <outline>
    <contour>
      <point x="123" y="-10" type="curve" smooth="yes" name="n00"/>
      <point x="268" y="-10"/>
      <point x="362" y="70"/>
      <point x="383" y="190" type="curve" smooth="yes"/>
      <point x="473" y="700" type="line" name="n04"/>
      <point x="333" y="700" type="line"/>
      <point x="243" y="190" type="line" smooth="yes"/>
      <point x="230" y="114"/>
      <point x="189" y="80"/>
      <point x="129" y="80" type="curve" smooth="yes" name="n09"/>
      <point x="106" y="80"/>
      <point x="86" y="89"/>
      <point x="71" y="100" type="curve"/>
      <point x="62" y="106"/>
      <point x="54" y="113"/>
      <point x="46" y="120" type="curve"/>
      <point x="36" y="120" type="line"/>
      <point x="-19" y="35" type="line" name="n17"/>
      <point x="-7" y="26"/>
      <point x="7" y="19"/>
      <point x="22" y="12" type="curve" smooth="yes"/>
      <point x="47" y="1"/>
      <point x="83" y="-10"/>
    </contour>
  </outline>
</glyph>
<glyph name="L" format="2">
  <advance width="505"/>
  <unicode hex="004C"/>
  <outline>
    <contour>
      <point x="60" y="0" type="line" name="n00"/>
      <point x="470" y="0" type="line" name="n01"/>
      <point x="485" y="90" type="line" name="n02"/>
      <point x="215" y="90" type="line"/>
      <point x="323" y="700" type="line" name="n04"/>
      <point x="183" y="700" type="line"/>
    </contour>
  </outline>
</glyph>
<glyph name="M" format="2">
  <advance width="870"/>
  <unicode hex="004D"/>
  <outline>
    <contour>
      <point x="60" y="0" type="line" name="n00"/>
      <point x="200" y="0" type="line"/>
      <point x="264" y="365" type="line" smooth="yes"/>
      <point x="267" y="380"/>
      <point x="268" y="396"/>
      <point x="269" y="409" type="curve"/>
      <point x="270" y="416"/>
      <point x="270" y="424"/>
      <point x="270" y="431" type="curve"/>
      <point x="274" y="431" type="line"/>
      <point x="275" y="424"/>
      <point x="276" y="416"/>
      <point x="278" y="409" type="curve"/>
      <point x="280" y="396"/>
      <point x="284" y="381"/>
      <point x="289" y="365" type="curve" smooth="yes"/>
      <point x="370" y="115" type="line"/>
      <point x="490" y="115" type="line" name="n17"/>
      <point x="659" y="365" type="line"/>
      <point x="670" y="380"/>
      <point x="678" y="396"/>
      <point x="685" y="409" type="curve"/>
      <point x="696" y="431" type="line"/>
      <point x="700" y="431" type="line"/>
      <point x="694" y="409" type="line"/>
      <point x="684" y="365" type="line"/>
      <point x="620" y="0" type="line"/>
      <point x="760" y="0" type="line"/>
      <point x="883" y="700" type="line" name="n28"/>
      <point x="748" y="700" type="line"/>
      <point x="483" y="305" type="line" smooth="yes"/>
      <point x="476" y="294"/>
      <point x="470" y="283"/>
      <point x="465" y="272" type="curve"/>
      <point x="456" y="255" type="line" name="n34"/>
      <point x="452" y="255" type="line"/>
      <point x="450" y="272" type="line"/>
      <point x="449" y="283"/>
      <point x="446" y="294"/>
      <point x="443" y="305" type="curve"/>
      <point x="318" y="700" type="line"/>
      <point x="183" y="700" type="line"/>
    </contour>
  </outline>
</glyph>
<glyph name="O" format="2">
  <advance width="630"/>
  <unicode hex="004F"/>
  <outline>
    <contour>
      <point x="285.186" y="-10" type="curve" smooth="yes" name="n00"/>
      <point x="536.968" y="-10"/>
      <point x="627.822" y="261.505"/>
      <point x="627.822" y="471.938" type="curve" smooth="yes" name="n03"/>
      <point x="627.822" y="638.988"/>
      <point x="545.758" y="710"/>
      <point x="417.085" y="710" type="curve" smooth="yes" name="n06"/>
      <point x="165.728" y="710"/>
      <point x="74.184" y="439.022"/>
      <point x="74.184" y="228.141" type="curve" smooth="yes" name="n09"/>
      <point x="74.184" y="61.034"/>
      <point x="156.399" y="-10"/>
    </contour>
    <contour>
      <point x="304" y="80" type="curve" smooth="yes" name="n12"/>
      <point x="254.941" y="80"/>
      <point x="213.521" y="114.668"/>
      <point x="213.521" y="225.894" type="curve" smooth="yes" name="n15"/>
      <point x="213.521" y="342.222"/>
      <point x="259.854" y="620"/>
      <point x="399" y="620" type="curve" smooth="yes" name="n18"/>
      <point x="448.516" y="620"/>
      <point x="488.748" y="585.761"/>
      <point x="488.748" y="476.169" type="curve" smooth="yes" name="n21"/>
      <point x="488.748" y="360.005"/>
      <point x="442.865" y="80"/>
    </contour>
  </outline>
</glyph>
<glyph name="P" format="2">
  <advance width="595"/>
  <unicode hex="0050"/>
  <outline>
    <contour>
      <point x="60" y="0" type="line" name="n00"/>
      <point x="200" y="0" type="line"/>
      <point x="240" y="230" type="line" name="n02"/>
      <point x="300" y="230" type="line" smooth="yes"/>
      <point x="491" y="230"/>
      <point x="584" y="309"/>
      <point x="611" y="465" type="curve" smooth="yes"/>
      <point x="639" y="621"/>
      <point x="574" y="700"/>
      <point x="383" y="700" type="curve" smooth="yes" name="n09"/>
      <point x="183" y="700" type="line"/>
    </contour>
    <contour>
      <point x="256" y="320" type="line" name="n11"/>
      <point x="307" y="610" type="line"/>
      <point x="367" y="610" type="line" smooth="yes" name="n13"/>
      <point x="458" y="610"/>
      <point x="490" y="570"/>
      <point x="471" y="465" type="curve" smooth="yes"/>
      <point x="452" y="360"/>
      <point x="407" y="320"/>
      <point x="316" y="320" type="curve" smooth="yes"/>
    </contour>
  </outline>
</glyph>
<glyph name="R" format="2">
  <advance width="600"/>
  <unicode hex="0052"/>
  <outline>
    <contour>
      <point x="60" y="0" type="line" name="n00"/>
      <point x="200" y="0" type="line"/>
      <point x="244" y="250" type="line"/>
      <point x="299" y="250" type="line" name="n03"/>
      <point x="400" y="0" type="line"/>
      <point x="560" y="0" type="line"/>
      <point x="438" y="275" type="line"/>
      <point x="548.128" y="308.886"/>
      <point x="608.683" y="421.215"/>
      <point x="608.683" y="525.492" type="curve" smooth="yes" name="n09"/>
      <point x="608.683" y="640.015"/>
      <point x="535.645" y="700"/>
      <point x="373" y="700" type="curve" smooth="yes" name="n12"/>
      <point x="183" y="700" type="line"/>
    </contour>
    <contour>
      <point x="259" y="340" type="line"/>
      <point x="307" y="610" type="line"/>
      <point x="357" y="610" type="line" smooth="yes" name="n16"/>
      <point x="432.484" y="610"/>
      <point x="467.373" y="583.165"/>
      <point x="467.373" y="519.223" type="curve" smooth="yes" name="n19"/>
      <point x="467.373" y="414.85"/>
      <point x="423.623" y="340"/>
      <point x="309" y="340" type="curve" smooth="yes" name="n22"/>
    </contour>
  </outline>
</glyph>
<glyph name="T" format="2">
  <advance width="510"/>
  <unicode hex="0054"/>
  <outline>
    <contour>
      <point x="160" y="0" type="line" name="n00"/>
      <point x="300" y="0" type="line"/>
      <point x="407" y="610" type="line"/>
      <point x="582" y="610" type="line" name="n03"/>
      <point x="598" y="700" type="line" name="n04"/>
      <point x="108" y="700" type="line"/>
      <point x="92" y="610" type="line" name="n06"/>
      <point x="267" y="610" type="line"/>
    </contour>
  </outline>
</glyph>
<glyph name="U" format="2">
  <advance width="640"/>
  <unicode hex="0055"/>
  <outline>
    <contour>
      <point x="293" y="-10" type="curve" smooth="yes" name="n00"/>
      <point x="449" y="-10"/>
      <point x="553" y="79"/>
      <point x="580" y="230" type="curve" smooth="yes"/>
      <point x="663" y="700" type="line" name="n04"/>
      <point x="523" y="700" type="line"/>
      <point x="440" y="230" type="line" smooth="yes"/>
      <point x="421" y="125"/>
      <point x="369" y="80"/>
      <point x="309" y="80" type="curve" smooth="yes" name="n09"/>
      <point x="249" y="80"/>
      <point x="211" y="125"/>
      <point x="230" y="230" type="curve" smooth="yes"/>
      <point x="313" y="700" type="line"/>
      <point x="173" y="700" type="line"/>
      <point x="90" y="230" type="line" smooth="yes"/>
      <point x="63" y="79"/>
      <point x="137" y="-10"/>
    </contour>
  </outline>
</glyph>
<glyph name="V" format="2">
  <advance width="590"/>
  <unicode hex="0056"/>
  <outline>
    <contour>
      <point x="190" y="0" type="line" name="n00"/>
      <point x="350" y="0" type="line" name="n01"/>
      <point x="673" y="700" type="line" name="n02"/>
      <point x="533" y="700" type="line"/>
      <point x="327" y="240" type="line"/>
      <point x="319" y="224"/>
      <point x="313" y="205"/>
      <point x="308" y="190" type="curve"/>
      <point x="301" y="165" type="line" name="n08"/>
      <point x="297" y="165" type="line"/>
      <point x="298" y="174"/>
      <point x="298" y="182"/>
      <point x="298" y="191" type="curve" smooth="yes"/>
      <point x="298" y="206"/>
      <point x="298" y="224"/>
      <point x="297" y="240" type="curve"/>
      <point x="253" y="700" type="line"/>
      <point x="113" y="700" type="line" name="n17"/>
    </contour>
  </outline>
</glyph>
<glyph name="W" format="2">
  <advance width="900"/>
  <unicode hex="0057"/>
  <outline>
    <contour>
      <point x="160" y="0" type="line" name="n00"/>
      <point x="310" y="0" type="line" name="n01"/>
      <point x="491" y="435" type="line" smooth="yes"/>
      <point x="496" y="447"/>
      <point x="501" y="464"/>
      <point x="505" y="477" type="curve"/>
      <point x="508" y="484"/>
      <point x="510" y="492"/>
      <point x="511" y="500" type="curve" name="n08"/>
      <point x="515" y="500" type="line"/>
      <point x="514.654" y="496.019"/>
      <point x="513.31" y="480.565"/>
      <point x="513" y="477" type="curve" smooth="yes"/>
      <point x="512" y="464"/>
      <point x="510" y="447"/>
      <point x="511" y="435" type="curve" smooth="yes"/>
      <point x="540" y="0" type="line"/>
      <point x="690" y="0" type="line"/>
      <point x="983" y="700" type="line" name="n18"/>
      <point x="843" y="700" type="line"/>
      <point x="665" y="260" type="line" smooth="yes"/>
      <point x="660" y="247"/>
      <point x="655" y="233"/>
      <point x="652" y="221" type="curve"/>
      <point x="650" y="214"/>
      <point x="648" y="207"/>
      <point x="647" y="200" type="curve" name="hr01"/>
      <point x="643" y="200" type="line"/>
      <point x="645" y="221" type="line" smooth="yes"/>
      <point x="646" y="234"/>
      <point x="646" y="247"/>
      <point x="645" y="260" type="curve" smooth="yes"/>
      <point x="622" y="700" type="line"/>
      <point x="474" y="700" type="line" name="n33"/>
      <point x="295" y="260" type="line" smooth="yes"/>
      <point x="290" y="247"/>
      <point x="285" y="233"/>
      <point x="282" y="221" type="curve"/>
      <point x="280" y="214"/>
      <point x="278" y="207"/>
      <point x="277" y="200" type="curve" name="n40"/>
      <point x="273" y="200" type="line"/>
      <point x="275" y="221" type="line" smooth="yes"/>
      <point x="276" y="234"/>
      <point x="276" y="247"/>
      <point x="275" y="260" type="curve"/>
      <point x="253" y="700" type="line"/>
      <point x="113" y="700" type="line"/>
    </contour>
  </outline>
</glyph>
<glyph name="X" format="2">
  <advance width="560"/>
  <unicode hex="0058"/>
  <outline>
    <contour>
      <point x="-15" y="0" type="line" name="n00"/>
      <point x="135" y="0" type="line"/>
      <point x="279" y="225" type="line" smooth="yes"/>
      <point x="286" y="236"/>
      <point x="290" y="246"/>
      <point x="294" y="255" type="curve"/>
      <point x="297" y="260"/>
      <point x="299" y="265"/>
      <point x="300" y="270" type="curve"/>
      <point x="304" y="270" type="line"/>
      <point x="304" y="265"/>
      <point x="304" y="260"/>
      <point x="305" y="255" type="curve"/>
      <point x="306" y="246"/>
      <point x="306" y="236"/>
      <point x="309" y="225" type="curve" smooth="yes"/>
      <point x="375" y="0" type="line"/>
      <point x="525" y="0" type="line"/>
      <point x="412" y="355" type="line"/>
      <point x="643" y="700" type="line" name="n19"/>
      <point x="493" y="700" type="line"/>
      <point x="355" y="485" type="line" smooth="yes"/>
      <point x="348" y="474"/>
      <point x="344" y="464"/>
      <point x="340" y="455" type="curve"/>
      <point x="337" y="450"/>
      <point x="335" y="445"/>
      <point x="334" y="440" type="curve"/>
      <point x="330" y="440" type="line"/>
      <point x="330" y="445"/>
      <point x="330" y="450"/>
      <point x="329" y="455" type="curve"/>
      <point x="328" y="464"/>
      <point x="328" y="474"/>
      <point x="325" y="485" type="curve" smooth="yes"/>
      <point x="263" y="700" type="line"/>
      <point x="113" y="700" type="line"/>
      <point x="222" y="355" type="line"/>
    </contour>
  </outline>
</glyph>
<glyph name="Z" format="2">
  <advance width="525"/>
  <unicode hex="005A"/>
  <outline>
    <contour>
      <point x="10" y="0" type="line" name="n00"/>
      <point x="465" y="0" type="line" name="n01"/>
      <point x="480" y="90" type="line" name="n02"/>
      <point x="185" y="90" type="line"/>
      <point x="566" y="605" type="line"/>
      <point x="583" y="700" type="line" name="n05"/>
      <point x="133" y="700" type="line" name="n06"/>
      <point x="117" y="610" type="line" name="n07"/>
      <point x="407" y="610" type="line"/>
      <point x="26" y="95" type="line"/>
    </contour>
  </outline>
</glyph>
<glyph name="bracketleft" format="2">
  <advance width="335"/>
  <unicode hex="005B"/>
  <outline>
    <contour>
      <point x="270" y="-170" type="line" name="n00"/>
      <point x="285" y="-80" type="line" name="n01"/>
      <point x="185" y="-80" type="line"/>
      <point x="312" y="640" type="line"/>
      <point x="412" y="640" type="line" name="n04"/>
      <point x="428" y="730" type="line" name="n05"/>
      <point x="188" y="730" type="line"/>
      <point x="30" y="-170" type="line" name="n07"/>
    </contour>
  </outline>
</glyph>
<glyph name="bracketright" format="2">
  <advance width="335"/>
  <unicode hex="005D"/>
  <outline>
    <contour>
      <point x="-29" y="-80" type="line" name="n00"/>
      <point x="-44" y="-170" type="line" name="n01"/>
      <point x="195" y="-170" type="line"/>
      <point x="353" y="730" type="line" name="n03"/>
      <point x="113" y="730" type="line" name="n04"/>
      <point x="97" y="640" type="line" name="n05"/>
      <point x="197" y="640" type="line"/>
      <point x="70" y="-80" type="line"/>
    </contour>
  </outline>
</glyph>
<glyph name="asciicircum" format="2">
  <advance width="470"/>
  <unicode hex="005E"/>
  <outline>
    <contour>
      <point x="52" y="440" type="line" name="n00"/>
      <point x="182" y="440" type="line"/>
      <point x="315" y="600" type="line"/>
      <point x="392" y="440" type="line" name="n03"/>
      <point x="522" y="440" type="line" name="n04"/>
      <point x="386" y="720" type="line" name="n05"/>
      <point x="286" y="720" type="line"/>
    </contour>
  </outline>
</glyph>
<glyph name="underscore" format="2">
  <advance width="390"/>
  <unicode hex="005F"/>
  <outline>
    <contour>
      <point x="-49" y="-140" type="line" name="n00"/>
      <point x="340" y="-140" type="line"/>
      <point x="357" y="-40" type="line" name="n02"/>
      <point x="-32" y="-40" type="line" name="n03"/>
    </contour>
  </outline>
</glyph>
<glyph name="grave" format="2">
  <advance width="200"/>
  <unicode hex="0060"/>
  <outline>
    <contour>
      <point x="181" y="550" type="line"/>
      <point x="261" y="550" type="line" name="n01"/>
      <point x="243" y="700" type="line" name="n02"/>
      <point x="108" y="700" type="line" name="n03"/>
    </contour>
  </outline>
</glyph>
<glyph name="a" format="2">
  <advance width="540"/>
  <unicode hex="0061"/>
  <outline>
    <contour>
      <point x="198" y="-10" type="curve" smooth="yes" name="n00"/>
      <point x="256.437" y="-10"/>
      <point x="306.387" y="18.1697"/>
      <point x="345" y="60" type="curve"/>
      <point x="350" y="60" type="line"/>
      <point x="350" y="0" type="line" name="n05"/>
      <point x="450" y="0" type="line"/>
      <point x="506" y="320" type="line" smooth="yes"/>
      <point x="508.132" y="332.343"/>
      <point x="509.194" y="344.308"/>
      <point x="509.194" y="355.825" type="curve" smooth="yes" name="n10"/>
      <point x="509.194" y="446.946"/>
      <point x="442.73" y="510"/>
      <point x="320.082" y="510" type="curve" smooth="yes" name="n13"/>
      <point x="253.343" y="510"/>
      <point x="188.216" y="491.33"/>
      <point x="136" y="460" type="curve"/>
      <point x="167" y="380" type="line"/>
      <point x="177" y="380" type="line"/>
      <point x="208.895" y="404.807"/>
      <point x="248.381" y="420"/>
      <point x="292.444" y="420" type="curve" smooth="yes" name="n21"/>
      <point x="343.289" y="420"/>
      <point x="368.977" y="399.77"/>
      <point x="368.977" y="351.735" type="curve" smooth="yes" name="n24"/>
      <point x="368.977" y="342.258"/>
      <point x="367.977" y="331.699"/>
      <point x="366" y="320" type="curve"/>
      <point x="363" y="305" type="line"/>
      <point x="293" y="305" type="line" smooth="yes" name="n29"/>
      <point x="168.75" y="305"/>
      <point x="37.2511" y="258.805"/>
      <point x="37.2511" y="114.818" type="curve" smooth="yes"/>
      <point x="37.2511" y="40.1648"/>
      <point x="91.7594" y="-10" name="hr02"/>
    </contour>
    <contour>
      <point x="232.805" y="85" type="curve" smooth="yes" name="n35"/>
      <point x="199.676" y="85"/>
      <point x="178.68" y="104.091"/>
      <point x="178.68" y="139.139" type="curve" smooth="yes"/>
      <point x="178.68" y="190.449"/>
      <point x="223.68" y="215"/>
      <point x="277" y="215" type="curve" smooth="yes" name="n41"/>
      <point x="347" y="215" type="line"/>
      <point x="335" y="145" type="line"/>
      <point x="312.565" y="117.58"/>
      <point x="276.084" y="85"/>
    </contour>
  </outline>
</glyph>
<glyph name="b" format="2">
  <advance width="560"/>
  <unicode hex="0062"/>
  <outline>
    <contour>
      <point x="293" y="-10" type="curve" smooth="yes" name="n00"/>
      <point x="408" y="-10"/>
      <point x="507" y="75"/>
      <point x="539" y="250" type="curve"/>
      <point x="568" y="425"/>
      <point x="499" y="510"/>
      <point x="374" y="510" type="curve" smooth="yes" name="n06"/>
      <point x="343" y="510"/>
      <point x="318" y="502"/>
      <point x="299" y="495" type="curve"/>
      <point x="269" y="480" type="line"/>
      <point x="308" y="700" type="line" name="n11"/>
      <point x="208" y="700" type="line"/>
      <point x="161" y="660" type="line"/>
      <point x="45" y="0" type="line" name="n14"/>
      <point x="145" y="0" type="line"/>
      <point x="165" y="60" type="line"/>
      <point x="170" y="60" type="line"/>
      <point x="177" y="47"/>
      <point x="186" y="35"/>
      <point x="198" y="25" type="curve"/>
      <point x="217" y="6"/>
      <point x="248" y="-10" name="hr02"/>
    </contour>
    <contour>
      <point x="284" y="85" type="curve" smooth="yes" name="n23"/>
      <point x="256" y="85"/>
      <point x="238" y="100"/>
      <point x="226" y="115" type="curve" smooth="yes"/>
      <point x="219" y="124"/>
      <point x="213" y="134"/>
      <point x="210" y="145" type="curve"/>
      <point x="253" y="390" type="line"/>
      <point x="260" y="395"/>
      <point x="268" y="400"/>
      <point x="277" y="405" type="curve"/>
      <point x="292" y="412"/>
      <point x="311" y="420"/>
      <point x="334" y="420" type="curve" smooth="yes" name="n36"/>
      <point x="389" y="420"/>
      <point x="423" y="380"/>
      <point x="399" y="250" type="curve"/>
      <point x="378" y="125"/>
      <point x="328" y="85"/>
    </contour>
  </outline>
</glyph>
<glyph name="d" format="2">
  <advance width="560"/>
  <unicode hex="0064"/>
  <outline>
    <contour>
      <point x="213" y="-10" type="curve" smooth="yes" name="n00"/>
      <point x="258" y="-10"/>
      <point x="293" y="6"/>
      <point x="320" y="25" type="curve" smooth="yes"/>
      <point x="335" y="35"/>
      <point x="348" y="47"/>
      <point x="360" y="60" type="curve"/>
      <point x="365" y="60" type="line"/>
      <point x="365" y="0" type="line" name="n08"/>
      <point x="465" y="0" type="line"/>
      <point x="588" y="700" type="line" name="n10"/>
      <point x="488" y="700" type="line"/>
      <point x="441" y="660" type="line"/>
      <point x="409" y="480" type="line"/>
      <point x="402" y="485"/>
      <point x="393" y="490"/>
      <point x="384" y="495" type="curve"/>
      <point x="368" y="502"/>
      <point x="345" y="510"/>
      <point x="314" y="510" type="curve" smooth="yes" name="n19"/>
      <point x="189" y="510"/>
      <point x="90" y="426"/>
      <point x="59" y="250" type="curve" smooth="yes"/>
      <point x="27" y="75"/>
      <point x="98" y="-10" name="hr02"/>
    </contour>
    <contour>
      <point x="254" y="85" type="curve" smooth="yes" name="n25"/>
      <point x="209" y="85"/>
      <point x="178" y="125"/>
      <point x="199" y="250" type="curve"/>
      <point x="223" y="380"/>
      <point x="268" y="420"/>
      <point x="324" y="420" type="curve" smooth="yes" name="n31"/>
      <point x="347" y="420"/>
      <point x="363" y="412"/>
      <point x="375" y="405" type="curve"/>
      <point x="382" y="400"/>
      <point x="388" y="395"/>
      <point x="393" y="390" type="curve"/>
      <point x="350" y="145" type="line"/>
      <point x="342" y="134"/>
      <point x="333" y="124"/>
      <point x="323" y="115" type="curve" smooth="yes"/>
      <point x="306" y="100"/>
      <point x="281" y="85"/>
    </contour>
  </outline>
</glyph>
<glyph name="e" format="2">
  <advance width="520"/>
  <unicode hex="0065"/>
  <outline>
    <contour>
      <point x="263" y="-10" type="curve" smooth="yes" name="n00"/>
      <point x="314" y="-10"/>
      <point x="358" y="2"/>
      <point x="390" y="15" type="curve"/>
      <point x="409" y="22"/>
      <point x="426" y="31"/>
      <point x="442" y="40" type="curve"/>
      <point x="411" y="120" type="line"/>
      <point x="401" y="120" type="line"/>
      <point x="392" y="113"/>
      <point x="381" y="106"/>
      <point x="369" y="100" type="curve"/>
      <point x="349" y="89"/>
      <point x="321" y="80"/>
      <point x="289" y="80" type="curve" smooth="yes" name="n14"/>
      <point x="209" y="80"/>
      <point x="176" y="122"/>
      <point x="191" y="205" type="curve" name="n17"/>
      <point x="461" y="205" type="line"/>
      <point x="496" y="235" type="line"/>
      <point x="500" y="260" type="line" smooth="yes"/>
      <point x="529" y="425"/>
      <point x="459" y="510"/>
      <point x="324" y="510" type="curve" smooth="yes" name="n23"/>
      <point x="188" y="510"/>
      <point x="90" y="426"/>
      <point x="59" y="250" type="curve" smooth="yes"/>
      <point x="28" y="77"/>
      <point x="96" y="-10"/>
    </contour>
    <contour>
      <point x="207" y="295" type="line" name="n29"/>
      <point x="223" y="380"/>
      <point x="269" y="420"/>
      <point x="309" y="420" type="curve" smooth="yes" name="n32"/>
      <point x="349" y="420"/>
      <point x="382" y="380"/>
      <point x="367" y="295" type="curve"/>
    </contour>
  </outline>
</glyph>
<glyph name="f" format="2">
  <advance width="365"/>
  <unicode hex="0066"/>
  <outline>
    <contour>
      <point x="50" y="0" type="line" name="n00"/>
      <point x="190" y="0" type="line"/>
      <point x="262" y="410" type="line" name="n02"/>
      <point x="387" y="410" type="line"/>
      <point x="403" y="500" type="line"/>
      <point x="278" y="500" type="line" name="n05"/>
      <point x="285" y="540" type="line" smooth="yes"/>
      <point x="294" y="591"/>
      <point x="329" y="620"/>
      <point x="364" y="620" type="curve" smooth="yes" name="n09"/>
      <point x="387" y="620"/>
      <point x="405" y="611"/>
      <point x="420" y="600" type="curve" smooth="yes"/>
      <point x="428" y="594"/>
      <point x="435" y="587"/>
      <point x="442" y="580" type="curve"/>
      <point x="452" y="580" type="line"/>
      <point x="511" y="660" type="line" name="n17"/>
      <point x="498" y="669"/>
      <point x="485" y="678"/>
      <point x="470" y="685" type="curve" smooth="yes"/>
      <point x="445" y="697"/>
      <point x="410" y="710"/>
      <point x="370" y="710" type="curve" smooth="yes" name="n23"/>
      <point x="245" y="710"/>
      <point x="162" y="640"/>
      <point x="145" y="540" type="curve" smooth="yes"/>
      <point x="138" y="500" type="line"/>
      <point x="83" y="500" type="line"/>
      <point x="67" y="410" type="line"/>
      <point x="122" y="410" type="line"/>
    </contour>
  </outline>
</glyph>
<glyph name="i" format="2">
  <advance width="280"/>
  <unicode hex="0069"/>
  <outline>
    <contour>
      <point x="214" y="565" type="curve" smooth="yes" name="n00"/>
      <point x="254" y="565"/>
      <point x="294" y="600"/>
      <point x="302" y="640" type="curve" smooth="yes"/>
      <point x="309" y="680"/>
      <point x="281" y="715"/>
      <point x="241" y="715" type="curve" smooth="yes" name="n06"/>
      <point x="200" y="715"/>
      <point x="160" y="680"/>
      <point x="152" y="640" type="curve" smooth="yes"/>
      <point x="145" y="600"/>
      <point x="174" y="565"/>
    </contour>
    <contour>
      <point x="45" y="0" type="line" name="n12"/>
      <point x="185" y="0" type="line"/>
      <point x="273" y="500" type="line" name="n14"/>
      <point x="133" y="500" type="line"/>
    </contour>
  </outline>
</glyph>
<glyph name="j" format="2">
  <advance width="300"/>
  <unicode hex="006A"/>
  <outline>
    <contour>
      <point x="234" y="565" type="curve" smooth="yes" name="n00"/>
      <point x="274" y="565"/>
      <point x="314" y="600"/>
      <point x="322" y="640" type="curve" smooth="yes"/>
      <point x="329" y="680"/>
      <point x="301" y="715"/>
      <point x="261" y="715" type="curve" smooth="yes" name="n06"/>
      <point x="220" y="715"/>
      <point x="180" y="680"/>
      <point x="172" y="640" type="curve" smooth="yes"/>
      <point x="165" y="600"/>
      <point x="194" y="565"/>
    </contour>
    <contour>
      <point x="-25" y="-200" type="curve" smooth="yes" name="n12"/>
      <point x="98" y="-200"/>
      <point x="183" y="-130"/>
      <point x="199" y="-30" type="curve"/>
      <point x="293" y="500" type="line" name="n16"/>
      <point x="153" y="500" type="line"/>
      <point x="59" y="-30" type="line"/>
      <point x="50" y="-86"/>
      <point x="20" y="-110"/>
      <point x="-20" y="-110" type="curve" smooth="yes" name="n21"/>
      <point x="-35" y="-110"/>
      <point x="-46" y="-105"/>
      <point x="-55" y="-98" type="curve"/>
      <point x="-60" y="-95"/>
      <point x="-65" y="-90"/>
      <point x="-69" y="-85" type="curve"/>
      <point x="-79" y="-85" type="line"/>
      <point x="-129" y="-170" type="line"/>
      <point x="-121" y="-176"/>
      <point x="-111" y="-181"/>
      <point x="-100" y="-185" type="curve"/>
      <point x="-81" y="-193"/>
      <point x="-56" y="-200"/>
    </contour>
  </outline>
</glyph>
<glyph name="k" format="2">
  <advance width="510"/>
  <unicode hex="006B"/>
  <outline>
    <contour>
      <point x="45" y="0" type="line" name="n00"/>
      <point x="185" y="0" type="line"/>
      <point x="226" y="235" type="line"/>
      <point x="325" y="0" type="line"/>
      <point x="480" y="0" type="line"/>
      <point x="355" y="260" type="line"/>
      <point x="558" y="500" type="line" name="n06"/>
      <point x="403" y="500" type="line"/>
      <point x="235" y="285" type="line"/>
      <point x="308" y="700" type="line" name="n09"/>
      <point x="208" y="700" type="line"/>
      <point x="161" y="660" type="line"/>
    </contour>
  </outline>
</glyph>
<glyph name="l" format="2">
  <advance width="280"/>
  <unicode hex="006C"/>
  <outline>
    <contour>
      <point x="45" y="0" type="line" name="n00"/>
      <point x="185" y="0" type="line"/>
      <point x="308" y="700" type="line" name="n02"/>
      <point x="208" y="700" type="line"/>
      <point x="161" y="660" type="line"/>
    </contour>
  </outline>
</glyph>
<glyph name="n" format="2">
  <advance width="575"/>
  <unicode hex="006E"/>
  <outline>
    <contour>
      <point x="45" y="0" type="line" name="n00"/>
      <point x="185" y="0" type="line"/>
      <point x="247" y="355" type="line"/>
      <point x="269.071" y="385.348"/>
      <point x="303.587" y="415"/>
      <point x="345.435" y="415" type="curve" smooth="yes" name="n05"/>
      <point x="380.691" y="415"/>
      <point x="403.65" y="393.954"/>
      <point x="403.65" y="348.923" type="curve" smooth="yes" name="n08"/>
      <point x="403.65" y="340.191"/>
      <point x="402.787" y="330.557"/>
      <point x="401" y="320" type="curve" smooth="yes"/>
      <point x="345" y="0" type="line"/>
      <point x="485" y="0" type="line"/>
      <point x="541" y="320" type="line" smooth="yes"/>
      <point x="543.862" y="336.49"/>
      <point x="545.275" y="352.014"/>
      <point x="545.275" y="366.53" type="curve" smooth="yes" name="n17"/>
      <point x="545.275" y="458.525"/>
      <point x="488.51" y="510"/>
      <point x="384" y="510" type="curve" smooth="yes" name="n20"/>
      <point x="330.58" y="510"/>
      <point x="271.706" y="481.016"/>
      <point x="237" y="440" type="curve" name="hr01"/>
      <point x="232" y="440" type="line" name="n24"/>
      <point x="233" y="500" type="line" name="n25"/>
      <point x="133" y="500" type="line"/>
    </contour>
  </outline>
</glyph>
<glyph name="o" format="2">
  <advance width="540"/>
  <unicode hex="006F"/>
  <outline>
    <contour>
      <point x="243" y="-10" type="curve" smooth="yes" name="n00"/>
      <point x="388" y="-10"/>
      <point x="488" y="74"/>
      <point x="519" y="250" type="curve"/>
      <point x="548" y="425"/>
      <point x="479" y="510"/>
      <point x="334" y="510" type="curve" smooth="yes" name="n06"/>
      <point x="189" y="510"/>
      <point x="90" y="426"/>
      <point x="59" y="250" type="curve" smooth="yes"/>
      <point x="28" y="74"/>
      <point x="98" y="-10"/>
    </contour>
    <contour>
      <point x="259" y="80" type="curve" smooth="yes" name="n12"/>
      <point x="209" y="80"/>
      <point x="175" y="120"/>
      <point x="199" y="250" type="curve" smooth="yes"/>
      <point x="223" y="380"/>
      <point x="269" y="420"/>
      <point x="319" y="420" type="curve" smooth="yes" name="n18"/>
      <point x="369" y="420"/>
      <point x="403" y="380"/>
      <point x="379" y="250" type="curve" smooth="yes"/>
      <point x="355" y="120"/>
      <point x="309" y="80"/>
    </contour>
  </outline>
</glyph>
<glyph name="p" format="2">
  <advance width="560"/>
  <unicode hex="0070"/>
  <outline>
    <contour>
      <point x="9" y="-200" type="line"/>
      <point x="109" y="-200" type="line"/>
      <point x="156" y="-160" type="line"/>
      <point x="188" y="20" type="line"/>
      <point x="195" y="14"/>
      <point x="204" y="9"/>
      <point x="213" y="5" type="curve"/>
      <point x="229" y="-3"/>
      <point x="252" y="-10"/>
      <point x="283" y="-10" type="curve" smooth="yes" name="n09"/>
      <point x="409" y="-10"/>
      <point x="507" y="75"/>
      <point x="539" y="250" type="curve"/>
      <point x="568" y="425"/>
      <point x="500" y="510"/>
      <point x="384" y="510" type="curve" smooth="yes" name="n15"/>
      <point x="339" y="510"/>
      <point x="302" y="492"/>
      <point x="277" y="475" type="curve"/>
      <point x="262" y="464"/>
      <point x="248" y="453"/>
      <point x="237" y="440" type="curve" name="hr01"/>
      <point x="232" y="440" type="line" name="n22"/>
      <point x="233" y="500" type="line" name="n23"/>
      <point x="133" y="500" type="line"/>
    </contour>
    <contour>
      <point x="274" y="80" type="curve" smooth="yes" name="n25"/>
      <point x="251" y="80"/>
      <point x="234" y="87"/>
      <point x="222" y="95" type="curve"/>
      <point x="215" y="99"/>
      <point x="209" y="104"/>
      <point x="204" y="110" type="curve"/>
      <point x="247" y="355" type="line"/>
      <point x="255" y="366"/>
      <point x="264" y="376"/>
      <point x="274" y="385" type="curve" smooth="yes"/>
      <point x="291" y="400"/>
      <point x="315" y="415" name="hr02"/>
      <point x="343" y="415" type="curve" smooth="yes" name="n38"/>
      <point x="388" y="415"/>
      <point x="420" y="375"/>
      <point x="399" y="250" type="curve"/>
      <point x="375" y="120"/>
      <point x="330" y="80"/>
    </contour>
  </outline>
</glyph>
<glyph name="r" format="2">
  <advance width="395"/>
  <unicode hex="0072"/>
  <outline>
    <contour>
      <point x="45" y="0" type="line" name="n00"/>
      <point x="185" y="0" type="line"/>
      <point x="246" y="350" type="line"/>
      <point x="254" y="361"/>
      <point x="263" y="371"/>
      <point x="273" y="380" type="curve" smooth="yes"/>
      <point x="290" y="395"/>
      <point x="314" y="410"/>
      <point x="342" y="410" type="curve" smooth="yes" name="n08"/>
      <point x="359" y="410"/>
      <point x="376" y="408"/>
      <point x="389" y="405" type="curve"/>
      <point x="396" y="403"/>
      <point x="403" y="401"/>
      <point x="410" y="400" type="curve"/>
      <point x="420" y="400" type="line"/>
      <point x="458" y="500" type="line" name="n16"/>
      <point x="450" y="501"/>
      <point x="442" y="503"/>
      <point x="434" y="505" type="curve"/>
      <point x="419" y="508"/>
      <point x="401" y="510" name="hr02"/>
      <point x="384" y="510" type="curve" smooth="yes" name="n22"/>
      <point x="339" y="510"/>
      <point x="302" y="492"/>
      <point x="277" y="475" type="curve"/>
      <point x="262" y="464"/>
      <point x="248" y="453"/>
      <point x="237" y="440" type="curve" name="hr03"/>
      <point x="232" y="440" type="line" name="n29"/>
      <point x="233" y="500" type="line" name="n30"/>
      <point x="133" y="500" type="line"/>
    </contour>
  </outline>
</glyph>
<glyph name="t" format="2">
  <advance width="415"/>
  <unicode hex="0074"/>
  <outline>
    <contour>
      <point x="238" y="-10" type="curve" smooth="yes" name="n00"/>
      <point x="278" y="-10"/>
      <point x="316" y="2"/>
      <point x="347" y="15" type="curve" smooth="yes"/>
      <point x="364" y="22"/>
      <point x="381" y="31"/>
      <point x="397" y="40" type="curve"/>
      <point x="366" y="120" type="line"/>
      <point x="356" y="120" type="line"/>
      <point x="347" y="113"/>
      <point x="337" y="106"/>
      <point x="327" y="100" type="curve"/>
      <point x="310" y="89"/>
      <point x="287" y="80"/>
      <point x="264" y="80" type="curve" smooth="yes" name="n14"/>
      <point x="233" y="80"/>
      <point x="212" y="104"/>
      <point x="223" y="160" type="curve"/>
      <point x="267" y="410" type="line" name="n18"/>
      <point x="382" y="410" type="line"/>
      <point x="398" y="500" type="line"/>
      <point x="283" y="500" type="line" name="n21"/>
      <point x="304" y="620" type="line"/>
      <point x="249" y="620" type="line"/>
      <point x="72" y="470" type="line"/>
      <point x="62" y="410" type="line"/>
      <point x="127" y="410" type="line"/>
      <point x="83" y="160" type="line" smooth="yes"/>
      <point x="65" y="60"/>
      <point x="124" y="-10"/>
    </contour>
  </outline>
</glyph>
<glyph name="u" format="2">
  <advance width="580"/>
  <unicode hex="0075"/>
  <outline>
    <contour>
      <point x="233" y="-10" type="curve" smooth="yes" name="n00"/>
      <point x="278" y="-10"/>
      <point x="313" y="6"/>
      <point x="340" y="25" type="curve" smooth="yes"/>
      <point x="355" y="35"/>
      <point x="368" y="47"/>
      <point x="380" y="60" type="curve"/>
      <point x="385" y="60" type="line"/>
      <point x="385" y="0" type="line" name="n08"/>
      <point x="485" y="0" type="line"/>
      <point x="573" y="500" type="line" name="n10"/>
      <point x="433" y="500" type="line"/>
      <point x="370" y="145" type="line"/>
      <point x="362" y="134"/>
      <point x="353" y="124"/>
      <point x="343" y="115" type="curve" smooth="yes"/>
      <point x="326" y="100"/>
      <point x="301" y="85" name="hr02"/>
      <point x="274" y="85" type="curve" smooth="yes" name="n18"/>
      <point x="229" y="85"/>
      <point x="205" y="115"/>
      <point x="216" y="180" type="curve" smooth="yes"/>
      <point x="273" y="500" type="line"/>
      <point x="133" y="500" type="line"/>
      <point x="76" y="180" type="line" smooth="yes"/>
      <point x="55" y="59"/>
      <point x="112" y="-10"/>
    </contour>
  </outline>
</glyph>
<glyph name="v" format="2">
  <advance width="500"/>
  <unicode hex="0076"/>
  <outline>
    <contour>
      <point x="150" y="0" type="line" name="n00"/>
      <point x="300" y="0" type="line" name="n01"/>
      <point x="553" y="500" type="line" name="n02"/>
      <point x="413" y="500" type="line"/>
      <point x="268" y="190" type="line" smooth="yes"/>
      <point x="263" y="179"/>
      <point x="258" y="166"/>
      <point x="255" y="155" type="curve" smooth="yes"/>
      <point x="253" y="148"/>
      <point x="251" y="142"/>
      <point x="250" y="135" type="curve" name="n10"/>
      <point x="246" y="135" type="line"/>
      <point x="246.335" y="138.353"/>
      <point x="247.667" y="151.672"/>
      <point x="248" y="155" type="curve" smooth="yes"/>
      <point x="249" y="167"/>
      <point x="249" y="179"/>
      <point x="248" y="190" type="curve" smooth="yes"/>
      <point x="213" y="500" type="line"/>
      <point x="73" y="500" type="line" name="n19"/>
    </contour>
  </outline>
</glyph>
<glyph name="w" format="2">
  <advance width="750"/>
  <unicode hex="0077"/>
  <outline>
    <contour>
      <point x="120" y="0" type="line"/>
      <point x="260" y="0" type="line" name="n01"/>
      <point x="392" y="295" type="line"/>
      <point x="396" y="306"/>
      <point x="400" y="319"/>
      <point x="403" y="330" type="curve" smooth="yes"/>
      <point x="403.941" y="333.138"/>
      <point x="407.955" y="346.516"/>
      <point x="409" y="350" type="curve" name="n08"/>
      <point x="413" y="350" type="line"/>
      <point x="412" y="343"/>
      <point x="412" y="337"/>
      <point x="412" y="330" type="curve"/>
      <point x="411" y="318"/>
      <point x="411" y="306"/>
      <point x="412" y="295" type="curve" smooth="yes"/>
      <point x="440" y="0" type="line"/>
      <point x="580" y="0" type="line"/>
      <point x="803" y="500" type="line" name="n18"/>
      <point x="663" y="500" type="line"/>
      <point x="544" y="225" type="line"/>
      <point x="540" y="214"/>
      <point x="535" y="201"/>
      <point x="532" y="190" type="curve"/>
      <point x="529" y="183"/>
      <point x="527" y="177"/>
      <point x="526" y="170" type="curve"/>
      <point x="522" y="170" type="line"/>
      <point x="524" y="190" type="line" smooth="yes"/>
      <point x="525" y="202"/>
      <point x="525" y="214"/>
      <point x="524" y="225" type="curve"/>
      <point x="508" y="500" type="line"/>
      <point x="368" y="500" type="line" name="n33"/>
      <point x="254" y="225" type="line"/>
      <point x="250" y="214"/>
      <point x="245" y="201"/>
      <point x="242" y="190" type="curve"/>
      <point x="239" y="183"/>
      <point x="237" y="177"/>
      <point x="236" y="170" type="curve" name="n40"/>
      <point x="232" y="170" type="line"/>
      <point x="234" y="190" type="line" smooth="yes"/>
      <point x="235" y="202"/>
      <point x="235" y="214"/>
      <point x="234" y="225" type="curve" smooth="yes"/>
      <point x="213" y="500" type="line"/>
      <point x="73" y="500" type="line"/>
    </contour>
  </outline>
</glyph>
<glyph name="z" format="2">
  <advance width="470"/>
  <unicode hex="007A"/>
  <outline>
    <contour>
      <point x="10" y="0" type="line" name="n00"/>
      <point x="410" y="0" type="line" name="n01"/>
      <point x="425" y="90" type="line" name="n02"/>
      <point x="185" y="90" type="line"/>
      <point x="476" y="405" type="line"/>
      <point x="493" y="500" type="line" name="n05"/>
      <point x="98" y="500" type="line" name="n06"/>
      <point x="82" y="410" type="line" name="n07"/>
      <point x="317" y="410" type="line"/>
      <point x="26" y="95" type="line"/>
    </contour>
  </outline>
</glyph>
<glyph name="braceleft" format="2">
  <advance width="335"/>
  <unicode hex="007B"/>
  <outline>
    <contour>
      <point x="52" y="325" type="curve" name="n00"/>
      <point x="36" y="235" type="line" name="n01"/>
      <point x="80.8" y="235"/>
      <point x="99.36" y="222.2"/>
      <point x="99.36" y="183.8" type="curve" smooth="yes" name="n04"/>
      <point x="99.36" y="174.2"/>
      <point x="98.2" y="163"/>
      <point x="96" y="150" type="curve" smooth="yes"/>
      <point x="66" y="-20" type="line" smooth="yes"/>
      <point x="64.0933" y="-30.8443" name="hr01"/>
      <point x="63.1239" y="-41.2341"/>
      <point x="63.1239" y="-51.1239" type="curve" smooth="yes" name="n11"/>
      <point x="63.1239" y="-124.224"/>
      <point x="116.088" y="-170"/>
      <point x="235" y="-170" type="curve" smooth="yes" name="n14"/>
      <point x="270" y="-170" type="line"/>
      <point x="285" y="-80" type="line"/>
      <point x="250" y="-80" type="line" smooth="yes" name="n17"/>
      <point x="223.186" y="-80"/>
      <point x="204.602" y="-61.2958"/>
      <point x="204.602" y="-33.5944" type="curve" smooth="yes"/>
      <point x="204.602" y="-29.2699"/>
      <point x="205.162" y="-24.7464"/>
      <point x="206" y="-20" type="curve" smooth="yes" name="n23"/>
      <point x="236" y="150" type="line" smooth="yes"/>
      <point x="238.239" y="162.686"/>
      <point x="239.353" y="174.049" name="hr02"/>
      <point x="239.353" y="184.293" type="curve" smooth="yes" name="n27"/>
      <point x="239.353" y="230.141"/>
      <point x="215.926" y="271.201"/>
      <point x="169" y="280" type="curve"/>
      <point x="235.466" y="291.729"/>
      <point x="270.744" y="346.218"/>
      <point x="282" y="410" type="curve" smooth="yes"/>
      <point x="312" y="580" type="line" smooth="yes"/>
      <point x="318.203" y="615.15"/>
      <point x="346" y="640"/>
      <point x="377" y="640" type="curve" smooth="yes" name="n37"/>
      <point x="412" y="640" type="line"/>
      <point x="428" y="730" type="line"/>
      <point x="393" y="730" type="line" smooth="yes" name="n40"/>
      <point x="257" y="730"/>
      <point x="188" y="671"/>
      <point x="172" y="580" type="curve" smooth="yes"/>
      <point x="142" y="410" type="line" smooth="yes"/>
      <point x="130" y="345"/>
      <point x="107" y="325"/>
    </contour>
  </outline>
</glyph>
<glyph name="bar" format="2">
  <advance width="310"/>
  <unicode hex="007C"/>
  <outline>
    <contour>
      <point x="24" y="-200" type="line" name="n00"/>
      <point x="164" y="-200" type="line"/>
      <point x="323" y="700" type="line" name="n02"/>
      <point x="183" y="700" type="line"/>
    </contour>
  </outline>
</glyph>
<glyph name="braceright" format="2">
  <advance width="335"/>
  <unicode hex="007D"/>
  <outline>
    <contour>
      <point x="-29" y="-80" type="line" name="n00"/>
      <point x="-44" y="-170" type="line" name="n01"/>
      <point x="-10" y="-170" type="line" smooth="yes"/>
      <point x="126" y="-170"/>
      <point x="195" y="-111"/>
      <point x="211" y="-20" type="curve" smooth="yes"/>
      <point x="241" y="150" type="line" smooth="yes"/>
      <point x="252" y="215"/>
      <point x="275" y="235"/>
      <point x="331" y="235" type="curve" name="n09"/>
      <point x="347" y="325" type="line" name="n10"/>
      <point x="302.494" y="325"/>
      <point x="283.253" y="337.632"/>
      <point x="283.253" y="375.446" type="curve" smooth="yes" name="n13"/>
      <point x="283.253" y="385.212"/>
      <point x="284.537" y="396.658"/>
      <point x="287" y="410" type="curve" smooth="yes"/>
      <point x="317" y="580" type="line" smooth="yes"/>
      <point x="318.93" y="590.855" name="hr01"/>
      <point x="319.914" y="601.274"/>
      <point x="319.914" y="611.204" type="curve" smooth="yes" name="n20"/>
      <point x="319.914" y="683.601"/>
      <point x="267.596" y="730"/>
      <point x="148" y="730" type="curve" smooth="yes"/>
      <point x="113" y="730" type="line" name="n24"/>
      <point x="97" y="640" type="line" name="n25"/>
      <point x="132" y="640" type="line" smooth="yes"/>
      <point x="158.955" y="640"/>
      <point x="178.35" y="621.098"/>
      <point x="178.35" y="593.156" type="curve" smooth="yes"/>
      <point x="178.35" y="588.963"/>
      <point x="177.809" y="584.586"/>
      <point x="177" y="580" type="curve" smooth="yes" name="n32"/>
      <point x="147" y="410" type="line" smooth="yes"/>
      <point x="144.761" y="397.314"/>
      <point x="143.647" y="385.862" name="hr02"/>
      <point x="143.647" y="375.495" type="curve" smooth="yes" name="n36"/>
      <point x="143.647" y="328.607"/>
      <point x="166.407" y="288.924"/>
      <point x="214" y="280" type="curve"/>
      <point x="148.335" y="268.412"/>
      <point x="112.05" y="212.619"/>
      <point x="101" y="150" type="curve" smooth="yes"/>
      <point x="71" y="-20" type="line" smooth="yes"/>
      <point x="64.7971" y="-55.15"/>
      <point x="36" y="-80"/>
      <point x="5" y="-80" type="curve" smooth="yes"/>
    </contour>
  </outline>
</glyph>
<glyph name="asciitilde" format="2">
  <advance width="498"/>
  <unicode hex="007E"/>
  <outline>
    <contour>
      <point x="358" y="225" type="curve" smooth="yes" name="n00"/>
      <point x="418" y="225"/>
      <point x="483" y="284"/>
      <point x="512" y="340" type="curve" name="n03"/>
      <point x="448" y="405" type="line"/>
      <point x="439" y="405" type="line"/>
      <point x="440" y="405"/>
      <point x="399" y="345"/>
      <point x="359" y="345" type="curve" smooth="yes" name="n08"/>
      <point x="303" y="345"/>
      <point x="293" y="415" name="hr01"/>
      <point x="202" y="415" type="curve" smooth="yes" name="n11"/>
      <point x="143" y="415"/>
      <point x="76" y="356"/>
      <point x="47" y="300" type="curve" name="n14"/>
      <point x="112" y="235" type="line"/>
      <point x="121" y="235" type="line"/>
      <point x="120" y="235"/>
      <point x="161" y="295"/>
      <point x="201" y="295" type="curve" smooth="yes" name="n19"/>
      <point x="257" y="295"/>
      <point x="267" y="225" name="hr02"/>
    </contour>
  </outline>
</glyph>
<glyph name="exclamdown" format="2">
  <advance width="290"/>
  <unicode hex="00A1"/>
  <outline>
    <contour>
      <point x="183" y="360" type="curve" smooth="yes" name="n00"/>
      <point x="223" y="360"/>
      <point x="263" y="395"/>
      <point x="271" y="435" type="curve" smooth="yes"/>
      <point x="278" y="475"/>
      <point x="249" y="510"/>
      <point x="209" y="510" type="curve" smooth="yes" name="n06"/>
      <point x="169" y="510"/>
      <point x="129" y="475"/>
      <point x="121" y="435" type="curve" smooth="yes"/>
      <point x="114" y="395"/>
      <point x="143" y="360"/>
    </contour>
    <contour>
      <point x="112" y="300" type="line"/>
      <point x="4" y="-200" type="line"/>
      <point x="164" y="-200" type="line"/>
      <point x="232" y="300" type="line"/>
    </contour>
  </outline>
</glyph>
<glyph name="cent" format="2">
  <advance width="475"/>
  <unicode hex="00A2"/>
  <outline>
    <contour>
      <point x="167" y="-70" type="line" name="hr04"/>
      <point x="297" y="-70" type="line" name="n01"/>
      <point x="308" y="-6" type="line" name="n02"/>
      <point x="344" y="-1"/>
      <point x="376" y="10"/>
      <point x="399" y="21" type="curve" smooth="yes"/>
      <point x="412" y="27"/>
      <point x="425" y="33"/>
      <point x="437" y="40" type="curve"/>
      <point x="406" y="120" type="line"/>
      <point x="396" y="120" type="line"/>
      <point x="387" y="113"/>
      <point x="376" y="106"/>
      <point x="364" y="100" type="curve"/>
      <point x="344" y="89"/>
      <point x="316" y="80" name="hr02"/>
      <point x="284" y="80" type="curve" smooth="yes" name="n16"/>
      <point x="210" y="80"/>
      <point x="175" y="120"/>
      <point x="199" y="250" type="curve" smooth="yes"/>
      <point x="223" y="380"/>
      <point x="269" y="420"/>
      <point x="334" y="420" type="curve" smooth="yes" name="n22"/>
      <point x="366" y="420"/>
      <point x="391" y="411"/>
      <point x="407" y="400" type="curve" smooth="yes"/>
      <point x="416" y="394"/>
      <point x="425" y="387"/>
      <point x="432" y="380" type="curve"/>
      <point x="442" y="380" type="line"/>
      <point x="501" y="460" type="line"/>
      <point x="493" y="466"/>
      <point x="484" y="472"/>
      <point x="473" y="477" type="curve" smooth="yes"/>
      <point x="454" y="486"/>
      <point x="430" y="497"/>
      <point x="399" y="505" type="curve"/>
      <point x="408" y="560" type="line"/>
      <point x="278" y="560" type="line" name="n38"/>
      <point x="268" y="500" type="line"/>
      <point x="157" y="475"/>
      <point x="84" y="395"/>
      <point x="59" y="250" type="curve"/>
      <point x="32" y="105"/>
      <point x="73" y="25"/>
      <point x="180" y="0" type="curve" name="n45"/>
    </contour>
  </outline>
</glyph>
<glyph name="sterling" format="2">
  <advance width="505"/>
  <unicode hex="00A3"/>
  <outline>
    <contour>
      <point x="10" y="0" type="line" name="n00"/>
      <point x="470" y="0" type="line"/>
      <point x="485" y="90" type="line"/>
      <point x="165" y="90" type="line"/>
      <point x="180" y="99"/>
      <point x="195" y="110"/>
      <point x="208" y="124" type="curve" smooth="yes"/>
      <point x="231" y="148"/>
      <point x="256" y="184"/>
      <point x="267" y="240" type="curve"/>
      <point x="281" y="320" type="line" name="n10"/>
      <point x="406" y="320" type="line"/>
      <point x="422" y="410" type="line"/>
      <point x="297" y="410" type="line" name="n13"/>
      <point x="320" y="540" type="line" smooth="yes"/>
      <point x="329" y="591"/>
      <point x="359" y="620"/>
      <point x="399" y="620" type="curve" smooth="yes" name="n17"/>
      <point x="431" y="620"/>
      <point x="457" y="608"/>
      <point x="474" y="597" type="curve"/>
      <point x="484" y="590"/>
      <point x="493" y="583"/>
      <point x="501" y="575" type="curve"/>
      <point x="511" y="575" type="line"/>
      <point x="570" y="655" type="line" name="n25"/>
      <point x="558" y="665"/>
      <point x="544" y="674"/>
      <point x="527" y="682" type="curve"/>
      <point x="499" y="697"/>
      <point x="457" y="710"/>
      <point x="405" y="710" type="curve" smooth="yes" name="n31"/>
      <point x="285" y="710"/>
      <point x="196" y="636"/>
      <point x="180" y="540" type="curve" smooth="yes"/>
      <point x="157" y="410" type="line"/>
      <point x="102" y="410" type="line"/>
      <point x="86" y="320" type="line"/>
      <point x="141" y="320" type="line"/>
      <point x="127" y="240" type="line"/>
      <point x="116" y="184"/>
      <point x="91" y="148"/>
      <point x="68" y="124" type="curve" smooth="yes"/>
      <point x="55" y="110"/>
      <point x="40" y="99"/>
      <point x="25" y="90" type="curve" name="n45"/>
    </contour>
  </outline>
</glyph>
<glyph name="currency" format="2">
  <advance width="600"/>
  <unicode hex="00A4"/>
  <outline>
    <contour>
      <point x="65" y="0" type="line" name="n00"/>
      <point x="205" y="0" type="line"/>
      <point x="232" y="155" type="line" name="n02"/>
      <point x="472" y="155" type="line"/>
      <point x="485" y="230" type="line"/>
      <point x="245" y="230" type="line" name="n05"/>
      <point x="253" y="275" type="line" name="n06"/>
      <point x="313" y="275" type="line" smooth="yes"/>
      <point x="501" y="275"/>
      <point x="598" y="355"/>
      <point x="619" y="480" type="curve"/>
      <point x="643" y="611"/>
      <point x="567" y="700"/>
      <point x="388" y="700" type="curve" smooth="yes" name="n13"/>
      <point x="188" y="700" type="line"/>
      <point x="126" y="350" type="line"/>
      <point x="56" y="350" type="line"/>
      <point x="43" y="275" type="line"/>
      <point x="113" y="275" type="line"/>
      <point x="105" y="230" type="line"/>
      <point x="35" y="230" type="line"/>
      <point x="22" y="155" type="line"/>
      <point x="92" y="155" type="line"/>
    </contour>
    <contour>
      <point x="266" y="350" type="line" name="n23"/>
      <point x="312" y="610" type="line"/>
      <point x="372" y="610" type="line" smooth="yes" name="n25"/>
      <point x="459" y="610"/>
      <point x="494" y="567"/>
      <point x="479" y="480" type="curve" smooth="yes"/>
      <point x="464" y="393"/>
      <point x="413" y="350"/>
      <point x="326" y="350" type="curve" smooth="yes"/>
    </contour>
  </outline>
</glyph>
<glyph name="yen" format="2">
  <advance width="570"/>
  <unicode hex="00A5"/>
  <outline>
    <contour>
      <point x="190" y="0" type="line" name="n00"/>
      <point x="330" y="0" type="line"/>
      <point x="359" y="170" type="line"/>
      <point x="499" y="170" type="line"/>
      <point x="514" y="255" type="line"/>
      <point x="389" y="255" type="line"/>
      <point x="417" y="300" type="line"/>
      <point x="522" y="300" type="line" name="n07"/>
      <point x="537" y="385" type="line" name="n08"/>
      <point x="467" y="385" type="line"/>
      <point x="668" y="700" type="line" name="n10"/>
      <point x="523" y="700" type="line"/>
      <point x="346" y="405" type="line"/>
      <point x="339" y="394"/>
      <point x="335" y="384"/>
      <point x="331" y="375" type="curve"/>
      <point x="328" y="370"/>
      <point x="326" y="365"/>
      <point x="325" y="360" type="curve"/>
      <point x="321" y="360" type="line"/>
      <point x="321" y="365"/>
      <point x="321" y="370"/>
      <point x="320" y="375" type="curve"/>
      <point x="319" y="384"/>
      <point x="319" y="394"/>
      <point x="316" y="405" type="curve" smooth="yes"/>
      <point x="243" y="700" type="line"/>
      <point x="98" y="700" type="line"/>
      <point x="187" y="385" type="line"/>
      <point x="117" y="385" type="line"/>
      <point x="102" y="300" type="line"/>
      <point x="207" y="300" type="line"/>
      <point x="219" y="255" type="line" name="n32"/>
      <point x="94" y="255" type="line"/>
      <point x="79" y="170" type="line" name="n34"/>
      <point x="219" y="170" type="line" name="n35"/>
    </contour>
  </outline>
</glyph>
<glyph name="brokenbar" format="2">
  <advance width="310"/>
  <unicode hex="00A6"/>
  <outline>
    <contour>
      <point x="114" y="310" type="line"/>
      <point x="254" y="310" type="line"/>
      <point x="323" y="700" type="line" name="n02"/>
      <point x="183" y="700" type="line"/>
    </contour>
    <contour>
      <point x="24" y="-200" type="line" name="n04"/>
      <point x="164" y="-200" type="line"/>
      <point x="233" y="190" type="line"/>
      <point x="93" y="190" type="line"/>
    </contour>
  </outline>
</glyph>
<glyph name="section" format="2">
  <advance width="540"/>
  <unicode hex="00A7"/>
  <outline>
    <contour>
      <point x="191.069" y="-210" type="curve" smooth="yes" name="n00"/>
      <point x="312.281" y="-210"/>
      <point x="461.328" y="-151.098"/>
      <point x="461.328" y="-4.52275" type="curve" smooth="yes"/>
      <point x="461.328" y="33.7291"/>
      <point x="440.661" y="76.3365"/>
      <point x="406" y="95" type="curve"/>
      <point x="473.757" y="122.9"/>
      <point x="519.887" y="200.492"/>
      <point x="519.887" y="272.246" type="curve" smooth="yes"/>
      <point x="519.887" y="366.805"/>
      <point x="438.422" y="404.22"/>
      <point x="366.71" y="437.155" type="curve" smooth="yes"/>
      <point x="310.331" y="463.048"/>
      <point x="259.98" y="486.173"/>
      <point x="259.98" y="535.907" type="curve" smooth="yes" name="n15"/>
      <point x="259.98" y="588.907"/>
      <point x="317.162" y="620"/>
      <point x="370.55" y="620" type="curve" smooth="yes" name="n18"/>
      <point x="408.225" y="620"/>
      <point x="452.795" y="604.516"/>
      <point x="486" y="575" type="curve"/>
      <point x="496" y="575" type="line"/>
      <point x="555" y="655" type="line"/>
      <point x="502.202" y="692.713"/>
      <point x="434.104" y="710"/>
      <point x="371.852" y="710" type="curve" smooth="yes" name="n26"/>
      <point x="247.243" y="710"/>
      <point x="115.562" y="640.737"/>
      <point x="115.562" y="513.292" type="curve" smooth="yes" name="n29"/>
      <point x="115.562" y="463.767"/>
      <point x="135.447" y="424.144"/>
      <point x="171" y="405" type="curve"/>
      <point x="102.201" y="372.624"/>
      <point x="56.9833" y="303.188"/>
      <point x="56.9833" y="231.247" type="curve" smooth="yes"/>
      <point x="56.9833" y="133.146"/>
      <point x="141.065" y="95.1284"/>
      <point x="213.802" y="62.2399" type="curve" smooth="yes"/>
      <point x="269.246" y="37.1707"/>
      <point x="318.099" y="15.0816"/>
      <point x="318.099" y="-34.9936" type="curve" smooth="yes"/>
      <point x="318.099" y="-91.9801"/>
      <point x="254.83" y="-120"/>
      <point x="196.414" y="-120" type="curve" smooth="yes" name="n44"/>
      <point x="153.432" y="-120"/>
      <point x="103.404" y="-104.83"/>
      <point x="76" y="-74" type="curve"/>
      <point x="66" y="-74" type="line"/>
      <point x="7" y="-154" type="line"/>
      <point x="58.5054" y="-191.771"/>
      <point x="123.638" y="-210"/>
    </contour>
    <contour>
      <point x="312" y="155" type="curve"/>
      <point x="265.361" y="168.059"/>
      <point x="195.916" y="201.558"/>
      <point x="195.916" y="261.317" type="curve" smooth="yes"/>
      <point x="195.916" y="300.307"/>
      <point x="225.479" y="338.949"/>
      <point x="266" y="350" type="curve"/>
      <point x="311.473" y="336.737"/>
      <point x="382.084" y="301.679"/>
      <point x="382.084" y="242.69" type="curve" smooth="yes"/>
      <point x="382.084" y="204.074"/>
      <point x="351.824" y="165.861"/>
    </contour>
  </outline>
</glyph>
<glyph name="dieresis" format="2">
  <advance width="355"/>
  <unicode hex="00A8"/>
  <outline>
    <contour>
      <point x="155" y="570" type="curve" smooth="yes" name="n00"/>
      <point x="191" y="570"/>
      <point x="232" y="603"/>
      <point x="237" y="640" type="curve"/>
      <point x="244" y="677"/>
      <point x="217" y="710"/>
      <point x="180" y="710" type="curve" smooth="yes" name="n06"/>
      <point x="143" y="710"/>
      <point x="105" y="677"/>
      <point x="97" y="640" type="curve" smooth="yes"/>
      <point x="90" y="603"/>
      <point x="118" y="570"/>
    </contour>
    <contour>
      <point x="350" y="570" type="curve" smooth="yes"/>
      <point x="386" y="570"/>
      <point x="427" y="603"/>
      <point x="432" y="640" type="curve"/>
      <point x="439" y="677"/>
      <point x="412" y="710"/>
      <point x="375" y="710" type="curve" smooth="yes"/>
      <point x="338" y="710"/>
      <point x="300" y="677"/>
      <point x="292" y="640" type="curve" smooth="yes"/>
      <point x="285" y="603"/>
      <point x="313" y="570"/>
    </contour>
  </outline>
</glyph>
<glyph name="copyright" format="2">
  <advance width="910"/>
  <unicode hex="00A9"/>
  <outline>
    <contour>
      <point x="422" y="-40" type="curve" smooth="yes" name="n00"/>
      <point x="661" y="-40"/>
      <point x="869" y="134"/>
      <point x="906" y="350" type="curve" smooth="yes"/>
      <point x="943" y="566"/>
      <point x="800" y="740"/>
      <point x="560" y="740" type="curve" smooth="yes" name="n06"/>
      <point x="321" y="740"/>
      <point x="113" y="566"/>
      <point x="76" y="350" type="curve" smooth="yes"/>
      <point x="39" y="134"/>
      <point x="182" y="-40"/>
    </contour>
    <contour>
      <point x="438" y="50" type="curve" smooth="yes" name="n12"/>
      <point x="268" y="50"/>
      <point x="164" y="175"/>
      <point x="196" y="350" type="curve" smooth="yes"/>
      <point x="228" y="525"/>
      <point x="373" y="650"/>
      <point x="544" y="650" type="curve" smooth="yes" name="n18"/>
      <point x="714" y="650"/>
      <point x="818" y="525"/>
      <point x="786" y="350" type="curve" smooth="yes"/>
      <point x="754" y="175"/>
      <point x="609" y="50"/>
    </contour>
    <contour>
      <point x="472" y="125" type="curve" smooth="yes" name="n24"/>
      <point x="515" y="125"/>
      <point x="555" y="137"/>
      <point x="584" y="150" type="curve"/>
      <point x="601" y="157"/>
      <point x="617" y="166"/>
      <point x="630" y="175" type="curve"/>
      <point x="602" y="240" type="line"/>
      <point x="593" y="240" type="line"/>
      <point x="584" y="233"/>
      <point x="574" y="227"/>
      <point x="563" y="222" type="curve" smooth="yes"/>
      <point x="544" y="213"/>
      <point x="521" y="205"/>
      <point x="496" y="205" type="curve" smooth="yes" name="n38"/>
      <point x="441" y="205"/>
      <point x="404" y="250"/>
      <point x="421" y="350" type="curve"/>
      <point x="440" y="450"/>
      <point x="492" y="495"/>
      <point x="537" y="495" type="curve" smooth="yes" name="n44"/>
      <point x="562" y="495"/>
      <point x="583" y="486"/>
      <point x="598" y="477" type="curve"/>
      <point x="607" y="472"/>
      <point x="615" y="466"/>
      <point x="622" y="460" type="curve"/>
      <point x="631" y="460" type="line"/>
      <point x="682" y="525" type="line"/>
      <point x="671" y="534"/>
      <point x="658" y="543"/>
      <point x="644" y="550" type="curve" smooth="yes"/>
      <point x="620" y="562"/>
      <point x="584" y="575"/>
      <point x="541" y="575" type="curve" smooth="yes" name="n58"/>
      <point x="426" y="575"/>
      <point x="325" y="490"/>
      <point x="301" y="350" type="curve" smooth="yes"/>
      <point x="277" y="210"/>
      <point x="347" y="125"/>
    </contour>
  </outline>
</glyph>
<glyph name="ordfeminine" format="2">
  <advance width="380"/>
  <unicode hex="00AA"/>
  <outline>
    <contour>
      <point x="181" y="350" type="curve" smooth="yes"/>
      <point x="213" y="350"/>
      <point x="238" y="361"/>
      <point x="257" y="372" type="curve"/>
      <point x="268" y="379"/>
      <point x="277" y="386"/>
      <point x="284" y="395" type="curve"/>
      <point x="289" y="395" type="line"/>
      <point x="289" y="360" type="line" name="n08"/>
      <point x="383" y="360" type="line"/>
      <point x="422" y="580" type="line"/>
      <point x="437" y="660"/>
      <point x="396" y="710"/>
      <point x="285" y="710" type="curve" smooth="yes" name="n13"/>
      <point x="245" y="710"/>
      <point x="209" y="698"/>
      <point x="182" y="687" type="curve"/>
      <point x="167" y="680"/>
      <point x="153" y="673"/>
      <point x="140" y="665" type="curve"/>
      <point x="165" y="605" type="line"/>
      <point x="175" y="605" type="line"/>
      <point x="178.78" y="607.268"/>
      <point x="195.434" y="617.26"/>
      <point x="200" y="620" type="curve"/>
      <point x="215" y="627"/>
      <point x="232" y="635"/>
      <point x="251" y="635" type="curve" smooth="yes" name="n27"/>
      <point x="291" y="635"/>
      <point x="308" y="617"/>
      <point x="302" y="580" type="curve"/>
      <point x="299" y="565" type="line"/>
      <point x="259" y="565" type="line" smooth="yes" name="n32"/>
      <point x="144" y="565"/>
      <point x="91" y="520"/>
      <point x="80" y="455" type="curve" smooth="yes"/>
      <point x="69" y="395"/>
      <point x="105" y="350"/>
    </contour>
    <contour>
      <point x="230" y="430" type="curve" smooth="yes" name="n38"/>
      <point x="203" y="430"/>
      <point x="192" y="440"/>
      <point x="196" y="460" type="curve"/>
      <point x="199" y="480"/>
      <point x="215" y="490"/>
      <point x="246" y="490" type="curve" smooth="yes" name="n44"/>
      <point x="286" y="490" type="line"/>
      <point x="280" y="455" type="line"/>
      <point x="275" y="450"/>
      <point x="269" y="445"/>
      <point x="264" y="442" type="curve"/>
      <point x="255" y="435"/>
      <point x="242" y="430"/>
    </contour>
  </outline>
</glyph>
<glyph name="guillemotleft" format="2">
  <advance width="520"/>
  <unicode hex="00AB"/>
  <outline>
    <contour>
      <point x="303" y="70" type="line"/>
      <point x="179" y="250" type="line"/>
      <point x="366" y="430" type="line"/>
      <point x="299" y="505" type="line" name="n03"/>
      <point x="29" y="250" type="line" name="n04"/>
      <point x="209" y="-5" type="line" name="n05"/>
    </contour>
    <contour>
      <point x="476" y="460" type="line"/>
      <point x="254" y="250" type="line"/>
      <point x="402" y="40" type="line"/>
      <point x="495" y="115" type="line"/>
      <point x="404" y="250" type="line"/>
      <point x="542" y="385" type="line" name="n11"/>
    </contour>
  </outline>
</glyph>
<glyph name="logicalnot" format="2">
  <advance width="500"/>
  <unicode hex="00AC"/>
  <outline>
    <contour>
      <point x="370" y="230" type="line"/>
      <point x="480" y="230" type="line"/>
      <point x="514" y="420" type="line" name="n02"/>
      <point x="84" y="420" type="line" name="n03"/>
      <point x="66" y="320" type="line" name="n04"/>
      <point x="386" y="320" type="line"/>
    </contour>
  </outline>
</glyph>
<glyph name="uni00AD" format="2">
  <advance width="460"/>
  <unicode hex="00AD"/>
  <outline>
    <contour>
      <point x="59" y="280" type="line" name="n00"/>
      <point x="449" y="280" type="line"/>
      <point x="467" y="380" type="line" name="n02"/>
      <point x="77" y="380" type="line" name="n03"/>
    </contour>
  </outline>
</glyph>
<glyph name="registered" format="2">
  <advance width="910"/>
  <unicode hex="00AE"/>
  <outline>
    <contour>
      <point x="422" y="-40" type="curve" smooth="yes" name="n00"/>
      <point x="661" y="-40"/>
      <point x="869" y="134"/>
      <point x="906" y="350" type="curve" smooth="yes"/>
      <point x="943" y="566"/>
      <point x="800" y="740"/>
      <point x="560" y="740" type="curve" smooth="yes" name="n06"/>
      <point x="321" y="740"/>
      <point x="113" y="566"/>
      <point x="76" y="350" type="curve" smooth="yes"/>
      <point x="39" y="134"/>
      <point x="182" y="-40"/>
    </contour>
    <contour>
      <point x="438" y="50" type="curve" smooth="yes" name="n12"/>
      <point x="268" y="50"/>
      <point x="164" y="175"/>
      <point x="196" y="350" type="curve" smooth="yes"/>
      <point x="228" y="525"/>
      <point x="373" y="650"/>
      <point x="544" y="650" type="curve" smooth="yes" name="n18"/>
      <point x="714" y="650"/>
      <point x="818" y="525"/>
      <point x="786" y="350" type="curve" smooth="yes"/>
      <point x="754" y="175"/>
      <point x="609" y="50"/>
    </contour>
    <contour>
      <point x="288" y="135" type="line"/>
      <point x="408" y="135" type="line"/>
      <point x="433" y="275" type="line" name="n26"/>
      <point x="472" y="275" type="line"/>
      <point x="523" y="135" type="line"/>
      <point x="653" y="135" type="line"/>
      <point x="587" y="295" type="line"/>
      <point x="630" y="310"/>
      <point x="676" y="349"/>
      <point x="689" y="420" type="curve" smooth="yes"/>
      <point x="704" y="505"/>
      <point x="655" y="565"/>
      <point x="524" y="565" type="curve" smooth="yes" name="n36"/>
      <point x="364" y="565" type="line"/>
    </contour>
    <contour>
      <point x="447" y="355" type="line" name="n38"/>
      <point x="470" y="485" type="line"/>
      <point x="510" y="485" type="line" smooth="yes" name="n40"/>
      <point x="561" y="485"/>
      <point x="578" y="460"/>
      <point x="571" y="420" type="curve" smooth="yes"/>
      <point x="564" y="380"/>
      <point x="538" y="355"/>
      <point x="487" y="355" type="curve" smooth="yes"/>
    </contour>
  </outline>
</glyph>
<glyph name="macron" format="2">
  <advance width="310"/>
  <unicode hex="00AF"/>
  <outline>
    <contour>
      <point x="85" y="570" type="line" name="n00"/>
      <point x="375" y="570" type="line"/>
      <point x="391" y="660" type="line" name="n02"/>
      <point x="101" y="660" type="line" name="n03"/>
    </contour>
  </outline>
</glyph>
<glyph name="degree" format="2">
  <advance width="440"/>
  <unicode hex="00B0"/>
  <outline>
    <contour>
      <point x="260" y="370" type="curve" smooth="yes" name="n00"/>
      <point x="375" y="370"/>
      <point x="457" y="440"/>
      <point x="475" y="540" type="curve" smooth="yes"/>
      <point x="492" y="640"/>
      <point x="435" y="710"/>
      <point x="320" y="710" type="curve" smooth="yes" name="n06"/>
      <point x="206" y="710"/>
      <point x="121" y="640"/>
      <point x="105" y="540" type="curve"/>
      <point x="87" y="440"/>
      <point x="146" y="370"/>
    </contour>
    <contour>
      <point x="274" y="450" type="curve" smooth="yes" name="n12"/>
      <point x="234" y="450"/>
      <point x="209" y="480"/>
      <point x="220" y="540" type="curve" smooth="yes"/>
      <point x="231" y="600"/>
      <point x="266" y="630"/>
      <point x="306" y="630" type="curve" smooth="yes" name="n18"/>
      <point x="346" y="630"/>
      <point x="371" y="600"/>
      <point x="360" y="540" type="curve" smooth="yes"/>
      <point x="349" y="480"/>
      <point x="314" y="450"/>
    </contour>
  </outline>
</glyph>
<glyph name="plusminus" format="2">
  <advance width="500"/>
  <unicode hex="00B1"/>
  <outline>
    <contour>
      <point x="23" y="75" type="line" name="n00"/>
      <point x="453" y="75" type="line"/>
      <point x="470" y="175" type="line"/>
      <point x="305" y="175" type="line"/>
      <point x="327" y="300" type="line" name="n04"/>
      <point x="492" y="300" type="line"/>
      <point x="510" y="400" type="line" name="n06"/>
      <point x="345" y="400" type="line" name="n07"/>
      <point x="374" y="565" type="line"/>
      <point x="274" y="565" type="line"/>
      <point x="245" y="400" type="line"/>
      <point x="80" y="400" type="line"/>
      <point x="62" y="300" type="line"/>
      <point x="227" y="300" type="line"/>
      <point x="205" y="175" type="line"/>
      <point x="40" y="175" type="line" name="n15"/>
    </contour>
  </outline>
</glyph>
<glyph name="uni00B2" format="2">
  <advance width="355"/>
  <unicode hex="00B2"/>
  <outline>
    <contour>
      <point x="73" y="360" type="line"/>
      <point x="358" y="360" type="line" name="n01"/>
      <point x="372" y="440" type="line" name="n02"/>
      <point x="207" y="440" type="line"/>
      <point x="215" y="491"/>
      <point x="383" y="489"/>
      <point x="399" y="595" type="curve"/>
      <point x="411" y="660"/>
      <point x="371" y="710"/>
      <point x="275" y="710" type="curve" smooth="yes" name="n09"/>
      <point x="235" y="710"/>
      <point x="199" y="698"/>
      <point x="172" y="687" type="curve"/>
      <point x="157" y="680"/>
      <point x="143" y="673"/>
      <point x="130" y="665" type="curve"/>
      <point x="154" y="600" type="line"/>
      <point x="164" y="600" type="line"/>
      <point x="167.78" y="602.268"/>
      <point x="184.434" y="612.26"/>
      <point x="189" y="615" type="curve"/>
      <point x="204" y="622"/>
      <point x="222" y="630"/>
      <point x="241" y="630" type="curve" smooth="yes" name="n23"/>
      <point x="272" y="630"/>
      <point x="283" y="615"/>
      <point x="279" y="595" type="curve"/>
      <point x="271" y="544"/>
      <point x="104" y="546"/>
      <point x="84" y="420" type="curve"/>
    </contour>
  </outline>
</glyph>
<glyph name="uni00B3" format="2">
  <advance width="361"/>
  <unicode hex="00B3"/>
  <outline>
    <contour>
      <point x="208" y="350" type="curve" smooth="yes" name="n00"/>
      <point x="307" y="350"/>
      <point x="372" y="405"/>
      <point x="382" y="460" type="curve" smooth="yes" name="n03"/>
      <point x="391" y="516"/>
      <point x="355" y="560"/>
      <point x="280" y="565" type="curve" name="n06"/>
      <point x="384" y="615" type="line"/>
      <point x="399" y="700" type="line" name="n08"/>
      <point x="149" y="700" type="line" name="n09"/>
      <point x="135" y="620" type="line" name="n10"/>
      <point x="270" y="620" type="line"/>
      <point x="154" y="560" type="line"/>
      <point x="144" y="500" type="line"/>
      <point x="210" y="500" type="line" smooth="yes" name="n14"/>
      <point x="245" y="500"/>
      <point x="256" y="485"/>
      <point x="252" y="465" type="curve" name="n17"/>
      <point x="249" y="445"/>
      <point x="231" y="430"/>
      <point x="202" y="430" type="curve" smooth="yes" name="n20"/>
      <point x="183" y="430"/>
      <point x="168" y="437"/>
      <point x="156" y="445" type="curve"/>
      <point x="149" y="449"/>
      <point x="142" y="454"/>
      <point x="137" y="460" type="curve"/>
      <point x="127" y="460" type="line"/>
      <point x="79" y="395" type="line" name="n28"/>
      <point x="89" y="386"/>
      <point x="100" y="379"/>
      <point x="113" y="372" type="curve"/>
      <point x="136" y="361"/>
      <point x="168" y="350"/>
    </contour>
  </outline>
</glyph>
<glyph name="acute" format="2">
  <advance width="200"/>
  <unicode hex="00B4"/>
  <outline>
    <contour>
      <point x="81" y="550" type="line" name="n00"/>
      <point x="161" y="550" type="line" name="n01"/>
      <point x="288" y="700" type="line" name="n02"/>
      <point x="153" y="700" type="line" name="n03"/>
    </contour>
  </outline>
</glyph>
<glyph name="mu" format="2">
  <advance width="580"/>
  <unicode hex="00B5"/>
  <outline>
    <contour>
      <point x="9" y="-200" type="line" name="n00"/>
      <point x="109" y="-200" type="line"/>
      <point x="156" y="-160" type="line"/>
      <point x="188" y="20" type="line"/>
      <point x="193" y="14"/>
      <point x="198" y="9"/>
      <point x="205" y="5" type="curve"/>
      <point x="216" y="-3"/>
      <point x="233" y="-10"/>
      <point x="253" y="-10" type="curve" smooth="yes" name="n09"/>
      <point x="293" y="-10"/>
      <point x="323" y="6"/>
      <point x="346" y="25" type="curve"/>
      <point x="359" y="35"/>
      <point x="370" y="47"/>
      <point x="380" y="60" type="curve"/>
      <point x="385" y="60" type="line"/>
      <point x="385" y="0" type="line" name="n17"/>
      <point x="485" y="0" type="line"/>
      <point x="573" y="500" type="line" name="n19"/>
      <point x="433" y="500" type="line"/>
      <point x="370" y="145" type="line"/>
      <point x="362" y="134"/>
      <point x="353" y="124"/>
      <point x="343" y="115" type="curve" smooth="yes"/>
      <point x="326" y="100"/>
      <point x="301" y="85" name="hr02"/>
      <point x="274" y="85" type="curve" smooth="yes" name="n27"/>
      <point x="229" y="85"/>
      <point x="205" y="115"/>
      <point x="216" y="180" type="curve" smooth="yes"/>
      <point x="273" y="500" type="line"/>
      <point x="133" y="500" type="line"/>
    </contour>
  </outline>
</glyph>
<glyph name="paragraph" format="2">
  <advance width="580"/>
  <unicode hex="00B6"/>
  <outline>
    <contour>
      <point x="159" y="-200" type="line"/>
      <point x="279" y="-200" type="line"/>
      <point x="422" y="610" type="line"/>
      <point x="472" y="610" type="line"/>
      <point x="329" y="-200" type="line"/>
      <point x="449" y="-200" type="line"/>
      <point x="592" y="610" type="line"/>
      <point x="652" y="610" type="line" name="n07"/>
      <point x="668" y="700" type="line" name="n08"/>
      <point x="318" y="700" type="line" smooth="yes"/>
      <point x="198" y="700"/>
      <point x="92" y="611"/>
      <point x="68" y="475" type="curve" smooth="yes"/>
      <point x="44" y="339"/>
      <point x="119" y="250"/>
      <point x="239" y="250" type="curve"/>
    </contour>
  </outline>
</glyph>
<glyph name="periodcentered" format="2">
  <advance width="300"/>
  <unicode hex="00B7"/>
  <outline>
    <contour>
      <point x="199" y="425" type="curve" smooth="yes" name="n00"/>
      <point x="159" y="425"/>
      <point x="119" y="390"/>
      <point x="111" y="350" type="curve" smooth="yes"/>
      <point x="104" y="310"/>
      <point x="133" y="275"/>
      <point x="173" y="275" type="curve" smooth="yes" name="n06"/>
      <point x="213" y="275"/>
      <point x="253" y="310"/>
      <point x="261" y="350" type="curve" smooth="yes"/>
      <point x="268" y="390"/>
      <point x="239" y="425"/>
    </contour>
  </outline>
</glyph>
<glyph name="cedilla" format="2">
  <advance width="215"/>
  <unicode hex="00B8"/>
  <outline>
    <contour>
      <point x="35" y="-195" type="curve" smooth="yes" name="n00"/>
      <point x="106" y="-195"/>
      <point x="152" y="-155"/>
      <point x="160" y="-110" type="curve" smooth="yes" name="n03"/>
      <point x="168" y="-65"/>
      <point x="136" y="-25"/>
      <point x="80" y="-25" type="curve"/>
      <point x="88" y="20" type="line"/>
      <point x="13" y="20" type="line" name="n08"/>
      <point x="-5" y="-80" type="line" name="n09"/>
      <point x="45" y="-80" type="line" smooth="yes"/>
      <point x="65" y="-80"/>
      <point x="79" y="-90"/>
      <point x="75" y="-110" type="curve" name="n13"/>
      <point x="72" y="-130"/>
      <point x="55" y="-140"/>
      <point x="35" y="-140" type="curve" smooth="yes" name="n16"/>
      <point x="10" y="-140"/>
      <point x="-9" y="-125"/>
      <point x="-8" y="-125" type="curve"/>
      <point x="-17" y="-125" type="line"/>
      <point x="-45" y="-175" type="line"/>
      <point x="-39" y="-179"/>
      <point x="-32" y="-182"/>
      <point x="-24" y="-185" type="curve"/>
      <point x="-9" y="-190"/>
      <point x="10" y="-195"/>
    </contour>
  </outline>
</glyph>
<glyph name="uni00B9" format="2">
  <advance width="315"/>
  <unicode hex="00B9"/>
  <outline>
    <contour>
      <point x="73" y="360" type="line" name="n00"/>
      <point x="333" y="360" type="line"/>
      <point x="347" y="440" type="line" name="n02"/>
      <point x="277" y="440" type="line"/>
      <point x="323" y="700" type="line" name="n04"/>
      <point x="213" y="700" type="line"/>
      <point x="104" y="620" type="line"/>
      <point x="130" y="570" type="line"/>
      <point x="184" y="595" type="line"/>
      <point x="157" y="440" type="line"/>
      <point x="87" y="440" type="line" name="n10"/>
    </contour>
  </outline>
</glyph>
<glyph name="ordmasculine" format="2">
  <advance width="420"/>
  <unicode hex="00BA"/>
  <outline>
    <contour>
      <point x="246" y="350" type="curve" smooth="yes" name="n00"/>
      <point x="346" y="350"/>
      <point x="434" y="426"/>
      <point x="453" y="530" type="curve" smooth="yes"/>
      <point x="472" y="634"/>
      <point x="410" y="710"/>
      <point x="310" y="710" type="curve" smooth="yes" name="n06"/>
      <point x="209" y="710"/>
      <point x="122" y="634"/>
      <point x="103" y="530" type="curve" smooth="yes"/>
      <point x="84" y="426"/>
      <point x="146" y="350"/>
    </contour>
    <contour>
      <point x="260" y="430" type="curve" smooth="yes" name="n12"/>
      <point x="229" y="430"/>
      <point x="210" y="455"/>
      <point x="223" y="530" type="curve" smooth="yes"/>
      <point x="236" y="605"/>
      <point x="265" y="630"/>
      <point x="296" y="630" type="curve" smooth="yes" name="n18"/>
      <point x="325" y="630"/>
      <point x="346" y="605"/>
      <point x="333" y="530" type="curve" smooth="yes"/>
      <point x="320" y="455"/>
      <point x="289" y="430"/>
    </contour>
  </outline>
</glyph>
<glyph name="guillemotright" format="2">
  <advance width="520"/>
  <unicode hex="00BB"/>
  <outline>
    <contour>
      <point x="379" y="250" type="line"/>
      <point x="191" y="70" type="line"/>
      <point x="259" y="-5" type="line" name="n02"/>
      <point x="529" y="250" type="line" name="n03"/>
      <point x="349" y="505" type="line" name="n04"/>
      <point x="254" y="430" type="line"/>
    </contour>
    <contour>
      <point x="304" y="250" type="line"/>
      <point x="156" y="460" type="line"/>
      <point x="62" y="385" type="line"/>
      <point x="154" y="250" type="line"/>
      <point x="15" y="115" type="line" name="n10"/>
      <point x="82" y="40" type="line"/>
    </contour>
  </outline>
</glyph>
<glyph name="onequarter" format="2">
  <advance width="790"/>
  <unicode hex="00BC"/>
  <outline>
    <contour>
      <point x="80" y="0" type="line"/>
      <point x="230" y="0" type="line"/>
      <point x="823" y="700" type="line" name="n02"/>
      <point x="673" y="700" type="line"/>
    </contour>
    <contour>
      <point x="78" y="360" type="line" name="n04"/>
      <point x="338" y="360" type="line"/>
      <point x="352" y="440" type="line"/>
      <point x="282" y="440" type="line"/>
      <point x="328" y="700" type="line"/>
      <point x="228" y="700" type="line"/>
      <point x="109" y="620" type="line"/>
      <point x="135" y="570" type="line"/>
      <point x="189" y="595" type="line"/>
      <point x="162" y="440" type="line"/>
      <point x="92" y="440" type="line" name="n14"/>
    </contour>
    <contour>
      <point x="565" y="0" type="line" name="n15"/>
      <point x="685" y="0" type="line"/>
      <point x="695" y="60" type="line" name="n17"/>
      <point x="740" y="60" type="line"/>
      <point x="754" y="140" type="line"/>
      <point x="709" y="140" type="line" name="n20"/>
      <point x="744" y="340" type="line"/>
      <point x="629" y="340" type="line" name="n22"/>
      <point x="424" y="140" type="line"/>
      <point x="410" y="60" type="line"/>
      <point x="575" y="60" type="line"/>
    </contour>
    <contour>
      <point x="519" y="140" type="line"/>
      <point x="585" y="204" type="line" smooth="yes"/>
      <point x="590.645" y="209.474"/>
      <point x="602.942" y="226.884"/>
      <point x="607" y="235" type="curve"/>
      <point x="611" y="235" type="line" name="n31"/>
      <point x="607.246" y="226.742"/>
      <point x="602.733" y="214.387"/>
      <point x="601" y="205" type="curve" smooth="yes"/>
      <point x="589" y="140" type="line" name="n35"/>
    </contour>
  </outline>
</glyph>
<glyph name="onehalf" format="2">
  <advance width="805"/>
  <unicode hex="00BD"/>
  <outline>
    <contour>
      <point x="80" y="0" type="line"/>
      <point x="230" y="0" type="line"/>
      <point x="823" y="700" type="line" name="n02"/>
      <point x="673" y="700" type="line"/>
    </contour>
    <contour>
      <point x="78" y="360" type="line" name="n04"/>
      <point x="338" y="360" type="line"/>
      <point x="352" y="440" type="line"/>
      <point x="282" y="440" type="line"/>
      <point x="328" y="700" type="line"/>
      <point x="228" y="700" type="line"/>
      <point x="109" y="620" type="line"/>
      <point x="135" y="570" type="line"/>
      <point x="189" y="595" type="line"/>
      <point x="162" y="440" type="line"/>
      <point x="92" y="440" type="line" name="n14"/>
    </contour>
    <contour>
      <point x="460" y="0" type="line"/>
      <point x="745" y="0" type="line" name="n16"/>
      <point x="759" y="80" type="line" name="n17"/>
      <point x="594" y="80" type="line"/>
      <point x="597.3" y="101.037"/>
      <point x="627.143" y="113.226"/>
      <point x="662.474" y="127.657" type="curve" smooth="yes"/>
      <point x="721.827" y="151.899"/>
      <point x="787.773" y="181.184"/>
      <point x="787.773" y="253.267" type="curve" smooth="yes"/>
      <point x="787.773" y="310.152"/>
      <point x="746.701" y="350"/>
      <point x="665.694" y="350" type="curve" smooth="yes" name="n27"/>
      <point x="610.36" y="350"/>
      <point x="558.913" y="331.408"/>
      <point x="516" y="305" type="curve"/>
      <point x="541" y="240" type="line"/>
      <point x="551" y="240" type="line"/>
      <point x="575.701" y="257"/>
      <point x="599.567" y="270"/>
      <point x="627.699" y="270" type="curve" smooth="yes" name="n35"/>
      <point x="654.752" y="270"/>
      <point x="666.475" y="257.979"/>
      <point x="666.475" y="242.364" type="curve" smooth="yes"/>
      <point x="666.475" y="212.302"/>
      <point x="623.021" y="196"/>
      <point x="602.177" y="188.896" type="curve" smooth="yes"/>
      <point x="548.062" y="170.453"/>
      <point x="482.816" y="136.897"/>
      <point x="470" y="60" type="curve" smooth="yes"/>
    </contour>
  </outline>
</glyph>
<glyph name="threequarters" format="2">
  <advance width="776"/>
  <unicode hex="00BE"/>
  <outline>
    <contour>
      <point x="66" y="0" type="line" name="n00"/>
      <point x="216" y="0" type="line"/>
      <point x="809" y="700" type="line" name="n02"/>
      <point x="659" y="700" type="line"/>
    </contour>
    <contour>
      <point x="198" y="350" type="curve" smooth="yes" name="n04"/>
      <point x="297" y="350"/>
      <point x="362" y="405"/>
      <point x="372" y="460" type="curve" smooth="yes" name="n07"/>
      <point x="381" y="516"/>
      <point x="345" y="560"/>
      <point x="270" y="565" type="curve" name="n10"/>
      <point x="374" y="615" type="line"/>
      <point x="389" y="700" type="line"/>
      <point x="139" y="700" type="line" name="n13"/>
      <point x="125" y="620" type="line" name="n14"/>
      <point x="260" y="620" type="line"/>
      <point x="144" y="560" type="line"/>
      <point x="134" y="500" type="line"/>
      <point x="200" y="500" type="line" smooth="yes" name="n18"/>
      <point x="235" y="500"/>
      <point x="246" y="485"/>
      <point x="242" y="465" type="curve" name="n21"/>
      <point x="239" y="445"/>
      <point x="221" y="430"/>
      <point x="192" y="430" type="curve" smooth="yes" name="n24"/>
      <point x="173" y="430"/>
      <point x="158" y="437"/>
      <point x="146" y="445" type="curve"/>
      <point x="139" y="449"/>
      <point x="132" y="454"/>
      <point x="127" y="460" type="curve"/>
      <point x="117" y="460" type="line"/>
      <point x="69" y="395" type="line"/>
      <point x="79" y="386"/>
      <point x="90" y="379"/>
      <point x="103" y="372" type="curve"/>
      <point x="126" y="361"/>
      <point x="158" y="350"/>
    </contour>
    <contour>
      <point x="551" y="0" type="line" name="n38"/>
      <point x="671" y="0" type="line" name="hr03"/>
      <point x="681" y="60" type="line" name="n40"/>
      <point x="726" y="60" type="line" name="hr02"/>
      <point x="740" y="140" type="line"/>
      <point x="695" y="140" type="line" name="n43"/>
      <point x="730" y="340" type="line"/>
      <point x="615" y="340" type="line" name="n45"/>
      <point x="410" y="140" type="line"/>
      <point x="396" y="60" type="line"/>
      <point x="561" y="60" type="line"/>
    </contour>
    <contour>
      <point x="505" y="140" type="line"/>
      <point x="571" y="204" type="line"/>
      <point x="578" y="209"/>
      <point x="582" y="217"/>
      <point x="586" y="224" type="curve"/>
      <point x="589" y="227"/>
      <point x="591" y="231"/>
      <point x="593" y="235" type="curve"/>
      <point x="597" y="235" type="line" name="n57"/>
      <point x="592" y="224" type="line" smooth="yes"/>
      <point x="589" y="217"/>
      <point x="587" y="210"/>
      <point x="587" y="205" type="curve"/>
      <point x="575" y="140" type="line" name="n62"/>
    </contour>
  </outline>
</glyph>
<glyph name="questiondown" format="2">
  <advance width="490"/>
  <unicode hex="00BF"/>
  <outline>
    <contour>
      <point x="333" y="360" type="curve" smooth="yes" name="n00"/>
      <point x="376.484" y="360"/>
      <point x="422.045" y="402.675"/>
      <point x="422.045" y="446.907" type="curve" smooth="yes"/>
      <point x="422.045" y="481.697"/>
      <point x="394.97" y="510"/>
      <point x="359" y="510" type="curve" smooth="yes" name="n06"/>
      <point x="315.516" y="510"/>
      <point x="269.955" y="467.325"/>
      <point x="269.955" y="423.093" type="curve" smooth="yes"/>
      <point x="269.955" y="388.303"/>
      <point x="297.03" y="360"/>
    </contour>
    <contour>
      <point x="2.77307" y="-46.7686" type="curve" smooth="yes" name="n12"/>
      <point x="2.77307" y="-147.005"/>
      <point x="70.2587" y="-210"/>
      <point x="219.094" y="-210" type="curve" smooth="yes" name="n15"/>
      <point x="290.897" y="-210"/>
      <point x="378.326" y="-195.338"/>
      <point x="437" y="-155" type="curve" name="n18"/>
      <point x="406" y="-75" type="line"/>
      <point x="396" y="-75" type="line"/>
      <point x="356.319" y="-107.466"/>
      <point x="297.824" y="-120"/>
      <point x="250.736" y="-120" type="curve" smooth="yes" name="n23"/>
      <point x="176.517" y="-120"/>
      <point x="142.56" y="-88.8624"/>
      <point x="142.56" y="-41.411" type="curve" smooth="yes"/>
      <point x="142.56" y="20.6633"/>
      <point x="200.671" y="62.396"/>
      <point x="249.676" y="96.4969" type="curve" smooth="yes"/>
      <point x="306.278" y="135.884"/>
      <point x="366.953" y="178.106"/>
      <point x="382" y="270" type="curve" smooth="yes"/>
      <point x="387" y="300" type="line"/>
      <point x="257" y="300" type="line"/>
      <point x="252" y="270" type="line" smooth="yes"/>
      <point x="243.248" y="221.862"/>
      <point x="201.172" y="194.981"/>
      <point x="153.933" y="164.802" type="curve" smooth="yes"/>
      <point x="68.9631" y="110.518"/>
      <point x="2.77307" y="52.5011"/>
    </contour>
  </outline>
</glyph>
<glyph name="Agrave" format="2">
  <advance width="600"/>
  <unicode hex="00C0"/>
  <outline>
    <contour>
      <point x="378" y="750" type="line"/>
      <point x="458" y="750" type="line" name="n01"/>
      <point x="440" y="900" type="line" name="n02"/>
      <point x="305" y="900" type="line"/>
    </contour>
    <contour>
      <point x="-10" y="0" type="line" name="n04"/>
      <point x="130" y="0" type="line"/>
      <point x="203" y="160" type="line"/>
      <point x="403" y="160" type="line" name="n07"/>
      <point x="420" y="0" type="line"/>
      <point x="560" y="0" type="line" name="n09"/>
      <point x="478" y="700" type="line" name="n10"/>
      <point x="318" y="700" type="line" name="n11"/>
    </contour>
    <contour>
      <point x="244" y="250" type="line"/>
      <point x="341" y="460" type="line"/>
      <point x="348" y="477"/>
      <point x="354" y="493"/>
      <point x="359" y="509" type="curve" smooth="yes"/>
      <point x="360.366" y="513.44"/>
      <point x="365.682" y="530.715"/>
      <point x="367" y="535" type="curve" name="n19"/>
      <point x="371" y="535" type="line"/>
      <point x="370" y="526"/>
      <point x="369" y="518"/>
      <point x="369" y="509" type="curve"/>
      <point x="368" y="494"/>
      <point x="368" y="476"/>
      <point x="371" y="460" type="curve"/>
      <point x="394" y="250" type="line" name="n27"/>
    </contour>
  </outline>
</glyph>
<glyph name="Aacute" format="2">
  <advance width="600"/>
  <unicode hex="00C1"/>
  <outline>
    <contour>
      <point x="343" y="750" type="line"/>
      <point x="423" y="750" type="line" name="n01"/>
      <point x="550" y="900" type="line"/>
      <point x="415" y="900" type="line" name="n03"/>
    </contour>
    <contour>
      <point x="-10" y="0" type="line" name="n04"/>
      <point x="130" y="0" type="line"/>
      <point x="203" y="160" type="line"/>
      <point x="403" y="160" type="line" name="n07"/>
      <point x="420" y="0" type="line"/>
      <point x="560" y="0" type="line" name="n09"/>
      <point x="478" y="700" type="line" name="n10"/>
      <point x="318" y="700" type="line" name="n11"/>
    </contour>
    <contour>
      <point x="244" y="250" type="line"/>
      <point x="341" y="460" type="line"/>
      <point x="348" y="477"/>
      <point x="354" y="493"/>
      <point x="359" y="509" type="curve" smooth="yes"/>
      <point x="360.366" y="513.44"/>
      <point x="365.682" y="530.715"/>
      <point x="367" y="535" type="curve" name="n19"/>
      <point x="371" y="535" type="line"/>
      <point x="370" y="526"/>
      <point x="369" y="518"/>
      <point x="369" y="509" type="curve"/>
      <point x="368" y="494"/>
      <point x="368" y="476"/>
      <point x="371" y="460" type="curve"/>
      <point x="394" y="250" type="line" name="n27"/>
    </contour>
  </outline>
</glyph>
<glyph name="Acircumflex" format="2">
  <advance width="600"/>
  <unicode hex="00C2"/>
  <outline>
    <contour>
      <point x="246" y="750" type="line"/>
      <point x="341" y="750" type="line"/>
      <point x="419" y="820" type="line"/>
      <point x="471" y="750" type="line" name="n03"/>
      <point x="566" y="750" type="line" name="n04"/>
      <point x="480" y="884" type="line" name="n05"/>
      <point x="380" y="884" type="line"/>
    </contour>
    <contour>
      <point x="-10" y="0" type="line" name="n07"/>
      <point x="130" y="0" type="line"/>
      <point x="203" y="160" type="line"/>
      <point x="403" y="160" type="line" name="n10"/>
      <point x="420" y="0" type="line"/>
      <point x="560" y="0" type="line"/>
      <point x="478" y="700" type="line" name="n13"/>
      <point x="318" y="700" type="line" name="n14"/>
    </contour>
    <contour>
      <point x="244" y="250" type="line"/>
      <point x="341" y="460" type="line"/>
      <point x="348" y="477"/>
      <point x="354" y="493"/>
      <point x="359" y="509" type="curve" smooth="yes"/>
      <point x="360.366" y="513.44"/>
      <point x="365.682" y="530.715"/>
      <point x="367" y="535" type="curve" name="n22"/>
      <point x="371" y="535" type="line"/>
      <point x="370" y="526"/>
      <point x="369" y="518"/>
      <point x="369" y="509" type="curve"/>
      <point x="368" y="494"/>
      <point x="368" y="476"/>
      <point x="371" y="460" type="curve"/>
      <point x="394" y="250" type="line" name="n30"/>
    </contour>
  </outline>
</glyph>
<glyph name="Atilde" format="2">
  <advance width="600"/>
  <unicode hex="00C3"/>
  <outline>
    <contour>
      <point x="313" y="760" type="curve"/>
      <point x="313" y="761"/>
      <point x="336" y="799"/>
      <point x="360" y="800" type="curve" name="n03"/>
      <point x="395" y="800"/>
      <point x="406" y="755" name="hr01"/>
      <point x="462" y="755" type="curve" smooth="yes" name="n06"/>
      <point x="511" y="755"/>
      <point x="561" y="804"/>
      <point x="574" y="855" type="curve" name="n09"/>
      <point x="573.652" y="855.209"/>
      <point x="534.455" y="878.727"/>
      <point x="524" y="885" type="curve"/>
      <point x="522.735" y="885"/>
      <point x="517.081" y="885"/>
      <point x="515" y="885" type="curve"/>
      <point x="516" y="884"/>
      <point x="493" y="844"/>
      <point x="468" y="845" type="curve" name="n18"/>
      <point x="433" y="845"/>
      <point x="420" y="890" name="hr02"/>
      <point x="365" y="890" type="curve" smooth="yes" name="n21"/>
      <point x="314" y="890"/>
      <point x="266" y="841"/>
      <point x="253" y="790" type="curve"/>
      <point x="253.355" y="789.791"/>
      <point x="293.336" y="766.273"/>
      <point x="304" y="760" type="curve"/>
      <point x="305.265" y="760"/>
      <point x="310.919" y="760"/>
    </contour>
    <contour>
      <point x="318" y="700" type="line" name="n30"/>
      <point x="-10" y="0" type="line" name="n31"/>
      <point x="130" y="0" type="line"/>
      <point x="203" y="160" type="line"/>
      <point x="403" y="160" type="line" name="n34"/>
      <point x="420" y="0" type="line"/>
      <point x="560" y="0" type="line"/>
      <point x="478" y="700" type="line"/>
    </contour>
    <contour>
      <point x="244" y="250" type="line"/>
      <point x="341" y="460" type="line"/>
      <point x="348" y="477"/>
      <point x="354" y="493"/>
      <point x="359" y="509" type="curve" smooth="yes"/>
      <point x="360.366" y="513.44"/>
      <point x="365.682" y="530.715"/>
      <point x="367" y="535" type="curve" name="n45"/>
      <point x="371" y="535" type="line"/>
      <point x="370" y="526"/>
      <point x="369" y="518"/>
      <point x="369" y="509" type="curve"/>
      <point x="368" y="494"/>
      <point x="368" y="476"/>
      <point x="371" y="460" type="curve"/>
      <point x="394" y="250" type="line" name="n53"/>
    </contour>
  </outline>
</glyph>
<glyph name="Adieresis" format="2">
  <advance width="600"/>
  <unicode hex="00C4"/>
  <outline>
    <contour>
      <point x="308" y="760" type="curve" smooth="yes" name="n00"/>
      <point x="344" y="760"/>
      <point x="385" y="793"/>
      <point x="390" y="830" type="curve"/>
      <point x="397" y="867"/>
      <point x="370" y="900"/>
      <point x="333" y="900" type="curve" smooth="yes" name="n06"/>
      <point x="296" y="900"/>
      <point x="258" y="867"/>
      <point x="250" y="830" type="curve" smooth="yes"/>
      <point x="243" y="793"/>
      <point x="271" y="760"/>
    </contour>
    <contour>
      <point x="503" y="760" type="curve" smooth="yes"/>
      <point x="539" y="760"/>
      <point x="580" y="793"/>
      <point x="585" y="830" type="curve"/>
      <point x="592" y="867"/>
      <point x="565" y="900"/>
      <point x="528" y="900" type="curve" smooth="yes"/>
      <point x="491" y="900"/>
      <point x="453" y="867"/>
      <point x="445" y="830" type="curve" smooth="yes"/>
      <point x="438" y="793"/>
      <point x="466" y="760"/>
    </contour>
    <contour>
      <point x="-10" y="0" type="line" name="n24"/>
      <point x="130" y="0" type="line"/>
      <point x="203" y="160" type="line"/>
      <point x="403" y="160" type="line" name="n27"/>
      <point x="420" y="0" type="line"/>
      <point x="560" y="0" type="line"/>
      <point x="478" y="700" type="line" name="n30"/>
      <point x="318" y="700" type="line" name="n31"/>
    </contour>
    <contour>
      <point x="244" y="250" type="line"/>
      <point x="341" y="460" type="line"/>
      <point x="348" y="477"/>
      <point x="354" y="493"/>
      <point x="359" y="509" type="curve" smooth="yes"/>
      <point x="360.366" y="513.44"/>
      <point x="365.682" y="530.715"/>
      <point x="367" y="535" type="curve" name="n39"/>
      <point x="371" y="535" type="line"/>
      <point x="370" y="526"/>
      <point x="369" y="518"/>
      <point x="369" y="509" type="curve"/>
      <point x="368" y="494"/>
      <point x="368" y="476"/>
      <point x="371" y="460" type="curve"/>
      <point x="394" y="250" type="line" name="n47"/>
    </contour>
  </outline>
</glyph>
<glyph name="Aring" format="2">
  <advance width="600"/>
  <unicode hex="00C5"/>
  <outline>
    <contour>
      <point x="406" y="745" type="curve" smooth="yes" name="n00"/>
      <point x="471" y="745"/>
      <point x="523" y="790"/>
      <point x="534" y="850" type="curve" smooth="yes"/>
      <point x="545" y="910"/>
      <point x="508" y="955"/>
      <point x="443" y="955" type="curve" smooth="yes" name="n06"/>
      <point x="378" y="955"/>
      <point x="325" y="910"/>
      <point x="314" y="850" type="curve" smooth="yes"/>
      <point x="303" y="790"/>
      <point x="341" y="745"/>
    </contour>
    <contour>
      <point x="417" y="810" type="curve" smooth="yes" name="n12"/>
      <point x="397" y="810"/>
      <point x="385" y="825"/>
      <point x="389" y="850" type="curve"/>
      <point x="394" y="875"/>
      <point x="411" y="890"/>
      <point x="431" y="890" type="curve" smooth="yes" name="n18"/>
      <point x="451" y="890"/>
      <point x="464" y="875"/>
      <point x="459" y="850" type="curve"/>
      <point x="455" y="825"/>
      <point x="437" y="810"/>
    </contour>
    <contour>
      <point x="-10" y="0" type="line" name="n24"/>
      <point x="130" y="0" type="line"/>
      <point x="203" y="160" type="line"/>
      <point x="403" y="160" type="line" name="n27"/>
      <point x="420" y="0" type="line"/>
      <point x="560" y="0" type="line" name="n29"/>
      <point x="478" y="700" type="line" name="n30"/>
      <point x="318" y="700" type="line" name="n31"/>
    </contour>
    <contour>
      <point x="244" y="250" type="line"/>
      <point x="341" y="460" type="line"/>
      <point x="348" y="477"/>
      <point x="354" y="493"/>
      <point x="359" y="509" type="curve" smooth="yes"/>
      <point x="360.366" y="513.44"/>
      <point x="365.682" y="530.715"/>
      <point x="367" y="535" type="curve" name="n39"/>
      <point x="371" y="535" type="line"/>
      <point x="370" y="526"/>
      <point x="369" y="518"/>
      <point x="369" y="509" type="curve"/>
      <point x="368" y="494"/>
      <point x="368" y="476"/>
      <point x="371" y="460" type="curve"/>
      <point x="394" y="250" type="line" name="n47"/>
    </contour>
  </outline>
</glyph>
<glyph name="AE" format="2">
  <advance width="845"/>
  <unicode hex="00C6"/>
  <outline>
    <contour>
      <point x="-50" y="0" type="line" name="n00"/>
      <point x="90" y="0" type="line"/>
      <point x="203" y="190" type="line"/>
      <point x="408" y="190" type="line" name="n03"/>
      <point x="375" y="0" type="line"/>
      <point x="795" y="0" type="line" name="n05"/>
      <point x="810" y="90" type="line" name="n06"/>
      <point x="530" y="90" type="line"/>
      <point x="571" y="320" type="line" name="n08"/>
      <point x="791" y="320" type="line"/>
      <point x="807" y="410" type="line"/>
      <point x="587" y="410" type="line" name="n11"/>
      <point x="622" y="610" type="line"/>
      <point x="902" y="610" type="line" name="n13"/>
      <point x="918" y="700" type="line" name="n14"/>
      <point x="368" y="700" type="line"/>
    </contour>
    <contour>
      <point x="259" y="280" type="line"/>
      <point x="452" y="610" type="line"/>
      <point x="482" y="610" type="line"/>
      <point x="424" y="280" type="line" name="n19"/>
    </contour>
  </outline>
</glyph>
<glyph name="Ccedilla" format="2">
  <advance width="535"/>
  <unicode hex="00C7"/>
  <outline>
    <contour>
      <point x="551" y="682" type="curve"/>
      <point x="522" y="697"/>
      <point x="477" y="710"/>
      <point x="420" y="710" type="curve" smooth="yes" name="n03"/>
      <point x="255" y="710"/>
      <point x="131" y="605"/>
      <point x="86" y="350" type="curve" smooth="yes"/>
      <point x="47" y="131"/>
      <point x="105" y="23"/>
      <point x="234" y="-4" type="curve" name="n09"/>
      <point x="220" y="-80" type="line"/>
      <point x="270" y="-80" type="line" smooth="yes" name="n11"/>
      <point x="290" y="-80"/>
      <point x="304" y="-90"/>
      <point x="300" y="-110" type="curve" name="n14"/>
      <point x="297" y="-130"/>
      <point x="280" y="-140"/>
      <point x="260" y="-140" type="curve" smooth="yes" name="n17"/>
      <point x="235" y="-140"/>
      <point x="216" y="-125"/>
      <point x="217" y="-125" type="curve"/>
      <point x="208" y="-125" type="line"/>
      <point x="180" y="-175" type="line"/>
      <point x="186" y="-179"/>
      <point x="193" y="-182"/>
      <point x="201" y="-185" type="curve"/>
      <point x="216" y="-190"/>
      <point x="235" y="-195"/>
      <point x="260" y="-195" type="curve" smooth="yes" name="n28"/>
      <point x="331" y="-195"/>
      <point x="377" y="-155"/>
      <point x="385" y="-110" type="curve" smooth="yes" name="n31"/>
      <point x="393" y="-65"/>
      <point x="361" y="-25"/>
      <point x="305" y="-25" type="curve" name="n34"/>
      <point x="308" y="-10" type="line" name="n35"/>
      <point x="363" y="-9"/>
      <point x="409" y="2"/>
      <point x="443" y="17" type="curve"/>
      <point x="463" y="25"/>
      <point x="481" y="34"/>
      <point x="497" y="45" type="curve"/>
      <point x="467" y="125" type="line"/>
      <point x="457" y="125" type="line"/>
      <point x="446" y="116"/>
      <point x="434" y="109"/>
      <point x="421" y="102" type="curve"/>
      <point x="398" y="91"/>
      <point x="366" y="80"/>
      <point x="329" y="80" type="curve" smooth="yes" name="n49"/>
      <point x="239" y="80"/>
      <point x="189" y="139"/>
      <point x="226" y="350" type="curve" smooth="yes"/>
      <point x="263" y="561"/>
      <point x="334" y="620"/>
      <point x="414" y="620" type="curve" smooth="yes" name="n55"/>
      <point x="451" y="620"/>
      <point x="479" y="608"/>
      <point x="498" y="597" type="curve"/>
      <point x="509" y="590"/>
      <point x="519" y="583"/>
      <point x="526" y="575" type="curve"/>
      <point x="536" y="575" type="line"/>
      <point x="595" y="655" type="line"/>
      <point x="583" y="665"/>
      <point x="568" y="674"/>
    </contour>
  </outline>
</glyph>
<glyph name="Egrave" format="2">
  <advance width="530"/>
  <unicode hex="00C8"/>
  <outline>
    <contour>
      <point x="391" y="750" type="line"/>
      <point x="471" y="750" type="line" name="n01"/>
      <point x="453" y="900" type="line" name="n02"/>
      <point x="318" y="900" type="line"/>
    </contour>
    <contour>
      <point x="60" y="0" type="line" name="n04"/>
      <point x="480" y="0" type="line" name="n05"/>
      <point x="495" y="90" type="line" name="n06"/>
      <point x="215" y="90" type="line"/>
      <point x="256" y="320" type="line" name="n08"/>
      <point x="476" y="320" type="line"/>
      <point x="492" y="410" type="line"/>
      <point x="272" y="410" type="line" name="n11"/>
      <point x="307" y="610" type="line"/>
      <point x="587" y="610" type="line" name="n13"/>
      <point x="603" y="700" type="line" name="n14"/>
      <point x="183" y="700" type="line"/>
    </contour>
  </outline>
</glyph>
<glyph name="Eacute" format="2">
  <advance width="530"/>
  <unicode hex="00C9"/>
  <outline>
    <contour>
      <point x="336" y="750" type="line"/>
      <point x="416" y="750" type="line" name="n01"/>
      <point x="543" y="900" type="line"/>
      <point x="408" y="900" type="line" name="n03"/>
    </contour>
    <contour>
      <point x="60" y="0" type="line" name="n04"/>
      <point x="480" y="0" type="line" name="n05"/>
      <point x="495" y="90" type="line" name="n06"/>
      <point x="215" y="90" type="line"/>
      <point x="256" y="320" type="line" name="n08"/>
      <point x="476" y="320" type="line"/>
      <point x="492" y="410" type="line"/>
      <point x="272" y="410" type="line" name="n11"/>
      <point x="307" y="610" type="line"/>
      <point x="587" y="610" type="line" name="n13"/>
      <point x="603" y="700" type="line" name="n14"/>
      <point x="183" y="700" type="line"/>
    </contour>
  </outline>
</glyph>
<glyph name="Ecircumflex" format="2">
  <advance width="530"/>
  <unicode hex="00CA"/>
  <outline>
    <contour>
      <point x="250" y="760" type="line"/>
      <point x="345" y="760" type="line"/>
      <point x="423" y="830" type="line"/>
      <point x="475" y="760" type="line" name="n03"/>
      <point x="570" y="760" type="line"/>
      <point x="484" y="894" type="line" name="n05"/>
      <point x="384" y="894" type="line"/>
    </contour>
    <contour>
      <point x="60" y="0" type="line" name="n07"/>
      <point x="480" y="0" type="line" name="n08"/>
      <point x="495" y="90" type="line" name="n09"/>
      <point x="215" y="90" type="line"/>
      <point x="256" y="320" type="line" name="n11"/>
      <point x="476" y="320" type="line"/>
      <point x="492" y="410" type="line"/>
      <point x="272" y="410" type="line" name="n14"/>
      <point x="307" y="610" type="line"/>
      <point x="587" y="610" type="line" name="n16"/>
      <point x="603" y="700" type="line" name="n17"/>
      <point x="183" y="700" type="line"/>
    </contour>
  </outline>
</glyph>
<glyph name="Edieresis" format="2">
  <advance width="530"/>
  <unicode hex="00CB"/>
  <outline>
    <contour>
      <point x="312" y="770" type="curve" smooth="yes" name="n00"/>
      <point x="348" y="770"/>
      <point x="389" y="803"/>
      <point x="394" y="840" type="curve"/>
      <point x="401" y="877"/>
      <point x="374" y="910"/>
      <point x="337" y="910" type="curve" smooth="yes" name="n06"/>
      <point x="300" y="910"/>
      <point x="262" y="877"/>
      <point x="254" y="840" type="curve" smooth="yes"/>
      <point x="247" y="803"/>
      <point x="275" y="770"/>
    </contour>
    <contour>
      <point x="507" y="770" type="curve" smooth="yes"/>
      <point x="543" y="770"/>
      <point x="584" y="803"/>
      <point x="589" y="840" type="curve"/>
      <point x="596" y="877"/>
      <point x="569" y="910"/>
      <point x="532" y="910" type="curve" smooth="yes"/>
      <point x="495" y="910"/>
      <point x="457" y="877"/>
      <point x="449" y="840" type="curve" smooth="yes"/>
      <point x="442" y="803"/>
      <point x="470" y="770"/>
    </contour>
    <contour>
      <point x="60" y="0" type="line" name="n24"/>
      <point x="480" y="0" type="line" name="n25"/>
      <point x="495" y="90" type="line" name="n26"/>
      <point x="215" y="90" type="line"/>
      <point x="256" y="320" type="line" name="n28"/>
      <point x="476" y="320" type="line"/>
      <point x="492" y="410" type="line"/>
      <point x="272" y="410" type="line" name="n31"/>
      <point x="307" y="610" type="line"/>
      <point x="587" y="610" type="line" name="n33"/>
      <point x="603" y="700" type="line" name="n34"/>
      <point x="183" y="700" type="line"/>
    </contour>
  </outline>
</glyph>
<glyph name="Igrave" format="2">
  <advance width="288"/>
  <unicode hex="00CC"/>
  <anchor x="200" y="0" name="b.uni0328_1"/>
  <anchor x="261" y="700" name="m.gravecomb_2"/>
  <anchor x="130" y="0" name="m.uni0326"/>
  <outline>
    <contour>
      <point x="221" y="750" type="line"/>
      <point x="301" y="750" type="line" name="n01"/>
      <point x="283" y="900" type="line" name="n02"/>
      <point x="148" y="900" type="line"/>
    </contour>
    <contour>
      <point x="60" y="0" type="line" name="n04"/>
      <point x="200" y="0" type="line"/>
      <point x="323" y="700" type="line" name="n06"/>
      <point x="183" y="700" type="line"/>
    </contour>
  </outline>
</glyph>
<glyph name="Icircumflex" format="2">
  <advance width="290"/>
  <unicode hex="00CE"/>
  <anchor x="200" y="0" name="b.uni0328_1"/>
  <anchor x="261" y="700" name="m.gravecomb_2"/>
  <anchor x="130" y="0" name="m.uni0326"/>
  <outline>
    <contour>
      <point x="93" y="760" type="line"/>
      <point x="188" y="760" type="line"/>
      <point x="266" y="830" type="line"/>
      <point x="318" y="760" type="line" name="n03"/>
      <point x="413" y="760" type="line" name="n04"/>
      <point x="327" y="894" type="line" name="n05"/>
      <point x="227" y="894" type="line"/>
    </contour>
    <contour>
      <point x="60" y="0" type="line" name="n07"/>
      <point x="200" y="0" type="line"/>
      <point x="323" y="700" type="line" name="n09"/>
      <point x="183" y="700" type="line"/>
    </contour>
  </outline>
</glyph>
<glyph name="Idieresis" format="2">
  <advance width="310"/>
  <unicode hex="00CF"/>
  <anchor x="200" y="0" name="b.uni0328_1"/>
  <anchor x="261" y="700" name="m.gravecomb_2"/>
  <anchor x="130" y="0" name="m.uni0326"/>
  <outline>
    <contour>
      <point x="165" y="770" type="curve" smooth="yes" name="n00"/>
      <point x="201" y="770"/>
      <point x="242" y="803"/>
      <point x="247" y="840" type="curve"/>
      <point x="254" y="877"/>
      <point x="227" y="910"/>
      <point x="190" y="910" type="curve" smooth="yes" name="n06"/>
      <point x="153" y="910"/>
      <point x="115" y="877"/>
      <point x="107" y="840" type="curve" smooth="yes"/>
      <point x="100" y="803"/>
      <point x="128" y="770"/>
    </contour>
    <contour>
      <point x="360" y="770" type="curve" smooth="yes"/>
      <point x="396" y="770"/>
      <point x="437" y="803"/>
      <point x="442" y="840" type="curve"/>
      <point x="449" y="877"/>
      <point x="422" y="910"/>
      <point x="385" y="910" type="curve" smooth="yes"/>
      <point x="348" y="910"/>
      <point x="310" y="877"/>
      <point x="302" y="840" type="curve" smooth="yes"/>
      <point x="295" y="803"/>
      <point x="323" y="770"/>
    </contour>
    <contour>
      <point x="60" y="0" type="line" name="n24"/>
      <point x="200" y="0" type="line"/>
      <point x="323" y="700" type="line" name="n26"/>
      <point x="183" y="700" type="line"/>
    </contour>
  </outline>
</glyph>
<glyph name="Ntilde" format="2">
  <advance width="640"/>
  <unicode hex="00D1"/>
  <outline>
    <contour>
      <point x="333" y="760" type="curve"/>
      <point x="333" y="761"/>
      <point x="356" y="799"/>
      <point x="380" y="800" type="curve" name="n03"/>
      <point x="415" y="800"/>
      <point x="426" y="755" name="hr01"/>
      <point x="482" y="755" type="curve" smooth="yes" name="n06"/>
      <point x="531" y="755"/>
      <point x="581" y="804"/>
      <point x="594" y="855" type="curve"/>
      <point x="593.652" y="855.209"/>
      <point x="554.455" y="878.727"/>
      <point x="544" y="885" type="curve"/>
      <point x="542.735" y="885"/>
      <point x="537.081" y="885"/>
      <point x="535" y="885" type="curve"/>
      <point x="536" y="884"/>
      <point x="513" y="844"/>
      <point x="488" y="845" type="curve" name="n18"/>
      <point x="453" y="845"/>
      <point x="440" y="890" name="hr02"/>
      <point x="385" y="890" type="curve" smooth="yes" name="n21"/>
      <point x="334" y="890"/>
      <point x="286" y="841"/>
      <point x="273" y="790" type="curve"/>
      <point x="273.355" y="789.791"/>
      <point x="313.336" y="766.273"/>
      <point x="324" y="760" type="curve"/>
      <point x="325.265" y="760"/>
      <point x="330.919" y="760"/>
    </contour>
    <contour>
      <point x="533" y="700" type="line" name="n30"/>
      <point x="464" y="310" type="line" smooth="yes"/>
      <point x="461" y="295"/>
      <point x="460" y="278"/>
      <point x="459" y="266" type="curve"/>
      <point x="458" y="259"/>
      <point x="458" y="252"/>
      <point x="458" y="245" type="curve"/>
      <point x="454" y="245" type="line"/>
      <point x="453" y="252"/>
      <point x="452" y="259"/>
      <point x="450" y="266" type="curve"/>
      <point x="448.058" y="273.77"/>
      <point x="440.793" y="302.826"/>
      <point x="439" y="310" type="curve" smooth="yes"/>
      <point x="420.528" y="377.964"/>
      <point x="348.184" y="644.134"/>
      <point x="333" y="700" type="curve"/>
      <point x="183" y="700" type="line"/>
      <point x="60" y="0" type="line" name="n49"/>
      <point x="200" y="0" type="line"/>
      <point x="268" y="390" type="line" smooth="yes"/>
      <point x="271" y="405"/>
      <point x="273" y="421"/>
      <point x="274" y="434" type="curve"/>
      <point x="275" y="441"/>
      <point x="275" y="448"/>
      <point x="275" y="455" type="curve"/>
      <point x="279" y="455" type="line"/>
      <point x="280" y="448"/>
      <point x="281" y="441"/>
      <point x="283" y="434" type="curve"/>
      <point x="286" y="421"/>
      <point x="289" y="405"/>
      <point x="293" y="390" type="curve" smooth="yes"/>
      <point x="309.753" y="328.938"/>
      <point x="384.934" y="54.9122"/>
      <point x="400" y="0" type="curve"/>
      <point x="550" y="0" type="line"/>
      <point x="673" y="700" type="line" name="n69"/>
    </contour>
  </outline>
</glyph>
<glyph name="Ograve" format="2">
  <advance width="630"/>
  <unicode hex="00D2"/>
  <outline>
    <contour>
      <point x="403" y="750" type="line"/>
      <point x="483" y="750" type="line" name="n01"/>
      <point x="465" y="900" type="line" name="n02"/>
      <point x="330" y="900" type="line"/>
    </contour>
    <contour>
      <point x="288" y="-10" type="curve" smooth="yes" name="n04"/>
      <point x="448" y="-10"/>
      <point x="571" y="95"/>
      <point x="616" y="350" type="curve" smooth="yes"/>
      <point x="661" y="605"/>
      <point x="574" y="710"/>
      <point x="415" y="710" type="curve" smooth="yes" name="n10"/>
      <point x="255" y="710"/>
      <point x="131" y="605"/>
      <point x="86" y="350" type="curve" smooth="yes"/>
      <point x="41" y="95"/>
      <point x="128" y="-10"/>
    </contour>
    <contour>
      <point x="304" y="80" type="curve" smooth="yes" name="n16"/>
      <point x="240" y="80"/>
      <point x="189" y="139"/>
      <point x="226" y="350" type="curve" smooth="yes"/>
      <point x="263" y="561"/>
      <point x="334" y="620"/>
      <point x="399" y="620" type="curve" smooth="yes" name="n22"/>
      <point x="464" y="620"/>
      <point x="513" y="561"/>
      <point x="476" y="350" type="curve" smooth="yes"/>
      <point x="439" y="139"/>
      <point x="369" y="80"/>
    </contour>
  </outline>
</glyph>
<glyph name="Oacute" format="2">
  <advance width="630"/>
  <unicode hex="00D3"/>
  <outline>
    <contour>
      <point x="358" y="750" type="line"/>
      <point x="438" y="750" type="line" name="n01"/>
      <point x="565" y="900" type="line"/>
      <point x="430" y="900" type="line" name="n03"/>
    </contour>
    <contour>
      <point x="288" y="-10" type="curve" smooth="yes" name="n04"/>
      <point x="448" y="-10"/>
      <point x="571" y="95"/>
      <point x="616" y="350" type="curve" smooth="yes"/>
      <point x="661" y="605"/>
      <point x="574" y="710"/>
      <point x="415" y="710" type="curve" smooth="yes" name="n10"/>
      <point x="255" y="710"/>
      <point x="131" y="605"/>
      <point x="86" y="350" type="curve" smooth="yes"/>
      <point x="41" y="95"/>
      <point x="128" y="-10"/>
    </contour>
    <contour>
      <point x="304" y="80" type="curve" smooth="yes" name="n16"/>
      <point x="240" y="80"/>
      <point x="189" y="139"/>
      <point x="226" y="350" type="curve" smooth="yes"/>
      <point x="263" y="561"/>
      <point x="334" y="620"/>
      <point x="399" y="620" type="curve" smooth="yes" name="n22"/>
      <point x="464" y="620"/>
      <point x="513" y="561"/>
      <point x="476" y="350" type="curve" smooth="yes"/>
      <point x="439" y="139"/>
      <point x="369" y="80"/>
    </contour>
  </outline>
</glyph>
<glyph name="Ocircumflex" format="2">
  <advance width="630"/>
  <unicode hex="00D4"/>
  <outline>
    <contour>
      <point x="263" y="760" type="line"/>
      <point x="358" y="760" type="line"/>
      <point x="436" y="830" type="line"/>
      <point x="488" y="760" type="line" name="n03"/>
      <point x="583" y="760" type="line"/>
      <point x="497" y="894" type="line" name="n05"/>
      <point x="397" y="894" type="line"/>
    </contour>
    <contour>
      <point x="288" y="-10" type="curve" smooth="yes" name="n07"/>
      <point x="448" y="-10"/>
      <point x="571" y="95"/>
      <point x="616" y="350" type="curve" smooth="yes"/>
      <point x="661" y="605"/>
      <point x="574" y="710"/>
      <point x="415" y="710" type="curve" smooth="yes" name="n13"/>
      <point x="255" y="710"/>
      <point x="131" y="605"/>
      <point x="86" y="350" type="curve" smooth="yes"/>
      <point x="41" y="95"/>
      <point x="128" y="-10"/>
    </contour>
    <contour>
      <point x="304" y="80" type="curve" smooth="yes" name="n19"/>
      <point x="240" y="80"/>
      <point x="189" y="139"/>
      <point x="226" y="350" type="curve" smooth="yes"/>
      <point x="263" y="561"/>
      <point x="334" y="620"/>
      <point x="399" y="620" type="curve" smooth="yes" name="n25"/>
      <point x="464" y="620"/>
      <point x="513" y="561"/>
      <point x="476" y="350" type="curve" smooth="yes"/>
      <point x="439" y="139"/>
      <point x="369" y="80"/>
    </contour>
  </outline>
</glyph>
<glyph name="Otilde" format="2">
  <advance width="630"/>
  <unicode hex="00D5"/>
  <outline>
    <contour>
      <point x="330" y="770" type="curve"/>
      <point x="330" y="771"/>
      <point x="353" y="809"/>
      <point x="377" y="810" type="curve" name="n03"/>
      <point x="412" y="810"/>
      <point x="423" y="765" name="hr01"/>
      <point x="479" y="765" type="curve" smooth="yes" name="n06"/>
      <point x="528" y="765"/>
      <point x="578" y="814"/>
      <point x="591" y="865" type="curve"/>
      <point x="590.652" y="865.209"/>
      <point x="551.455" y="888.727"/>
      <point x="541" y="895" type="curve"/>
      <point x="539.735" y="895"/>
      <point x="534.081" y="895"/>
      <point x="532" y="895" type="curve"/>
      <point x="533" y="894"/>
      <point x="510" y="854"/>
      <point x="485" y="855" type="curve" name="n18"/>
      <point x="450" y="855"/>
      <point x="437" y="900" name="hr02"/>
      <point x="382" y="900" type="curve" smooth="yes" name="n21"/>
      <point x="331" y="900"/>
      <point x="283" y="851"/>
      <point x="270" y="800" type="curve"/>
      <point x="270.355" y="799.791"/>
      <point x="310.336" y="776.273"/>
      <point x="321" y="770" type="curve"/>
      <point x="322.265" y="770"/>
      <point x="327.919" y="770"/>
    </contour>
    <contour>
      <point x="415" y="710" type="curve" smooth="yes" name="n30"/>
      <point x="255" y="710"/>
      <point x="131" y="605"/>
      <point x="86" y="350" type="curve" smooth="yes"/>
      <point x="41" y="95"/>
      <point x="128" y="-10"/>
      <point x="288" y="-10" type="curve" smooth="yes" name="n36"/>
      <point x="448" y="-10"/>
      <point x="571" y="95"/>
      <point x="616" y="350" type="curve" smooth="yes"/>
      <point x="661" y="605"/>
      <point x="574" y="710"/>
    </contour>
    <contour>
      <point x="476" y="350" type="curve" smooth="yes"/>
      <point x="439" y="139"/>
      <point x="369" y="80"/>
      <point x="304" y="80" type="curve" smooth="yes" name="n45"/>
      <point x="240" y="80"/>
      <point x="189" y="139"/>
      <point x="226" y="350" type="curve" smooth="yes"/>
      <point x="263" y="561"/>
      <point x="334" y="620"/>
      <point x="399" y="620" type="curve" smooth="yes" name="n51"/>
      <point x="464" y="620"/>
      <point x="513" y="561"/>
    </contour>
  </outline>
</glyph>
<glyph name="Odieresis" format="2">
  <advance width="630"/>
  <unicode hex="00D6"/>
  <outline>
    <contour>
      <point x="325" y="770" type="curve" smooth="yes" name="n00"/>
      <point x="361" y="770"/>
      <point x="402" y="803"/>
      <point x="407" y="840" type="curve"/>
      <point x="414" y="877"/>
      <point x="387" y="910"/>
      <point x="350" y="910" type="curve" smooth="yes" name="n06"/>
      <point x="313" y="910"/>
      <point x="275" y="877"/>
      <point x="267" y="840" type="curve" smooth="yes"/>
      <point x="260" y="803"/>
      <point x="288" y="770"/>
    </contour>
    <contour>
      <point x="520" y="770" type="curve" smooth="yes"/>
      <point x="556" y="770"/>
      <point x="597" y="803"/>
      <point x="602" y="840" type="curve"/>
      <point x="609" y="877"/>
      <point x="582" y="910"/>
      <point x="545" y="910" type="curve" smooth="yes"/>
      <point x="508" y="910"/>
      <point x="470" y="877"/>
      <point x="462" y="840" type="curve" smooth="yes"/>
      <point x="455" y="803"/>
      <point x="483" y="770"/>
    </contour>
    <contour>
      <point x="288" y="-10" type="curve" smooth="yes" name="n24"/>
      <point x="448" y="-10"/>
      <point x="571" y="95"/>
      <point x="616" y="350" type="curve" smooth="yes"/>
      <point x="661" y="605"/>
      <point x="574" y="710"/>
      <point x="415" y="710" type="curve" smooth="yes" name="n30"/>
      <point x="255" y="710"/>
      <point x="131" y="605"/>
      <point x="86" y="350" type="curve" smooth="yes"/>
      <point x="41" y="95"/>
      <point x="128" y="-10"/>
    </contour>
    <contour>
      <point x="304" y="80" type="curve" smooth="yes" name="n36"/>
      <point x="240" y="80"/>
      <point x="189" y="139"/>
      <point x="226" y="350" type="curve" smooth="yes"/>
      <point x="263" y="561"/>
      <point x="334" y="620"/>
      <point x="399" y="620" type="curve" smooth="yes" name="n42"/>
      <point x="464" y="620"/>
      <point x="513" y="561"/>
      <point x="476" y="350" type="curve" smooth="yes"/>
      <point x="439" y="139"/>
      <point x="369" y="80"/>
    </contour>
  </outline>
</glyph>
<glyph name="multiply" format="2">
  <advance width="440"/>
  <unicode hex="00D7"/>
  <outline>
    <contour>
      <point x="105" y="145" type="line" name="n00"/>
      <point x="240" y="260" type="line"/>
      <point x="335" y="145" type="line"/>
      <point x="417" y="215" type="line"/>
      <point x="323" y="330" type="line"/>
      <point x="458" y="445" type="line" name="n05"/>
      <point x="400" y="515" type="line"/>
      <point x="265" y="400" type="line"/>
      <point x="170" y="515" type="line" name="n08"/>
      <point x="88" y="445" type="line"/>
      <point x="183" y="330" type="line"/>
      <point x="47" y="215" type="line" name="n11"/>
    </contour>
  </outline>
</glyph>
<glyph name="Oslash" format="2">
  <advance width="630"/>
  <unicode hex="00D8"/>
  <outline>
    <contour>
      <point x="288" y="-10" type="curve" smooth="yes" name="n00"/>
      <point x="448" y="-10"/>
      <point x="571" y="95"/>
      <point x="616" y="350" type="curve" smooth="yes"/>
      <point x="636" y="463"/>
      <point x="631" y="545"/>
      <point x="604" y="604" type="curve" name="n06"/>
      <point x="678" y="700" type="line"/>
      <point x="563" y="700" type="line" name="n08"/>
      <point x="544" y="676" type="line"/>
      <point x="511" y="699"/>
      <point x="468" y="710" name="hr01"/>
      <point x="415" y="710" type="curve" smooth="yes" name="n12"/>
      <point x="255" y="710"/>
      <point x="131" y="605"/>
      <point x="86" y="350" type="curve" smooth="yes"/>
      <point x="66" y="237"/>
      <point x="71" y="155"/>
      <point x="98" y="96" type="curve" name="n18"/>
      <point x="25" y="0" type="line"/>
      <point x="140" y="0" type="line" name="n20"/>
      <point x="158" y="24" type="line"/>
      <point x="193" y="1"/>
      <point x="236" y="-10" name="hr02"/>
    </contour>
    <contour>
      <point x="214" y="246" type="line"/>
      <point x="215" y="275"/>
      <point x="219" y="310"/>
      <point x="226" y="350" type="curve" smooth="yes"/>
      <point x="263" y="561"/>
      <point x="334" y="620"/>
      <point x="399" y="620" type="curve" smooth="yes" name="n30"/>
      <point x="427" y="620"/>
      <point x="452" y="609"/>
      <point x="468" y="578" type="curve"/>
    </contour>
    <contour>
      <point x="304" y="80" type="curve" smooth="yes" name="n34"/>
      <point x="275" y="80"/>
      <point x="250" y="91"/>
      <point x="233" y="122" type="curve"/>
      <point x="488" y="453" type="line"/>
      <point x="487" y="423"/>
      <point x="483" y="389"/>
      <point x="476" y="350" type="curve" smooth="yes"/>
      <point x="439" y="139"/>
      <point x="369" y="80"/>
    </contour>
  </outline>
</glyph>
<glyph name="Ugrave" format="2">
  <advance width="640"/>
  <unicode hex="00D9"/>
  <outline>
    <contour>
      <point x="404" y="730" type="line"/>
      <point x="484" y="730" type="line" name="n01"/>
      <point x="466" y="880" type="line" name="n02"/>
      <point x="331" y="880" type="line"/>
    </contour>
    <contour>
      <point x="293" y="-10" type="curve" smooth="yes" name="n04"/>
      <point x="449" y="-10"/>
      <point x="553" y="79"/>
      <point x="580" y="230" type="curve" smooth="yes"/>
      <point x="663" y="700" type="line" name="n08"/>
      <point x="523" y="700" type="line"/>
      <point x="440" y="230" type="line" smooth="yes"/>
      <point x="421" y="125"/>
      <point x="369" y="80"/>
      <point x="309" y="80" type="curve" smooth="yes" name="n13"/>
      <point x="249" y="80"/>
      <point x="211" y="125"/>
      <point x="230" y="230" type="curve" smooth="yes"/>
      <point x="313" y="700" type="line"/>
      <point x="173" y="700" type="line"/>
      <point x="90" y="230" type="line" smooth="yes"/>
      <point x="63" y="79"/>
      <point x="137" y="-10"/>
    </contour>
  </outline>
</glyph>
<glyph name="Uacute" format="2">
  <advance width="640"/>
  <unicode hex="00DA"/>
  <outline>
    <contour>
      <point x="369" y="730" type="line"/>
      <point x="449" y="730" type="line" name="n01"/>
      <point x="576" y="880" type="line"/>
      <point x="441" y="880" type="line" name="n03"/>
    </contour>
    <contour>
      <point x="293" y="-10" type="curve" smooth="yes" name="n04"/>
      <point x="449" y="-10"/>
      <point x="553" y="79"/>
      <point x="580" y="230" type="curve" smooth="yes"/>
      <point x="663" y="700" type="line" name="n08"/>
      <point x="523" y="700" type="line"/>
      <point x="440" y="230" type="line" smooth="yes"/>
      <point x="421" y="125"/>
      <point x="369" y="80"/>
      <point x="309" y="80" type="curve" smooth="yes" name="n13"/>
      <point x="249" y="80"/>
      <point x="211" y="125"/>
      <point x="230" y="230" type="curve" smooth="yes"/>
      <point x="313" y="700" type="line"/>
      <point x="173" y="700" type="line"/>
      <point x="90" y="230" type="line" smooth="yes"/>
      <point x="63" y="79"/>
      <point x="137" y="-10"/>
    </contour>
  </outline>
</glyph>
<glyph name="Ucircumflex" format="2">
  <advance width="640"/>
  <unicode hex="00DB"/>
  <outline>
    <contour>
      <point x="268" y="760" type="line"/>
      <point x="363" y="760" type="line"/>
      <point x="441" y="830" type="line"/>
      <point x="493" y="760" type="line" name="n03"/>
      <point x="588" y="760" type="line"/>
      <point x="502" y="894" type="line" name="n05"/>
      <point x="402" y="894" type="line"/>
    </contour>
    <contour>
      <point x="293" y="-10" type="curve" smooth="yes" name="n07"/>
      <point x="449" y="-10"/>
      <point x="553" y="79"/>
      <point x="580" y="230" type="curve" smooth="yes"/>
      <point x="663" y="700" type="line" name="n11"/>
      <point x="523" y="700" type="line"/>
      <point x="440" y="230" type="line" smooth="yes"/>
      <point x="421" y="125"/>
      <point x="369" y="80"/>
      <point x="309" y="80" type="curve" smooth="yes" name="n16"/>
      <point x="249" y="80"/>
      <point x="211" y="125"/>
      <point x="230" y="230" type="curve" smooth="yes"/>
      <point x="313" y="700" type="line"/>
      <point x="173" y="700" type="line"/>
      <point x="90" y="230" type="line" smooth="yes"/>
      <point x="63" y="79"/>
      <point x="137" y="-10"/>
    </contour>
  </outline>
</glyph>
<glyph name="Udieresis" format="2">
  <advance width="640"/>
  <unicode hex="00DC"/>
  <outline>
    <contour>
      <point x="330" y="770" type="curve" smooth="yes" name="n00"/>
      <point x="366" y="770"/>
      <point x="407" y="803"/>
      <point x="412" y="840" type="curve"/>
      <point x="419" y="877"/>
      <point x="392" y="910"/>
      <point x="355" y="910" type="curve" smooth="yes" name="n06"/>
      <point x="318" y="910"/>
      <point x="280" y="877"/>
      <point x="272" y="840" type="curve" smooth="yes"/>
      <point x="265" y="803"/>
      <point x="293" y="770"/>
    </contour>
    <contour>
      <point x="525" y="770" type="curve" smooth="yes"/>
      <point x="561" y="770"/>
      <point x="602" y="803"/>
      <point x="607" y="840" type="curve"/>
      <point x="614" y="877"/>
      <point x="587" y="910"/>
      <point x="550" y="910" type="curve" smooth="yes"/>
      <point x="513" y="910"/>
      <point x="475" y="877"/>
      <point x="467" y="840" type="curve" smooth="yes"/>
      <point x="460" y="803"/>
      <point x="488" y="770"/>
    </contour>
    <contour>
      <point x="293" y="-10" type="curve" smooth="yes" name="n24"/>
      <point x="449" y="-10"/>
      <point x="553" y="79"/>
      <point x="580" y="230" type="curve" smooth="yes"/>
      <point x="663" y="700" type="line" name="n28"/>
      <point x="523" y="700" type="line"/>
      <point x="440" y="230" type="line" smooth="yes"/>
      <point x="421" y="125"/>
      <point x="369" y="80"/>
      <point x="309" y="80" type="curve" smooth="yes" name="n33"/>
      <point x="249" y="80"/>
      <point x="211" y="125"/>
      <point x="230" y="230" type="curve" smooth="yes"/>
      <point x="313" y="700" type="line"/>
      <point x="173" y="700" type="line"/>
      <point x="90" y="230" type="line" smooth="yes"/>
      <point x="63" y="79"/>
      <point x="137" y="-10"/>
    </contour>
  </outline>
</glyph>
<glyph name="Yacute" format="2">
  <advance width="570"/>
  <unicode hex="00DD"/>
  <outline>
    <contour>
      <point x="334" y="730" type="line"/>
      <point x="414" y="730" type="line" name="n01"/>
      <point x="541" y="880" type="line"/>
      <point x="406" y="880" type="line" name="n03"/>
    </contour>
    <contour>
      <point x="190" y="0" type="line" name="n04"/>
      <point x="330" y="0" type="line"/>
      <point x="370" y="230" type="line"/>
      <point x="668" y="700" type="line" name="n07"/>
      <point x="523" y="700" type="line"/>
      <point x="346" y="405" type="line"/>
      <point x="339" y="394"/>
      <point x="335" y="384"/>
      <point x="331" y="375" type="curve"/>
      <point x="328" y="370"/>
      <point x="326" y="365"/>
      <point x="325" y="360" type="curve"/>
      <point x="321" y="360" type="line"/>
      <point x="321" y="365"/>
      <point x="321" y="370"/>
      <point x="320" y="375" type="curve"/>
      <point x="319" y="384"/>
      <point x="319" y="394"/>
      <point x="316" y="405" type="curve" smooth="yes"/>
      <point x="243" y="700" type="line"/>
      <point x="98" y="700" type="line" name="n24"/>
      <point x="230" y="230" type="line"/>
    </contour>
  </outline>
</glyph>
<glyph name="Thorn" format="2">
  <advance width="645"/>
  <unicode hex="00DE"/>
  <outline>
    <contour>
      <point x="56" y="-20" type="line"/>
      <point x="196" y="-20" type="line"/>
      <point x="208" y="50" type="line" name="n02"/>
      <point x="278" y="50" type="line" smooth="yes"/>
      <point x="473" y="50"/>
      <point x="609" y="166"/>
      <point x="641" y="350" type="curve" smooth="yes"/>
      <point x="673" y="534"/>
      <point x="580" y="650"/>
      <point x="384" y="650" type="curve" smooth="yes"/>
      <point x="314" y="650" type="line" name="n10"/>
      <point x="326" y="720" type="line"/>
      <point x="186" y="720" type="line"/>
    </contour>
    <contour>
      <point x="224" y="140" type="line" name="n13"/>
      <point x="298" y="560" type="line" name="n14"/>
      <point x="368" y="560" type="line" smooth="yes"/>
      <point x="467" y="560"/>
      <point x="525" y="490"/>
      <point x="501" y="350" type="curve" smooth="yes"/>
      <point x="477" y="210"/>
      <point x="394" y="140"/>
      <point x="294" y="140" type="curve" smooth="yes"/>
    </contour>
  </outline>
</glyph>
<glyph name="germandbls" format="2">
  <advance width="620"/>
  <unicode hex="00DF"/>
  <outline>
    <contour>
      <point x="358" y="-10" type="curve" smooth="yes" name="n00"/>
      <point x="498" y="-10"/>
      <point x="585" y="66"/>
      <point x="604" y="170" type="curve" smooth="yes"/>
      <point x="632" y="319"/>
      <point x="448" y="330"/>
      <point x="464" y="420" type="curve" smooth="yes"/>
      <point x="472" y="470"/>
      <point x="527" y="499"/>
      <point x="538" y="560" type="curve" smooth="yes"/>
      <point x="551" y="635"/>
      <point x="490" y="710"/>
      <point x="360" y="710" type="curve" smooth="yes" name="n12"/>
      <point x="250" y="710"/>
      <point x="162" y="635"/>
      <point x="146" y="550" type="curve"/>
      <point x="138" y="500" type="line"/>
      <point x="83" y="500" type="line" name="n17"/>
      <point x="67" y="410" type="line" name="n18"/>
      <point x="122" y="410" type="line"/>
      <point x="50" y="0" type="line" name="hr01"/>
      <point x="190" y="0" type="line" name="n21"/>
      <point x="286" y="550" type="line" smooth="yes"/>
      <point x="294" y="595"/>
      <point x="323" y="620"/>
      <point x="354" y="620" type="curve" smooth="yes" name="n25"/>
      <point x="385" y="620"/>
      <point x="405" y="595"/>
      <point x="398" y="560" type="curve"/>
      <point x="390" y="510"/>
      <point x="345" y="480"/>
      <point x="334" y="420" type="curve" smooth="yes"/>
      <point x="310" y="281"/>
      <point x="484" y="269"/>
      <point x="464" y="170" type="curve"/>
      <point x="454" y="110"/>
      <point x="421" y="80" name="hr02"/>
      <point x="364" y="80" type="curve" smooth="yes" name="n37"/>
      <point x="344" y="80"/>
      <point x="329" y="85"/>
      <point x="318" y="92" type="curve"/>
      <point x="312" y="95"/>
      <point x="307" y="100"/>
      <point x="303" y="105" type="curve"/>
      <point x="293" y="105" type="line"/>
      <point x="243" y="20" type="line" name="n45"/>
      <point x="252" y="14"/>
      <point x="262" y="9"/>
      <point x="274" y="5" type="curve"/>
      <point x="294" y="-3"/>
      <point x="323" y="-10" name="hr04"/>
    </contour>
  </outline>
</glyph>
<glyph name="agrave" format="2">
  <advance width="540"/>
  <unicode hex="00E0"/>
  <outline>
    <contour>
      <point x="313" y="550" type="line"/>
      <point x="393" y="550" type="line" name="n01"/>
      <point x="375" y="700" type="line" name="n02"/>
      <point x="240" y="700" type="line"/>
    </contour>
    <contour>
      <point x="198" y="-10" type="curve" smooth="yes" name="n04"/>
      <point x="243" y="-10"/>
      <point x="278" y="6"/>
      <point x="305" y="25" type="curve" smooth="yes"/>
      <point x="320" y="35"/>
      <point x="333" y="47"/>
      <point x="345" y="60" type="curve"/>
      <point x="350" y="60" type="line"/>
      <point x="350" y="0" type="line" name="n12"/>
      <point x="450" y="0" type="line"/>
      <point x="506" y="320" type="line" smooth="yes"/>
      <point x="525" y="430"/>
      <point x="459" y="510"/>
      <point x="314" y="510" type="curve" smooth="yes" name="n17"/>
      <point x="263" y="510"/>
      <point x="219" y="497"/>
      <point x="187" y="485" type="curve" smooth="yes"/>
      <point x="168" y="478"/>
      <point x="151" y="469"/>
      <point x="136" y="460" type="curve"/>
      <point x="167" y="380" type="line"/>
      <point x="177" y="380" type="line"/>
      <point x="186" y="387"/>
      <point x="197" y="394"/>
      <point x="209" y="400" type="curve"/>
      <point x="229" y="411"/>
      <point x="256" y="420"/>
      <point x="289" y="420" type="curve" smooth="yes" name="n31"/>
      <point x="354" y="420"/>
      <point x="378" y="391"/>
      <point x="366" y="320" type="curve"/>
      <point x="363" y="305" type="line"/>
      <point x="293" y="305" type="line" smooth="yes" name="n36"/>
      <point x="134" y="305"/>
      <point x="56" y="241"/>
      <point x="40" y="145" type="curve" smooth="yes"/>
      <point x="24" y="54"/>
      <point x="78" y="-10" name="hr02"/>
    </contour>
    <contour>
      <point x="239" y="85" type="curve" smooth="yes" name="n42"/>
      <point x="194" y="85"/>
      <point x="173" y="110"/>
      <point x="180" y="145" type="curve" smooth="yes"/>
      <point x="188" y="190"/>
      <point x="217" y="215"/>
      <point x="277" y="215" type="curve" smooth="yes" name="n48"/>
      <point x="347" y="215" type="line"/>
      <point x="335" y="145" type="line"/>
      <point x="326" y="134"/>
      <point x="317" y="124"/>
      <point x="306" y="115" type="curve" smooth="yes"/>
      <point x="287" y="100"/>
      <point x="264" y="85"/>
    </contour>
  </outline>
</glyph>
<glyph name="aacute" format="2">
  <advance width="540"/>
  <unicode hex="00E1"/>
  <outline>
    <contour>
      <point x="278" y="550" type="line"/>
      <point x="358" y="550" type="line" name="n01"/>
      <point x="485" y="700" type="line"/>
      <point x="350" y="700" type="line" name="n03"/>
    </contour>
    <contour>
      <point x="198" y="-10" type="curve" smooth="yes" name="n04"/>
      <point x="243" y="-10"/>
      <point x="278" y="6"/>
      <point x="305" y="25" type="curve" smooth="yes"/>
      <point x="320" y="35"/>
      <point x="333" y="47"/>
      <point x="345" y="60" type="curve"/>
      <point x="350" y="60" type="line"/>
      <point x="350" y="0" type="line" name="n12"/>
      <point x="450" y="0" type="line"/>
      <point x="506" y="320" type="line" smooth="yes"/>
      <point x="525" y="430"/>
      <point x="459" y="510"/>
      <point x="314" y="510" type="curve" smooth="yes" name="n17"/>
      <point x="263" y="510"/>
      <point x="219" y="497"/>
      <point x="187" y="485" type="curve" smooth="yes"/>
      <point x="168" y="478"/>
      <point x="151" y="469"/>
      <point x="136" y="460" type="curve"/>
      <point x="167" y="380" type="line"/>
      <point x="177" y="380" type="line"/>
      <point x="186" y="387"/>
      <point x="197" y="394"/>
      <point x="209" y="400" type="curve"/>
      <point x="229" y="411"/>
      <point x="256" y="420"/>
      <point x="289" y="420" type="curve" smooth="yes" name="n31"/>
      <point x="354" y="420"/>
      <point x="378" y="391"/>
      <point x="366" y="320" type="curve"/>
      <point x="363" y="305" type="line"/>
      <point x="293" y="305" type="line" smooth="yes" name="n36"/>
      <point x="134" y="305"/>
      <point x="56" y="241"/>
      <point x="40" y="145" type="curve" smooth="yes"/>
      <point x="24" y="54"/>
      <point x="78" y="-10" name="hr02"/>
    </contour>
    <contour>
      <point x="239" y="85" type="curve" smooth="yes" name="n42"/>
      <point x="194" y="85"/>
      <point x="173" y="110"/>
      <point x="180" y="145" type="curve" smooth="yes"/>
      <point x="188" y="190"/>
      <point x="217" y="215"/>
      <point x="277" y="215" type="curve" smooth="yes" name="n48"/>
      <point x="347" y="215" type="line"/>
      <point x="335" y="145" type="line"/>
      <point x="326" y="134"/>
      <point x="317" y="124"/>
      <point x="306" y="115" type="curve" smooth="yes"/>
      <point x="287" y="100"/>
      <point x="264" y="85"/>
    </contour>
  </outline>
</glyph>
<glyph name="acircumflex" format="2">
  <advance width="540"/>
  <unicode hex="00E2"/>
  <outline>
    <contour>
      <point x="183" y="560" type="line"/>
      <point x="278" y="560" type="line"/>
      <point x="356" y="630" type="line"/>
      <point x="408" y="560" type="line" name="n03"/>
      <point x="503" y="560" type="line"/>
      <point x="417" y="694" type="line" name="n05"/>
      <point x="317" y="694" type="line"/>
    </contour>
    <contour>
      <point x="198" y="-10" type="curve" smooth="yes" name="n07"/>
      <point x="243" y="-10"/>
      <point x="278" y="6"/>
      <point x="305" y="25" type="curve" smooth="yes"/>
      <point x="320" y="35"/>
      <point x="333" y="47"/>
      <point x="345" y="60" type="curve"/>
      <point x="350" y="60" type="line"/>
      <point x="350" y="0" type="line" name="n15"/>
      <point x="450" y="0" type="line"/>
      <point x="506" y="320" type="line" smooth="yes"/>
      <point x="525" y="430"/>
      <point x="459" y="510"/>
      <point x="314" y="510" type="curve" smooth="yes" name="n20"/>
      <point x="263" y="510"/>
      <point x="219" y="497"/>
      <point x="187" y="485" type="curve" smooth="yes"/>
      <point x="168" y="478"/>
      <point x="151" y="469"/>
      <point x="136" y="460" type="curve"/>
      <point x="167" y="380" type="line"/>
      <point x="177" y="380" type="line"/>
      <point x="186" y="387"/>
      <point x="197" y="394"/>
      <point x="209" y="400" type="curve"/>
      <point x="229" y="411"/>
      <point x="256" y="420"/>
      <point x="289" y="420" type="curve" smooth="yes" name="n34"/>
      <point x="354" y="420"/>
      <point x="378" y="391"/>
      <point x="366" y="320" type="curve"/>
      <point x="363" y="305" type="line"/>
      <point x="293" y="305" type="line" smooth="yes" name="n39"/>
      <point x="134" y="305"/>
      <point x="56" y="241"/>
      <point x="40" y="145" type="curve" smooth="yes"/>
      <point x="24" y="54"/>
      <point x="78" y="-10" name="hr02"/>
    </contour>
    <contour>
      <point x="239" y="85" type="curve" smooth="yes" name="n45"/>
      <point x="194" y="85"/>
      <point x="173" y="110"/>
      <point x="180" y="145" type="curve" smooth="yes"/>
      <point x="188" y="190"/>
      <point x="217" y="215"/>
      <point x="277" y="215" type="curve" smooth="yes" name="n51"/>
      <point x="347" y="215" type="line"/>
      <point x="335" y="145" type="line"/>
      <point x="326" y="134"/>
      <point x="317" y="124"/>
      <point x="306" y="115" type="curve" smooth="yes"/>
      <point x="287" y="100"/>
      <point x="264" y="85"/>
    </contour>
  </outline>
</glyph>
<glyph name="atilde" format="2">
  <advance width="540"/>
  <unicode hex="00E3"/>
  <outline>
    <contour>
      <point x="250" y="571" type="curve"/>
      <point x="250" y="572"/>
      <point x="273" y="610"/>
      <point x="297" y="611" type="curve" name="n03"/>
      <point x="332" y="611"/>
      <point x="343" y="566" name="hr01"/>
      <point x="399" y="566" type="curve" smooth="yes" name="n06"/>
      <point x="448" y="566"/>
      <point x="498" y="615"/>
      <point x="511" y="666" type="curve"/>
      <point x="510.652" y="666.209"/>
      <point x="471.455" y="689.727"/>
      <point x="461" y="696" type="curve"/>
      <point x="459.735" y="696"/>
      <point x="454.081" y="696"/>
      <point x="452" y="696" type="curve"/>
      <point x="453" y="695"/>
      <point x="430" y="655"/>
      <point x="405" y="656" type="curve" name="n18"/>
      <point x="370" y="656"/>
      <point x="357" y="701" name="hr02"/>
      <point x="302" y="701" type="curve" smooth="yes" name="n21"/>
      <point x="251" y="701"/>
      <point x="203" y="652"/>
      <point x="190" y="601" type="curve"/>
      <point x="190.355" y="600.791"/>
      <point x="230.336" y="577.273"/>
      <point x="241" y="571" type="curve"/>
      <point x="242.265" y="571"/>
      <point x="247.919" y="571"/>
    </contour>
    <contour>
      <point x="314" y="510" type="curve" smooth="yes" name="n30"/>
      <point x="263" y="510"/>
      <point x="219" y="497"/>
      <point x="187" y="485" type="curve" smooth="yes"/>
      <point x="168" y="478"/>
      <point x="151" y="469"/>
      <point x="136" y="460" type="curve"/>
      <point x="167" y="380" type="line"/>
      <point x="177" y="380" type="line"/>
      <point x="186" y="387"/>
      <point x="197" y="394"/>
      <point x="209" y="400" type="curve"/>
      <point x="229" y="411"/>
      <point x="256" y="420"/>
      <point x="289" y="420" type="curve" smooth="yes" name="n44"/>
      <point x="354" y="420"/>
      <point x="378" y="391"/>
      <point x="366" y="320" type="curve"/>
      <point x="365.408" y="317.04"/>
      <point x="363.4" y="306.999"/>
      <point x="363" y="305" type="curve"/>
      <point x="350.692" y="305"/>
      <point x="304.264" y="305"/>
      <point x="293" y="305" type="curve" smooth="yes" name="n53"/>
      <point x="134" y="305"/>
      <point x="56" y="241"/>
      <point x="40" y="145" type="curve" smooth="yes"/>
      <point x="24" y="54"/>
      <point x="78" y="-10"/>
      <point x="198" y="-10" type="curve" smooth="yes" name="n59"/>
      <point x="243" y="-10"/>
      <point x="278" y="6"/>
      <point x="305" y="25" type="curve" smooth="yes"/>
      <point x="320" y="35"/>
      <point x="333" y="47"/>
      <point x="345" y="60" type="curve"/>
      <point x="345.941" y="60"/>
      <point x="348.822" y="60"/>
      <point x="350" y="60" type="curve"/>
      <point x="350" y="0" type="line" name="n69"/>
      <point x="450" y="0" type="line" name="hr03"/>
      <point x="463.908" y="79.4763"/>
      <point x="497.798" y="273.129"/>
      <point x="506" y="320" type="curve" smooth="yes"/>
      <point x="525" y="430"/>
      <point x="459" y="510"/>
    </contour>
    <contour>
      <point x="335" y="145" type="curve"/>
      <point x="326" y="134"/>
      <point x="317" y="124"/>
      <point x="306" y="115" type="curve" smooth="yes"/>
      <point x="287" y="100"/>
      <point x="264" y="85"/>
      <point x="239" y="85" type="curve" smooth="yes" name="n82"/>
      <point x="194" y="85" name="hr04"/>
      <point x="173" y="110"/>
      <point x="180" y="145" type="curve" smooth="yes"/>
      <point x="188" y="190"/>
      <point x="217" y="215"/>
      <point x="277" y="215" type="curve" smooth="yes" name="n88"/>
      <point x="289.153" y="215"/>
      <point x="335.801" y="215"/>
      <point x="347" y="215" type="curve"/>
      <point x="345.105" y="203.948"/>
      <point x="337.139" y="157.477"/>
    </contour>
  </outline>
</glyph>
<glyph name="adieresis" format="2">
  <advance width="540"/>
  <unicode hex="00E4"/>
  <outline>
    <contour>
      <point x="245" y="570" type="curve" smooth="yes" name="n00"/>
      <point x="281" y="570"/>
      <point x="322" y="603"/>
      <point x="327" y="640" type="curve"/>
      <point x="334" y="677"/>
      <point x="307" y="710"/>
      <point x="270" y="710" type="curve" smooth="yes" name="n06"/>
      <point x="233" y="710"/>
      <point x="195" y="677"/>
      <point x="187" y="640" type="curve" smooth="yes"/>
      <point x="180" y="603"/>
      <point x="208" y="570"/>
    </contour>
    <contour>
      <point x="440" y="570" type="curve" smooth="yes"/>
      <point x="476" y="570"/>
      <point x="517" y="603"/>
      <point x="522" y="640" type="curve"/>
      <point x="529" y="677"/>
      <point x="502" y="710"/>
      <point x="465" y="710" type="curve" smooth="yes"/>
      <point x="428" y="710"/>
      <point x="390" y="677"/>
      <point x="382" y="640" type="curve" smooth="yes"/>
      <point x="375" y="603"/>
      <point x="403" y="570"/>
    </contour>
    <contour>
      <point x="198" y="-10" type="curve" smooth="yes" name="n24"/>
      <point x="243" y="-10"/>
      <point x="278" y="6"/>
      <point x="305" y="25" type="curve" smooth="yes"/>
      <point x="320" y="35"/>
      <point x="333" y="47"/>
      <point x="345" y="60" type="curve"/>
      <point x="350" y="60" type="line"/>
      <point x="350" y="0" type="line" name="n32"/>
      <point x="450" y="0" type="line"/>
      <point x="506" y="320" type="line" smooth="yes" name="hr01"/>
      <point x="525" y="430"/>
      <point x="459" y="510"/>
      <point x="314" y="510" type="curve" smooth="yes" name="n37"/>
      <point x="263" y="510"/>
      <point x="219" y="497"/>
      <point x="187" y="485" type="curve" smooth="yes"/>
      <point x="168" y="478"/>
      <point x="151" y="469"/>
      <point x="136" y="460" type="curve"/>
      <point x="167" y="380" type="line"/>
      <point x="177" y="380" type="line"/>
      <point x="186" y="387"/>
      <point x="197" y="394"/>
      <point x="209" y="400" type="curve"/>
      <point x="229" y="411"/>
      <point x="256" y="420"/>
      <point x="289" y="420" type="curve" smooth="yes" name="n51"/>
      <point x="354" y="420"/>
      <point x="378" y="391"/>
      <point x="366" y="320" type="curve"/>
      <point x="363" y="305" type="line"/>
      <point x="293" y="305" type="line" smooth="yes" name="n56"/>
      <point x="134" y="305"/>
      <point x="56" y="241"/>
      <point x="40" y="145" type="curve" smooth="yes"/>
      <point x="24" y="54"/>
      <point x="78" y="-10"/>
    </contour>
    <contour>
      <point x="239" y="85" type="curve" smooth="yes" name="n62"/>
      <point x="194" y="85" name="hr02"/>
      <point x="173" y="110"/>
      <point x="180" y="145" type="curve" smooth="yes"/>
      <point x="188" y="190"/>
      <point x="217" y="215"/>
      <point x="277" y="215" type="curve" smooth="yes" name="n68"/>
      <point x="347" y="215" type="line"/>
      <point x="335" y="145" type="line"/>
      <point x="326" y="134"/>
      <point x="317" y="124"/>
      <point x="306" y="115" type="curve" smooth="yes"/>
      <point x="287" y="100"/>
      <point x="264" y="85"/>
    </contour>
  </outline>
</glyph>
